<svg width="729" height="279" xmlns="http://www.w3.org/2000/svg" fill="none">
 <g>
  <title>Layer 1</title>
  <path d="m259.128,150.696l-56.998,0l0,133.3l56.998,0l0,-133.3z" fill="#333333" id="svg_1"/>
  <path d="m228.038,143.971l-25.908,0l0,7.588l25.908,0l0,-7.588z" fill="#333333" id="svg_2"/>
  <path d="m217.157,139.66l-15.027,0l0,4.311l15.027,0l0,-4.311z" fill="#333333" id="svg_3"/>
  <path opacity="0.06" d="m235.293,160.008l-9.327,0l0,6.898l9.327,0l0,-6.898z" fill="white" id="svg_4"/>
  <path opacity="0.12" d="m235.293,177.08l-9.327,0l0,6.898l9.327,0l0,-6.898z" fill="white" id="svg_5"/>
  <path opacity="0.19" d="m235.293,211.224l-9.327,0l0,6.898l9.327,0l0,-6.898z" fill="white" id="svg_6"/>
  <path opacity="0.14" d="m235.293,245.368l-9.327,0l0,6.898l9.327,0l0,-6.898z" fill="white" id="svg_7"/>
  <path opacity="0.1" d="m235.293,262.44l-9.327,0l0,6.898l9.327,0l0,-6.898z" fill="white" id="svg_8"/>
  <path d="m116.116,165.181l-78.0699,0l0,71.392l78.0699,0l0,-71.392z" fill="#333333" id="svg_9"/>
  <path d="m103.853,158.801l-53.371,0l0,30.695l53.371,0l0,-30.695z" fill="#333333" id="svg_10"/>
  <path d="m121.815,210.189l-78.0692,0l0,71.392l78.0692,0l0,-71.392z" fill="#333333" id="svg_11"/>
  <path d="m109.38,203.808l-53.371,0l0,30.695l53.371,0l0,-30.695z" fill="#333333" id="svg_12"/>
  <path d="m225.793,200.704l-78.069,0l0,82.257l78.069,0l0,-82.257z" fill="#333333" id="svg_13"/>
  <path d="m213.53,193.462l-53.371,0l0,35.523l53.371,0l0,-35.523z" fill="#333333" id="svg_14"/>
  <path d="m487.119,225.71l-78.07,0l0,79.496l78.07,0l0,-79.496z" fill="#333333" id="svg_15"/>
  <path d="m474.856,218.639l-53.371,0l0,34.317l53.371,0l0,-34.317z" fill="#333333" id="svg_16"/>
  <path d="m317.853,61.542l-87.224,0l0,221.247l87.224,0l0,-221.247z" fill="#333333" id="svg_17"/>
  <path opacity="0.46" d="m256.019,71.544l-21.072,0l0,3.967l21.072,0l0,-3.967z" fill="#E6E6E6" id="svg_18"/>
  <path opacity="0.34" d="m284.863,71.544l-21.071,0l0,3.967l21.071,0l0,-3.967z" fill="#E6E6E6" id="svg_19"/>
  <path opacity="0.52" d="m313.535,71.544l-21.072,0l0,3.967l21.072,0l0,-3.967z" fill="#E6E6E6" id="svg_20"/>
  <path opacity="0.54" d="m256.019,80.684l-21.072,0l0,3.966l21.072,0l0,-3.966z" fill="#E6E6E6" id="svg_21"/>
  <path opacity="0.3" d="m284.863,80.684l-21.071,0l0,3.966l21.071,0l0,-3.966z" fill="#E6E6E6" id="svg_22"/>
  <path opacity="0.06" d="m313.535,80.684l-21.072,0l0,3.966l21.072,0l0,-3.966z" fill="#E6E6E6" id="svg_23"/>
  <path opacity="0.15" d="m256.019,89.823l-21.072,0l0,3.967l21.072,0l0,-3.967z" fill="#E6E6E6" id="svg_24"/>
  <path opacity="0.42" d="m284.863,89.823l-21.071,0l0,3.967l21.071,0l0,-3.967z" fill="#E6E6E6" id="svg_25"/>
  <path opacity="0.48" d="m313.535,89.823l-21.072,0l0,3.967l21.072,0l0,-3.967z" fill="#E6E6E6" id="svg_26"/>
  <path opacity="0.18" d="m256.019,98.963l-21.072,0l0,3.966l21.072,0l0,-3.966z" fill="#E6E6E6" id="svg_27"/>
  <path opacity="0.28" d="m313.535,98.963l-21.072,0l0,3.966l21.072,0l0,-3.966z" fill="#E6E6E6" id="svg_28"/>
  <path opacity="0.29" d="m256.019,108.102l-21.072,0l0,3.967l21.072,0l0,-3.967z" fill="#E6E6E6" id="svg_29"/>
  <path opacity="0.28" d="m284.863,108.102l-21.071,0l0,3.967l21.071,0l0,-3.967z" fill="#E6E6E6" id="svg_30"/>
  <path opacity="0.56" d="m313.535,108.102l-21.072,0l0,3.967l21.072,0l0,-3.967z" fill="#E6E6E6" id="svg_31"/>
  <path opacity="0.41" d="m256.019,117.242l-21.072,0l0,3.966l21.072,0l0,-3.966z" fill="#E6E6E6" id="svg_32"/>
  <path opacity="0.16" d="m284.863,117.242l-21.071,0l0,3.966l21.071,0l0,-3.966z" fill="#E6E6E6" id="svg_33"/>
  <path opacity="0.4" d="m313.535,117.242l-21.072,0l0,3.966l21.072,0l0,-3.966z" fill="#E6E6E6" id="svg_34"/>
  <path opacity="0.1" d="m256.019,126.382l-21.072,0l0,3.966l21.072,0l0,-3.966z" fill="#E6E6E6" id="svg_35"/>
  <path opacity="0.17" d="m284.863,126.382l-21.071,0l0,3.966l21.071,0l0,-3.966z" fill="#E6E6E6" id="svg_36"/>
  <path opacity="0.08" d="m313.535,126.382l-21.072,0l0,3.966l21.072,0l0,-3.966z" fill="#E6E6E6" id="svg_37"/>
  <path opacity="0.49" d="m256.019,135.521l-21.072,0l0,3.966l21.072,0l0,-3.966z" fill="#E6E6E6" id="svg_38"/>
  <path opacity="0.58" d="m284.863,135.521l-21.071,0l0,3.966l21.071,0l0,-3.966z" fill="#E6E6E6" id="svg_39"/>
  <path opacity="0.58" d="m313.535,135.521l-21.072,0l0,3.966l21.072,0l0,-3.966z" fill="#E6E6E6" id="svg_40"/>
  <path opacity="0.26" d="m256.019,144.661l-21.072,0l0,3.966l21.072,0l0,-3.966z" fill="#E6E6E6" id="svg_41"/>
  <path opacity="0.37" d="m284.863,144.661l-21.071,0l0,3.966l21.071,0l0,-3.966z" fill="#E6E6E6" id="svg_42"/>
  <path opacity="0.34" d="m313.535,144.661l-21.072,0l0,3.966l21.072,0l0,-3.966z" fill="#E6E6E6" id="svg_43"/>
  <path opacity="0.55" d="m256.019,153.8l-21.072,0l0,3.966l21.072,0l0,-3.966z" fill="#E6E6E6" id="svg_44"/>
  <path opacity="0.12" d="m284.863,153.8l-21.071,0l0,3.966l21.071,0l0,-3.966z" fill="#E6E6E6" id="svg_45"/>
  <path opacity="0.6" d="m313.535,153.8l-21.072,0l0,3.966l21.072,0l0,-3.966z" fill="#E6E6E6" id="svg_46"/>
  <path opacity="0.02" d="m256.019,162.94l-21.072,0l0,3.966l21.072,0l0,-3.966z" fill="#E6E6E6" id="svg_47"/>
  <path opacity="0.28" d="m284.863,162.94l-21.071,0l0,3.966l21.071,0l0,-3.966z" fill="#E6E6E6" id="svg_48"/>
  <path opacity="0.21" d="m313.535,162.94l-21.072,0l0,3.966l21.072,0l0,-3.966z" fill="#E6E6E6" id="svg_49"/>
  <path opacity="0.57" d="m256.019,172.079l-21.072,0l0,3.967l21.072,0l0,-3.967z" fill="#E6E6E6" id="svg_50"/>
  <path opacity="0.38" d="m284.863,172.079l-21.071,0l0,3.967l21.071,0l0,-3.967z" fill="#E6E6E6" id="svg_51"/>
  <path opacity="0.25" d="m313.535,172.079l-21.072,0l0,3.967l21.072,0l0,-3.967z" fill="#E6E6E6" id="svg_52"/>
  <path opacity="0.15" d="m256.019,181.219l-21.072,0l0,3.966l21.072,0l0,-3.966z" fill="#E6E6E6" id="svg_53"/>
  <path opacity="0.47" d="m284.863,181.219l-21.071,0l0,3.966l21.071,0l0,-3.966z" fill="#E6E6E6" id="svg_54"/>
  <path opacity="0.3" d="m313.535,181.219l-21.072,0l0,3.966l21.072,0l0,-3.966z" fill="#E6E6E6" id="svg_55"/>
  <path opacity="0.4" d="m256.019,190.358l-21.072,0l0,3.967l21.072,0l0,-3.967z" fill="#E6E6E6" id="svg_56"/>
  <path opacity="0.39" d="m284.863,190.358l-21.071,0l0,3.967l21.071,0l0,-3.967z" fill="#E6E6E6" id="svg_57"/>
  <path opacity="0.24" d="m313.535,190.358l-21.072,0l0,3.967l21.072,0l0,-3.967z" fill="#E6E6E6" id="svg_58"/>
  <path opacity="0.46" d="m256.019,199.498l-21.072,0l0,3.966l21.072,0l0,-3.966z" fill="#E6E6E6" id="svg_59"/>
  <path opacity="0.22" d="m284.863,199.498l-21.071,0l0,3.966l21.071,0l0,-3.966z" fill="#E6E6E6" id="svg_60"/>
  <path opacity="0.11" d="m313.535,199.498l-21.072,0l0,3.966l21.072,0l0,-3.966z" fill="#E6E6E6" id="svg_61"/>
  <path opacity="0.11" d="m284.863,208.638l-21.071,0l0,3.966l21.071,0l0,-3.966z" fill="#E6E6E6" id="svg_62"/>
  <path opacity="0.02" d="m313.535,208.638l-21.072,0l0,3.966l21.072,0l0,-3.966z" fill="#E6E6E6" id="svg_63"/>
  <path opacity="0.27" d="m256.019,217.777l-21.072,0l0,3.967l21.072,0l0,-3.967z" fill="#E6E6E6" id="svg_64"/>
  <path opacity="0.21" d="m284.863,217.777l-21.071,0l0,3.967l21.071,0l0,-3.967z" fill="#E6E6E6" id="svg_65"/>
  <path opacity="0.49" d="m313.535,217.777l-21.072,0l0,3.967l21.072,0l0,-3.967z" fill="#E6E6E6" id="svg_66"/>
  <path opacity="0.6" d="m256.019,226.917l-21.072,0l0,3.966l21.072,0l0,-3.966z" fill="#E6E6E6" id="svg_67"/>
  <path opacity="0.31" d="m284.863,226.917l-21.071,0l0,3.966l21.071,0l0,-3.966z" fill="#E6E6E6" id="svg_68"/>
  <path opacity="0.22" d="m313.535,226.917l-21.072,0l0,3.966l21.072,0l0,-3.966z" fill="#E6E6E6" id="svg_69"/>
  <path opacity="0.54" d="m256.019,236.056l-21.072,0l0,3.967l21.072,0l0,-3.967z" fill="#E6E6E6" id="svg_70"/>
  <path opacity="0.6" d="m284.863,236.056l-21.071,0l0,3.967l21.071,0l0,-3.967z" fill="#E6E6E6" id="svg_71"/>
  <path opacity="0.08" d="m313.535,236.056l-21.072,0l0,3.967l21.072,0l0,-3.967z" fill="#E6E6E6" id="svg_72"/>
  <path opacity="0.55" d="m284.863,245.196l-21.071,0l0,3.966l21.071,0l0,-3.966z" fill="#E6E6E6" id="svg_73"/>
  <path d="m313.535,245.196l-21.072,0l0,3.966l21.072,0l0,-3.966z" fill="#E6E6E6" id="svg_74"/>
  <path opacity="0.6" d="m257.401,71.544l-1.382,0l0,177.618l1.382,0l0,-177.618z" fill="#E6E6E6" id="svg_75"/>
  <path opacity="0.6" d="m292.463,71.544l-1.382,0l0,177.618l1.382,0l0,-177.618z" fill="#E6E6E6" id="svg_76"/>
  <path d="m361.378,61.542l-43.525,0l0,221.247l43.525,0l0,-221.247z" fill="#4D4D4D" id="svg_77"/>
  <path opacity="0.69" d="m354.988,71.544l-32.817,0l0,3.967l32.817,0l0,-3.967z" fill="#E6E6E6" id="svg_78"/>
  <path opacity="0.79" d="m354.988,80.684l-32.817,0l0,3.966l32.817,0l0,-3.966z" fill="#E6E6E6" id="svg_79"/>
  <path opacity="0.19" d="m354.988,89.823l-32.817,0l0,3.967l32.817,0l0,-3.967z" fill="#E6E6E6" id="svg_80"/>
  <path opacity="0.88" d="m354.988,98.963l-32.817,0l0,3.966l32.817,0l0,-3.966z" fill="#E6E6E6" id="svg_81"/>
  <path opacity="0.5" d="m354.988,108.102l-32.817,0l0,3.967l32.817,0l0,-3.967z" fill="#E6E6E6" id="svg_82"/>
  <path opacity="0.25" d="m354.988,117.242l-32.817,0l0,3.966l32.817,0l0,-3.966z" fill="#E6E6E6" id="svg_83"/>
  <path opacity="0.91" d="m354.988,126.382l-32.817,0l0,3.966l32.817,0l0,-3.966z" fill="#E6E6E6" id="svg_84"/>
  <path opacity="0.02" d="m354.988,135.521l-32.817,0l0,3.966l32.817,0l0,-3.966z" fill="#E6E6E6" id="svg_85"/>
  <path opacity="0.53" d="m354.988,144.661l-32.817,0l0,3.966l32.817,0l0,-3.966z" fill="#E6E6E6" id="svg_86"/>
  <path opacity="0.65" d="m354.988,153.8l-32.817,0l0,3.966l32.817,0l0,-3.966z" fill="#E6E6E6" id="svg_87"/>
  <path d="m354.988,162.94l-32.817,0l0,3.966l32.817,0l0,-3.966z" fill="#E6E6E6" id="svg_88"/>
  <path opacity="0.8" d="m354.988,172.079l-32.817,0l0,3.967l32.817,0l0,-3.967z" fill="#E6E6E6" id="svg_89"/>
  <path opacity="0.82" d="m354.988,181.219l-32.817,0l0,3.966l32.817,0l0,-3.966z" fill="#E6E6E6" id="svg_90"/>
  <path opacity="0.75" d="m354.988,190.358l-32.817,0l0,3.967l32.817,0l0,-3.967z" fill="#E6E6E6" id="svg_91"/>
  <path opacity="0.31" d="m354.988,199.498l-32.817,0l0,3.966l32.817,0l0,-3.966z" fill="#E6E6E6" id="svg_92"/>
  <path opacity="0.22" d="m354.988,208.638l-32.817,0l0,3.966l32.817,0l0,-3.966z" fill="#E6E6E6" id="svg_93"/>
  <path opacity="0.43" d="m354.988,217.777l-32.817,0l0,3.967l32.817,0l0,-3.967z" fill="#E6E6E6" id="svg_94"/>
  <path opacity="0.68" d="m354.988,226.917l-32.817,0l0,3.966l32.817,0l0,-3.966z" fill="#E6E6E6" id="svg_95"/>
  <path opacity="0.38" d="m354.988,236.056l-32.817,0l0,3.967l32.817,0l0,-3.967z" fill="#E6E6E6" id="svg_96"/>
  <path opacity="0.84" d="m354.988,245.196l-32.817,0l0,3.966l32.817,0l0,-3.966z" fill="#E6E6E6" id="svg_97"/>
  <path d="m246.001,49.816l0,11.726l56.48,0l0,-11.726l-56.48,0zm12.609,7.933l-5.873,0l0,-3.967l5.873,0l0,3.967zm9.154,0l-5.7,0l0,-3.967l5.7,0l0,3.967zm9.327,0l-5.7,0l0,-3.967l5.7,0l0,3.967zm9.327,0l-5.873,0l0,-3.967l5.873,0l0,3.967zm9.327,0l-5.873,0l0,-3.967l5.873,0l0,3.967z" fill="#333333" id="svg_98"/>
  <path d="m312.844,53.782l-1.554,0l0,3.967l1.554,0l0,-3.967z" fill="#333333" id="svg_99"/>
  <path d="m302.481,49.816l0,11.726l26.599,0l0,-11.726l-26.599,0zm10.363,7.933l-5.7,0l0,-3.967l5.7,0l0,3.967zm12.263,0l-5.699,0l0,-3.967l5.699,0l0,3.967z" fill="#4D4D4D" id="svg_100"/>
  <path d="m324.935,53.782l-1.555,0l0,3.967l1.555,0l0,-3.967z" fill="#333333" id="svg_101"/>
  <path d="m329.425,297.79l-117.449,0l117.449,-86.567l0,86.567z" fill="#333333" id="svg_102"/>
  <path d="m154.287,14.637l-9.5,0l0,36.041l9.5,0l0,-36.041z" fill="#4D4D4D" id="svg_103"/>
  <path d="m144.96,14.637l-9.672,0l0,36.041l9.672,0l0,-36.041z" fill="#333333" id="svg_104"/>
  <path d="m164.132,14.637l-9.672,0l0,36.041l9.672,0l0,-36.041z" fill="#666666" id="svg_105"/>
  <path d="m192.113,75.338l-26.945,0l0,205.554l26.945,0l0,-205.554z" fill="#666666" id="svg_106"/>
  <path d="m133.561,75.338l-23.49,0l0,205.554l23.49,0l0,-205.554z" fill="#333333" id="svg_107"/>
  <path d="m165.168,75.338l-31.78,0l0,205.554l31.78,0l0,-205.554z" fill="#4D4D4D" id="svg_108"/>
  <path opacity="0.6" d="m116.807,81.373l-3.455,0l0,196.759l3.455,0l0,-196.759z" fill="#E6E6E6" id="svg_109"/>
  <path opacity="0.6" d="m123.543,81.373l-3.455,0l0,196.759l3.455,0l0,-196.759z" fill="#E6E6E6" id="svg_110"/>
  <path opacity="0.6" d="m130.279,81.373l-3.454,0l0,196.759l3.454,0l0,-196.759z" fill="#E6E6E6" id="svg_111"/>
  <path d="m170.523,81.373l-3.455,0l0,196.759l3.455,0l0,-196.759z" fill="#E6E6E6" id="svg_112"/>
  <path d="m177.259,81.373l-3.455,0l0,196.759l3.455,0l0,-196.759z" fill="#E6E6E6" id="svg_113"/>
  <path d="m190.385,81.373l-3.454,0l0,196.759l3.454,0l0,-196.759z" fill="#E6E6E6" id="svg_114"/>
  <path d="m183.995,81.373l-3.455,0l0,196.759l3.455,0l0,-196.759z" fill="#E6E6E6" id="svg_115"/>
  <path opacity="0.8" d="m137.36,278.132l23.836,0l0,-196.759l-23.836,0l0,196.759zm3.8,-193.31l16.236,0l0,189.862l-16.236,0l0,-189.862z" fill="#E6E6E6" id="svg_116"/>
  <path opacity="0.8" d="m144.269,271.407l10.191,0l0,-183.481l-10.191,0l0,183.481zm3.455,-179.17l1.209,0l0.691,0l1.381,0l0,174.859l-1.381,0l-0.691,0l-1.209,0l0,-174.859z" fill="#E6E6E6" id="svg_117"/>
  <path opacity="0.8" d="m149.624,92.237l-0.691,0l0,174.859l0.691,0l0,-174.859z" fill="#E6E6E6" id="svg_118"/>
  <path d="m161.541,39.297l-23.835,0l0,36.041l23.835,0l0,-36.041z" fill="#4D4D4D" id="svg_119"/>
  <path d="m161.541,39.297l-23.835,0l0,36.041l23.835,0l0,-36.041z" fill="#4D4D4D" id="svg_120"/>
  <path d="m185.377,39.297l-23.836,0l0,36.041l23.836,0l0,-36.041z" fill="#666666" id="svg_121"/>
  <path d="m137.706,39.297l-23.836,0l0,36.041l23.836,0l0,-36.041z" fill="#333333" id="svg_122"/>
  <path d="m163.959,14.637l-28.671,0l9.499,6.553l9.673,0l9.499,-6.553z" fill="#808080" id="svg_123"/>
  <path d="m676.42,1.359l-13.817,0l0,40.525l13.817,0l0,-40.525z" fill="#4D4D4D" id="svg_124"/>
  <path d="m662.43,1.359l-13.818,0l0,40.525l13.818,0l0,-40.525z" fill="#333333" id="svg_125"/>
  <path d="m690.238,1.359l-13.818,0l0,40.525l13.818,0l0,-40.525z" fill="#666666" id="svg_126"/>
  <path d="m731,69.82l-39.035,0l0,231.593l39.035,0l0,-231.593z" fill="#666666" id="svg_127"/>
  <path d="m646.021,69.82l-33.853,0l0,231.593l33.853,0l0,-231.593z" fill="#333333" id="svg_128"/>
  <path d="m691.965,69.82l-45.943,0l0,231.593l45.943,0l0,-231.593z" fill="#4D4D4D" id="svg_129"/>
  <path opacity="0.4" d="m621.841,76.717l-5.009,0l0,221.591l5.009,0l0,-221.591z" fill="#E6E6E6" id="svg_130"/>
  <path opacity="0.4" d="m631.686,76.717l-5.009,0l0,221.591l5.009,0l0,-221.591z" fill="#E6E6E6" id="svg_131"/>
  <path opacity="0.4" d="m641.531,76.717l-5.009,0l0,221.591l5.009,0l0,-221.591z" fill="#E6E6E6" id="svg_132"/>
  <path d="m699.738,76.717l-5.009,0l0,221.591l5.009,0l0,-221.591z" fill="#E6E6E6" id="svg_133"/>
  <path d="m709.583,76.717l-5.009,0l0,221.591l5.009,0l0,-221.591z" fill="#E6E6E6" id="svg_134"/>
  <path d="m728.409,76.717l-5.009,0l0,221.591l5.009,0l0,-221.591z" fill="#E6E6E6" id="svg_135"/>
  <path d="m719.255,76.717l-5.009,0l0,221.591l5.009,0l0,-221.591z" fill="#E6E6E6" id="svg_136"/>
  <path d="m651.894,298.308l34.544,0l0,-221.591l-34.544,0l0,221.591zm5.354,-217.797l23.49,0l0,214.003l-23.49,0l0,-214.003z" fill="#E6E6E6" id="svg_137"/>
  <path d="m661.566,290.893l14.854,0l0,-206.76l-14.854,0l0,206.76zm5.182,-201.932l1.9,0l0.864,0l1.899,0l0,197.104l-1.899,0l-0.864,0l-1.9,0l0,-197.104z" fill="#E6E6E6" id="svg_138"/>
  <path d="m669.512,88.961l-0.864,0l0,197.104l0.864,0l0,-197.104z" fill="#E6E6E6" id="svg_139"/>
  <path d="m686.784,29.295l-34.544,0l0,40.525l34.544,0l0,-40.525z" fill="#4D4D4D" id="svg_140"/>
  <path d="m686.784,29.295l-34.544,0l0,40.525l34.544,0l0,-40.525z" fill="#4D4D4D" id="svg_141"/>
  <path d="m721.328,29.295l-34.544,0l0,40.525l34.544,0l0,-40.525z" fill="#666666" id="svg_142"/>
  <path d="m652.412,29.295l-34.544,0l0,40.525l34.544,0l0,-40.525z" fill="#333333" id="svg_143"/>
  <path d="m690.411,1.359l-41.799,0l13.991,7.415l13.817,0l13.991,-7.415z" fill="#808080" id="svg_144"/>
  <path d="m576.761,101.894l-94.478,0l0,31.384l94.478,0l0,-31.384z" fill="#E6E6E6" id="svg_145"/>
  <path d="m519.418,101.894l-37.135,0l0,31.384l37.135,0l0,-31.384z" fill="#B3B3B3" id="svg_146"/>
  <path d="m519.418,133.451l-73.407,0l0,152.441l73.407,0l0,-152.441z" fill="#333333" id="svg_147"/>
  <path d="m634.104,133.451l-114.686,0l0,152.441l114.686,0l0,-152.441z" fill="#4D4D4D" id="svg_148"/>
  <path d="m510.436,117.931l-56.479,0l0,15.52l56.479,0l0,-15.52z" fill="#333333" id="svg_149"/>
  <path d="m617.005,117.931l-80.661,0l0,15.52l80.661,0l0,-15.52z" fill="#4D4D4D" id="svg_150"/>
  <path d="m551.716,89.995l-32.298,0l0,11.898l32.298,0l0,-11.898z" fill="#E6E6E6" id="svg_151"/>
  <path d="m535.481,77.924l-16.063,0l0,11.899l16.063,0l0,-11.899z" fill="#4D4D4D" id="svg_152"/>
  <path d="m519.245,77.924l-16.063,0l0,11.899l16.063,0l0,-11.899z" fill="#333333" id="svg_153"/>
  <path d="m519.418,89.995l-24.699,0l0,11.898l24.699,0l0,-11.898z" fill="#B3B3B3" id="svg_154"/>
  <path d="m518.381,77.924l1.037,-27.591l0.863,27.591l-1.9,0z" fill="#333333" id="svg_155"/>
  <path opacity="0.12" d="m469.156,139.659l-6.045,0l0,6.035l6.045,0l0,-6.035z" fill="white" id="svg_156"/>
  <path opacity="0.25" d="m477.447,139.659l-6.046,0l0,6.035l6.046,0l0,-6.035z" fill="white" id="svg_157"/>
  <path opacity="0.36" d="m485.737,139.659l-6.045,0l0,6.035l6.045,0l0,-6.035z" fill="white" id="svg_158"/>
  <path opacity="0.12" d="m494.028,139.659l-6.046,0l0,6.035l6.046,0l0,-6.035z" fill="white" id="svg_159"/>
  <path opacity="0.14" d="m502.318,139.659l-6.045,0l0,6.035l6.045,0l0,-6.035z" fill="white" id="svg_160"/>
  <path opacity="0.28" d="m469.156,147.591l-6.045,0l0,6.036l6.045,0l0,-6.036z" fill="white" id="svg_161"/>
  <path opacity="0.4" d="m477.447,147.591l-6.046,0l0,6.036l6.046,0l0,-6.036z" fill="white" id="svg_162"/>
  <path opacity="0.16" d="m485.737,147.591l-6.045,0l0,6.036l6.045,0l0,-6.036z" fill="white" id="svg_163"/>
  <path opacity="0.17" d="m502.318,147.591l-6.045,0l0,6.036l6.045,0l0,-6.036z" fill="white" id="svg_164"/>
  <path opacity="0.27" d="m469.156,155.524l-6.045,0l0,6.035l6.045,0l0,-6.035z" fill="white" id="svg_165"/>
  <path opacity="0.45" d="m477.447,155.524l-6.046,0l0,6.035l6.046,0l0,-6.035z" fill="white" id="svg_166"/>
  <path opacity="0.45" d="m485.737,155.524l-6.045,0l0,6.035l6.045,0l0,-6.035z" fill="white" id="svg_167"/>
  <path opacity="0.48" d="m494.028,155.524l-6.046,0l0,6.035l6.046,0l0,-6.035z" fill="white" id="svg_168"/>
  <path opacity="0.25" d="m502.318,155.524l-6.045,0l0,6.035l6.045,0l0,-6.035z" fill="white" id="svg_169"/>
  <path opacity="0.28" d="m469.156,163.456l-6.045,0l0,6.036l6.045,0l0,-6.036z" fill="white" id="svg_170"/>
  <path opacity="0.13" d="m477.447,163.456l-6.046,0l0,6.036l6.046,0l0,-6.036z" fill="white" id="svg_171"/>
  <path opacity="0.07" d="m485.737,163.456l-6.045,0l0,6.036l6.045,0l0,-6.036z" fill="white" id="svg_172"/>
  <path opacity="0.39" d="m494.028,163.456l-6.046,0l0,6.036l6.046,0l0,-6.036z" fill="white" id="svg_173"/>
  <path opacity="0.47" d="m502.318,163.456l-6.045,0l0,6.036l6.045,0l0,-6.036z" fill="white" id="svg_174"/>
  <path opacity="0.28" d="m469.156,171.388l-6.045,0l0,6.036l6.045,0l0,-6.036z" fill="white" id="svg_175"/>
  <path opacity="0.2" d="m477.447,171.388l-6.046,0l0,6.036l6.046,0l0,-6.036z" fill="white" id="svg_176"/>
  <path opacity="0.04" d="m485.737,171.388l-6.045,0l0,6.036l6.045,0l0,-6.036z" fill="white" id="svg_177"/>
  <path opacity="0.43" d="m494.028,171.388l-6.046,0l0,6.036l6.046,0l0,-6.036z" fill="white" id="svg_178"/>
  <path opacity="0.48" d="m502.318,171.388l-6.045,0l0,6.036l6.045,0l0,-6.036z" fill="white" id="svg_179"/>
  <path opacity="0.28" d="m469.156,179.321l-6.045,0l0,6.036l6.045,0l0,-6.036z" fill="white" id="svg_180"/>
  <path opacity="0.19" d="m477.447,179.321l-6.046,0l0,6.036l6.046,0l0,-6.036z" fill="white" id="svg_181"/>
  <path opacity="0.01" d="m485.737,179.321l-6.045,0l0,6.036l6.045,0l0,-6.036z" fill="white" id="svg_182"/>
  <path opacity="0.27" d="m494.028,179.321l-6.046,0l0,6.036l6.046,0l0,-6.036z" fill="white" id="svg_183"/>
  <path opacity="0.24" d="m502.318,179.321l-6.045,0l0,6.036l6.045,0l0,-6.036z" fill="white" id="svg_184"/>
  <path opacity="0.07" d="m469.156,187.426l-6.045,0l0,6.035l6.045,0l0,-6.035z" fill="white" id="svg_185"/>
  <path opacity="0.25" d="m477.447,187.426l-6.046,0l0,6.035l6.046,0l0,-6.035z" fill="white" id="svg_186"/>
  <path opacity="0.26" d="m485.737,187.426l-6.045,0l0,6.035l6.045,0l0,-6.035z" fill="white" id="svg_187"/>
  <path opacity="0.39" d="m494.028,187.426l-6.046,0l0,6.035l6.046,0l0,-6.035z" fill="white" id="svg_188"/>
  <path opacity="0.22" d="m502.318,187.426l-6.045,0l0,6.035l6.045,0l0,-6.035z" fill="white" id="svg_189"/>
  <path opacity="0.15" d="m469.156,195.358l-6.045,0l0,6.036l6.045,0l0,-6.036z" fill="white" id="svg_190"/>
  <path opacity="0.23" d="m477.447,195.358l-6.046,0l0,6.036l6.046,0l0,-6.036z" fill="white" id="svg_191"/>
  <path opacity="0.05" d="m485.737,195.358l-6.045,0l0,6.036l6.045,0l0,-6.036z" fill="white" id="svg_192"/>
  <path opacity="0.2" d="m494.028,195.358l-6.046,0l0,6.036l6.046,0l0,-6.036z" fill="white" id="svg_193"/>
  <path opacity="0.31" d="m502.318,195.358l-6.045,0l0,6.036l6.045,0l0,-6.036z" fill="white" id="svg_194"/>
  <path opacity="0.15" d="m469.156,203.291l-6.045,0l0,6.035l6.045,0l0,-6.035z" fill="white" id="svg_195"/>
  <path opacity="0.33" d="m477.447,203.291l-6.046,0l0,6.035l6.046,0l0,-6.035z" fill="white" id="svg_196"/>
  <path opacity="0.46" d="m485.737,203.291l-6.045,0l0,6.035l6.045,0l0,-6.035z" fill="white" id="svg_197"/>
  <path opacity="0.25" d="m494.028,203.291l-6.046,0l0,6.035l6.046,0l0,-6.035z" fill="white" id="svg_198"/>
  <path opacity="0.43" d="m502.318,203.291l-6.045,0l0,6.035l6.045,0l0,-6.035z" fill="white" id="svg_199"/>
  <path opacity="0.4" d="m469.156,211.223l-6.045,0l0,6.036l6.045,0l0,-6.036z" fill="white" id="svg_200"/>
  <path opacity="0.39" d="m477.447,211.223l-6.046,0l0,6.036l6.046,0l0,-6.036z" fill="white" id="svg_201"/>
  <path opacity="0.01" d="m485.737,211.223l-6.045,0l0,6.036l6.045,0l0,-6.036z" fill="white" id="svg_202"/>
  <path opacity="0.12" d="m494.028,211.223l-6.046,0l0,6.036l6.046,0l0,-6.036z" fill="white" id="svg_203"/>
  <path opacity="0.07" d="m502.318,211.223l-6.045,0l0,6.036l6.045,0l0,-6.036z" fill="white" id="svg_204"/>
  <path opacity="0.07" d="m469.156,219.156l-6.045,0l0,6.035l6.045,0l0,-6.035z" fill="white" id="svg_205"/>
  <path opacity="0.02" d="m477.447,219.156l-6.046,0l0,6.035l6.046,0l0,-6.035z" fill="white" id="svg_206"/>
  <path opacity="0.12" d="m485.737,219.156l-6.045,0l0,6.035l6.045,0l0,-6.035z" fill="white" id="svg_207"/>
  <path opacity="0.23" d="m494.028,219.156l-6.046,0l0,6.035l6.046,0l0,-6.035z" fill="white" id="svg_208"/>
  <path opacity="0.26" d="m502.318,219.156l-6.045,0l0,6.035l6.045,0l0,-6.035z" fill="white" id="svg_209"/>
  <path opacity="0.27" d="m469.156,227.088l-6.045,0l0,6.036l6.045,0l0,-6.036z" fill="white" id="svg_210"/>
  <path opacity="0.38" d="m477.447,227.088l-6.046,0l0,6.036l6.046,0l0,-6.036z" fill="white" id="svg_211"/>
  <path opacity="0.05" d="m485.737,227.088l-6.045,0l0,6.036l6.045,0l0,-6.036z" fill="white" id="svg_212"/>
  <path opacity="0.45" d="m494.028,227.088l-6.046,0l0,6.036l6.046,0l0,-6.036z" fill="white" id="svg_213"/>
  <path opacity="0.15" d="m502.318,227.088l-6.045,0l0,6.036l6.045,0l0,-6.036z" fill="white" id="svg_214"/>
  <path opacity="0.06" d="m469.156,235.021l-6.045,0l0,6.035l6.045,0l0,-6.035z" fill="white" id="svg_215"/>
  <path opacity="0.47" d="m477.447,235.021l-6.046,0l0,6.035l6.046,0l0,-6.035z" fill="white" id="svg_216"/>
  <path opacity="0.15" d="m485.737,235.021l-6.045,0l0,6.035l6.045,0l0,-6.035z" fill="white" id="svg_217"/>
  <path opacity="0.44" d="m494.028,235.021l-6.046,0l0,6.035l6.046,0l0,-6.035z" fill="white" id="svg_218"/>
  <path opacity="0.14" d="m502.318,235.021l-6.045,0l0,6.035l6.045,0l0,-6.035z" fill="white" id="svg_219"/>
  <path opacity="0.15" d="m469.156,242.953l-6.045,0l0,6.036l6.045,0l0,-6.036z" fill="white" id="svg_220"/>
  <path opacity="0.43" d="m477.447,242.953l-6.046,0l0,6.036l6.046,0l0,-6.036z" fill="white" id="svg_221"/>
  <path opacity="0.07" d="m485.737,242.953l-6.045,0l0,6.036l6.045,0l0,-6.036z" fill="white" id="svg_222"/>
  <path opacity="0.47" d="m494.028,242.953l-6.046,0l0,6.036l6.046,0l0,-6.036z" fill="white" id="svg_223"/>
  <path opacity="0.11" d="m502.318,242.953l-6.045,0l0,6.036l6.045,0l0,-6.036z" fill="white" id="svg_224"/>
  <path opacity="0.07" d="m469.156,250.885l-6.045,0l0,6.036l6.045,0l0,-6.036z" fill="white" id="svg_225"/>
  <path opacity="0.34" d="m477.447,250.885l-6.046,0l0,6.036l6.046,0l0,-6.036z" fill="white" id="svg_226"/>
  <path opacity="0.5" d="m485.737,250.885l-6.045,0l0,6.036l6.045,0l0,-6.036z" fill="white" id="svg_227"/>
  <path opacity="0.36" d="m494.028,250.885l-6.046,0l0,6.036l6.046,0l0,-6.036z" fill="white" id="svg_228"/>
  <path opacity="0.34" d="m502.318,250.885l-6.045,0l0,6.036l6.045,0l0,-6.036z" fill="white" id="svg_229"/>
  <path opacity="0.47" d="m469.156,258.818l-6.045,0l0,6.036l6.045,0l0,-6.036z" fill="white" id="svg_230"/>
  <path opacity="0.41" d="m477.447,258.818l-6.046,0l0,6.036l6.046,0l0,-6.036z" fill="white" id="svg_231"/>
  <path opacity="0.3" d="m485.737,258.818l-6.045,0l0,6.036l6.045,0l0,-6.036z" fill="white" id="svg_232"/>
  <path opacity="0.33" d="m494.028,258.818l-6.046,0l0,6.036l6.046,0l0,-6.036z" fill="white" id="svg_233"/>
  <path opacity="0.12" d="m502.318,258.818l-6.045,0l0,6.036l6.045,0l0,-6.036z" fill="white" id="svg_234"/>
  <path opacity="0.24" d="m469.156,266.75l-6.045,0l0,6.036l6.045,0l0,-6.036z" fill="white" id="svg_235"/>
  <path opacity="0.29" d="m477.447,266.75l-6.046,0l0,6.036l6.046,0l0,-6.036z" fill="white" id="svg_236"/>
  <path opacity="0.27" d="m494.028,266.75l-6.046,0l0,6.036l6.046,0l0,-6.036z" fill="white" id="svg_237"/>
  <path opacity="0.04" d="m502.318,266.75l-6.045,0l0,6.036l6.045,0l0,-6.036z" fill="white" id="svg_238"/>
  <path opacity="0.11" d="m469.156,274.683l-6.045,0l0,6.035l6.045,0l0,-6.035z" fill="white" id="svg_239"/>
  <path opacity="0.05" d="m477.447,274.683l-6.046,0l0,6.035l6.046,0l0,-6.035z" fill="white" id="svg_240"/>
  <path opacity="0.04" d="m485.737,274.683l-6.045,0l0,6.035l6.045,0l0,-6.035z" fill="white" id="svg_241"/>
  <path opacity="0.02" d="m494.028,274.683l-6.046,0l0,6.035l6.046,0l0,-6.035z" fill="white" id="svg_242"/>
  <path opacity="0.3" d="m539.453,139.659l-6.045,0l0,6.035l6.045,0l0,-6.035z" fill="white" id="svg_243"/>
  <path opacity="0.72" d="m547.398,139.659l-6.045,0l0,6.035l6.045,0l0,-6.035z" fill="white" id="svg_244"/>
  <path opacity="0.7" d="m555.516,139.659l-6.045,0l0,6.035l6.045,0l0,-6.035z" fill="white" id="svg_245"/>
  <path opacity="0.52" d="m563.634,139.659l-6.045,0l0,6.035l6.045,0l0,-6.035z" fill="white" id="svg_246"/>
  <path opacity="0.2" d="m571.752,139.659l-6.046,0l0,6.035l6.046,0l0,-6.035z" fill="white" id="svg_247"/>
  <path opacity="0.32" d="m579.697,139.659l-6.045,0l0,6.035l6.045,0l0,-6.035z" fill="white" id="svg_248"/>
  <path opacity="0.13" d="m587.815,139.659l-6.045,0l0,6.035l6.045,0l0,-6.035z" fill="white" id="svg_249"/>
  <path opacity="0.38" d="m595.933,139.659l-6.046,0l0,6.035l6.046,0l0,-6.035z" fill="white" id="svg_250"/>
  <path opacity="0.61" d="m603.878,139.659l-6.045,0l0,6.035l6.045,0l0,-6.035z" fill="white" id="svg_251"/>
  <path d="m611.996,139.659l-6.046,0l0,6.035l6.046,0l0,-6.035z" fill="white" id="svg_252"/>
  <path opacity="0.91" d="m620.113,139.659l-6.045,0l0,6.035l6.045,0l0,-6.035z" fill="white" id="svg_253"/>
  <path opacity="0.66" d="m539.453,147.591l-6.045,0l0,6.036l6.045,0l0,-6.036z" fill="white" id="svg_254"/>
  <path opacity="0.31" d="m547.398,147.591l-6.045,0l0,6.036l6.045,0l0,-6.036z" fill="white" id="svg_255"/>
  <path opacity="0.95" d="m555.516,147.591l-6.045,0l0,6.036l6.045,0l0,-6.036z" fill="white" id="svg_256"/>
  <path opacity="0.7" d="m563.634,147.591l-6.045,0l0,6.036l6.045,0l0,-6.036z" fill="white" id="svg_257"/>
  <path opacity="0.12" d="m571.752,147.591l-6.046,0l0,6.036l6.046,0l0,-6.036z" fill="white" id="svg_258"/>
  <path opacity="0.24" d="m579.697,147.591l-6.045,0l0,6.036l6.045,0l0,-6.036z" fill="white" id="svg_259"/>
  <path opacity="0.66" d="m587.815,147.591l-6.045,0l0,6.036l6.045,0l0,-6.036z" fill="white" id="svg_260"/>
  <path opacity="0.71" d="m595.933,147.591l-6.046,0l0,6.036l6.046,0l0,-6.036z" fill="white" id="svg_261"/>
  <path opacity="0.42" d="m603.878,147.591l-6.045,0l0,6.036l6.045,0l0,-6.036z" fill="white" id="svg_262"/>
  <path opacity="0.09" d="m611.996,147.591l-6.046,0l0,6.036l6.046,0l0,-6.036z" fill="white" id="svg_263"/>
  <path opacity="0.32" d="m620.113,147.591l-6.045,0l0,6.036l6.045,0l0,-6.036z" fill="white" id="svg_264"/>
  <path opacity="0.65" d="m539.453,155.524l-6.045,0l0,6.035l6.045,0l0,-6.035z" fill="white" id="svg_265"/>
  <path d="m547.398,155.524l-6.045,0l0,6.035l6.045,0l0,-6.035z" fill="white" id="svg_266"/>
  <path d="m555.516,155.524l-6.045,0l0,6.035l6.045,0l0,-6.035z" fill="white" id="svg_267"/>
  <path opacity="0.71" d="m563.634,155.524l-6.045,0l0,6.035l6.045,0l0,-6.035z" fill="white" id="svg_268"/>
  <path opacity="0.2" d="m571.752,155.524l-6.046,0l0,6.035l6.046,0l0,-6.035z" fill="white" id="svg_269"/>
  <path opacity="0.19" d="m579.697,155.524l-6.045,0l0,6.035l6.045,0l0,-6.035z" fill="white" id="svg_270"/>
  <path opacity="0.62" d="m587.815,155.524l-6.045,0l0,6.035l6.045,0l0,-6.035z" fill="white" id="svg_271"/>
  <path opacity="0.93" d="m595.933,155.524l-6.046,0l0,6.035l6.046,0l0,-6.035z" fill="white" id="svg_272"/>
  <path opacity="0.56" d="m603.878,155.524l-6.045,0l0,6.035l6.045,0l0,-6.035z" fill="white" id="svg_273"/>
  <path opacity="0.57" d="m611.996,155.524l-6.046,0l0,6.035l6.046,0l0,-6.035z" fill="white" id="svg_274"/>
  <path opacity="0.52" d="m620.113,155.524l-6.045,0l0,6.035l6.045,0l0,-6.035z" fill="white" id="svg_275"/>
  <path opacity="0.74" d="m539.453,163.456l-6.045,0l0,6.036l6.045,0l0,-6.036z" fill="white" id="svg_276"/>
  <path opacity="0.56" d="m547.398,163.456l-6.045,0l0,6.036l6.045,0l0,-6.036z" fill="white" id="svg_277"/>
  <path opacity="0.78" d="m555.516,163.456l-6.045,0l0,6.036l6.045,0l0,-6.036z" fill="white" id="svg_278"/>
  <path opacity="0.41" d="m563.634,163.456l-6.045,0l0,6.036l6.045,0l0,-6.036z" fill="white" id="svg_279"/>
  <path opacity="0.14" d="m571.752,163.456l-6.046,0l0,6.036l6.046,0l0,-6.036z" fill="white" id="svg_280"/>
  <path opacity="0.28" d="m579.697,163.456l-6.045,0l0,6.036l6.045,0l0,-6.036z" fill="white" id="svg_281"/>
  <path opacity="0.36" d="m587.815,163.456l-6.045,0l0,6.036l6.045,0l0,-6.036z" fill="white" id="svg_282"/>
  <path opacity="0.14" d="m595.933,163.456l-6.046,0l0,6.036l6.046,0l0,-6.036z" fill="white" id="svg_283"/>
  <path opacity="0.5" d="m603.878,163.456l-6.045,0l0,6.036l6.045,0l0,-6.036z" fill="white" id="svg_284"/>
  <path opacity="0.98" d="m611.996,163.456l-6.046,0l0,6.036l6.046,0l0,-6.036z" fill="white" id="svg_285"/>
  <path opacity="0.59" d="m620.113,163.456l-6.045,0l0,6.036l6.045,0l0,-6.036z" fill="white" id="svg_286"/>
  <path opacity="0.07" d="m539.453,171.388l-6.045,0l0,6.036l6.045,0l0,-6.036z" fill="white" id="svg_287"/>
  <path opacity="0.1" d="m547.398,171.388l-6.045,0l0,6.036l6.045,0l0,-6.036z" fill="white" id="svg_288"/>
  <path opacity="0.88" d="m555.516,171.388l-6.045,0l0,6.036l6.045,0l0,-6.036z" fill="white" id="svg_289"/>
  <path opacity="0.68" d="m563.634,171.388l-6.045,0l0,6.036l6.045,0l0,-6.036z" fill="white" id="svg_290"/>
  <path opacity="0.81" d="m571.752,171.388l-6.046,0l0,6.036l6.046,0l0,-6.036z" fill="white" id="svg_291"/>
  <path opacity="0.62" d="m579.697,171.388l-6.045,0l0,6.036l6.045,0l0,-6.036z" fill="white" id="svg_292"/>
  <path opacity="0.97" d="m587.815,171.388l-6.045,0l0,6.036l6.045,0l0,-6.036z" fill="white" id="svg_293"/>
  <path opacity="0.81" d="m595.933,171.388l-6.046,0l0,6.036l6.046,0l0,-6.036z" fill="white" id="svg_294"/>
  <path opacity="0.79" d="m603.878,171.388l-6.045,0l0,6.036l6.045,0l0,-6.036z" fill="white" id="svg_295"/>
  <path opacity="0.03" d="m611.996,171.388l-6.046,0l0,6.036l6.046,0l0,-6.036z" fill="white" id="svg_296"/>
  <path opacity="0.95" d="m620.113,171.388l-6.045,0l0,6.036l6.045,0l0,-6.036z" fill="white" id="svg_297"/>
  <path opacity="0.62" d="m539.453,179.321l-6.045,0l0,6.036l6.045,0l0,-6.036z" fill="white" id="svg_298"/>
  <path opacity="0.22" d="m547.398,179.321l-6.045,0l0,6.036l6.045,0l0,-6.036z" fill="white" id="svg_299"/>
  <path opacity="0.42" d="m555.516,179.321l-6.045,0l0,6.036l6.045,0l0,-6.036z" fill="white" id="svg_300"/>
  <path opacity="0.56" d="m563.634,179.321l-6.045,0l0,6.036l6.045,0l0,-6.036z" fill="white" id="svg_301"/>
  <path opacity="0.03" d="m571.752,179.321l-6.046,0l0,6.036l6.046,0l0,-6.036z" fill="white" id="svg_302"/>
  <path opacity="0.64" d="m579.697,179.321l-6.045,0l0,6.036l6.045,0l0,-6.036z" fill="white" id="svg_303"/>
  <path opacity="0.82" d="m587.815,179.321l-6.045,0l0,6.036l6.045,0l0,-6.036z" fill="white" id="svg_304"/>
  <path opacity="0.52" d="m595.933,179.321l-6.046,0l0,6.036l6.046,0l0,-6.036z" fill="white" id="svg_305"/>
  <path opacity="0.46" d="m603.878,179.321l-6.045,0l0,6.036l6.045,0l0,-6.036z" fill="white" id="svg_306"/>
  <path opacity="0.27" d="m611.996,179.321l-6.046,0l0,6.036l6.046,0l0,-6.036z" fill="white" id="svg_307"/>
  <path opacity="0.46" d="m620.113,179.321l-6.045,0l0,6.036l6.045,0l0,-6.036z" fill="white" id="svg_308"/>
  <path opacity="0.66" d="m539.453,187.426l-6.045,0l0,6.035l6.045,0l0,-6.035z" fill="white" id="svg_309"/>
  <path opacity="0.7" d="m547.398,187.426l-6.045,0l0,6.035l6.045,0l0,-6.035z" fill="white" id="svg_310"/>
  <path opacity="0.94" d="m555.516,187.426l-6.045,0l0,6.035l6.045,0l0,-6.035z" fill="white" id="svg_311"/>
  <path opacity="0.5" d="m563.634,187.426l-6.045,0l0,6.035l6.045,0l0,-6.035z" fill="white" id="svg_312"/>
  <path opacity="0.12" d="m571.752,187.426l-6.046,0l0,6.035l6.046,0l0,-6.035z" fill="white" id="svg_313"/>
  <path opacity="0.36" d="m579.697,187.426l-6.045,0l0,6.035l6.045,0l0,-6.035z" fill="white" id="svg_314"/>
  <path opacity="0.51" d="m587.815,187.426l-6.045,0l0,6.035l6.045,0l0,-6.035z" fill="white" id="svg_315"/>
  <path opacity="0.37" d="m595.933,187.426l-6.046,0l0,6.035l6.046,0l0,-6.035z" fill="white" id="svg_316"/>
  <path opacity="0.66" d="m603.878,187.426l-6.045,0l0,6.035l6.045,0l0,-6.035z" fill="white" id="svg_317"/>
  <path opacity="0.42" d="m611.996,187.426l-6.046,0l0,6.035l6.046,0l0,-6.035z" fill="white" id="svg_318"/>
  <path opacity="0.5" d="m620.113,187.426l-6.045,0l0,6.035l6.045,0l0,-6.035z" fill="white" id="svg_319"/>
  <path opacity="0.52" d="m539.453,195.358l-6.045,0l0,6.036l6.045,0l0,-6.036z" fill="white" id="svg_320"/>
  <path opacity="0.61" d="m547.398,195.358l-6.045,0l0,6.036l6.045,0l0,-6.036z" fill="white" id="svg_321"/>
  <path opacity="0.84" d="m555.516,195.358l-6.045,0l0,6.036l6.045,0l0,-6.036z" fill="white" id="svg_322"/>
  <path opacity="0.89" d="m563.634,195.358l-6.045,0l0,6.036l6.045,0l0,-6.036z" fill="white" id="svg_323"/>
  <path opacity="0.33" d="m571.752,195.358l-6.046,0l0,6.036l6.046,0l0,-6.036z" fill="white" id="svg_324"/>
  <path opacity="0.25" d="m579.697,195.358l-6.045,0l0,6.036l6.045,0l0,-6.036z" fill="white" id="svg_325"/>
  <path opacity="0.95" d="m587.815,195.358l-6.045,0l0,6.036l6.045,0l0,-6.036z" fill="white" id="svg_326"/>
  <path opacity="0.09" d="m595.933,195.358l-6.046,0l0,6.036l6.046,0l0,-6.036z" fill="white" id="svg_327"/>
  <path opacity="0.44" d="m603.878,195.358l-6.045,0l0,6.036l6.045,0l0,-6.036z" fill="white" id="svg_328"/>
  <path opacity="0.51" d="m611.996,195.358l-6.046,0l0,6.036l6.046,0l0,-6.036z" fill="white" id="svg_329"/>
  <path opacity="0.97" d="m620.113,195.358l-6.045,0l0,6.036l6.045,0l0,-6.036z" fill="white" id="svg_330"/>
  <path opacity="0.26" d="m539.453,203.291l-6.045,0l0,6.035l6.045,0l0,-6.035z" fill="white" id="svg_331"/>
  <path opacity="0.92" d="m547.398,203.291l-6.045,0l0,6.035l6.045,0l0,-6.035z" fill="white" id="svg_332"/>
  <path opacity="0.33" d="m555.516,203.291l-6.045,0l0,6.035l6.045,0l0,-6.035z" fill="white" id="svg_333"/>
  <path opacity="0.23" d="m563.634,203.291l-6.045,0l0,6.035l6.045,0l0,-6.035z" fill="white" id="svg_334"/>
  <path opacity="0.42" d="m571.752,203.291l-6.046,0l0,6.035l6.046,0l0,-6.035z" fill="white" id="svg_335"/>
  <path opacity="0.57" d="m579.697,203.291l-6.045,0l0,6.035l6.045,0l0,-6.035z" fill="white" id="svg_336"/>
  <path opacity="0.73" d="m587.815,203.291l-6.045,0l0,6.035l6.045,0l0,-6.035z" fill="white" id="svg_337"/>
  <path opacity="0.87" d="m595.933,203.291l-6.046,0l0,6.035l6.046,0l0,-6.035z" fill="white" id="svg_338"/>
  <path opacity="0.22" d="m603.878,203.291l-6.045,0l0,6.035l6.045,0l0,-6.035z" fill="white" id="svg_339"/>
  <path opacity="0.89" d="m611.996,203.291l-6.046,0l0,6.035l6.046,0l0,-6.035z" fill="white" id="svg_340"/>
  <path opacity="0.73" d="m620.113,203.291l-6.045,0l0,6.035l6.045,0l0,-6.035z" fill="white" id="svg_341"/>
  <path opacity="0.35" d="m539.453,211.223l-6.045,0l0,6.036l6.045,0l0,-6.036z" fill="white" id="svg_342"/>
  <path opacity="0.81" d="m547.398,211.223l-6.045,0l0,6.036l6.045,0l0,-6.036z" fill="white" id="svg_343"/>
  <path opacity="0.56" d="m555.516,211.223l-6.045,0l0,6.036l6.045,0l0,-6.036z" fill="white" id="svg_344"/>
  <path opacity="0.81" d="m563.634,211.223l-6.045,0l0,6.036l6.045,0l0,-6.036z" fill="white" id="svg_345"/>
  <path opacity="0.87" d="m571.752,211.223l-6.046,0l0,6.036l6.046,0l0,-6.036z" fill="white" id="svg_346"/>
  <path opacity="0.39" d="m579.697,211.223l-6.045,0l0,6.036l6.045,0l0,-6.036z" fill="white" id="svg_347"/>
  <path opacity="0.31" d="m587.815,211.223l-6.045,0l0,6.036l6.045,0l0,-6.036z" fill="white" id="svg_348"/>
  <path opacity="0.98" d="m595.933,211.223l-6.046,0l0,6.036l6.046,0l0,-6.036z" fill="white" id="svg_349"/>
  <path opacity="0.17" d="m603.878,211.223l-6.045,0l0,6.036l6.045,0l0,-6.036z" fill="white" id="svg_350"/>
  <path opacity="0.06" d="m611.996,211.223l-6.046,0l0,6.036l6.046,0l0,-6.036z" fill="white" id="svg_351"/>
  <path opacity="0.57" d="m620.113,211.223l-6.045,0l0,6.036l6.045,0l0,-6.036z" fill="white" id="svg_352"/>
  <path opacity="0.67" d="m539.453,219.156l-6.045,0l0,6.035l6.045,0l0,-6.035z" fill="white" id="svg_353"/>
  <path opacity="0.83" d="m547.398,219.156l-6.045,0l0,6.035l6.045,0l0,-6.035z" fill="white" id="svg_354"/>
  <path opacity="0.99" d="m555.516,219.156l-6.045,0l0,6.035l6.045,0l0,-6.035z" fill="white" id="svg_355"/>
  <path opacity="0.62" d="m563.634,219.156l-6.045,0l0,6.035l6.045,0l0,-6.035z" fill="white" id="svg_356"/>
  <path opacity="0.87" d="m571.752,219.156l-6.046,0l0,6.035l6.046,0l0,-6.035z" fill="white" id="svg_357"/>
  <path opacity="0.14" d="m579.697,219.156l-6.045,0l0,6.035l6.045,0l0,-6.035z" fill="white" id="svg_358"/>
  <path opacity="0.12" d="m587.815,219.156l-6.045,0l0,6.035l6.045,0l0,-6.035z" fill="white" id="svg_359"/>
  <path opacity="0.11" d="m595.933,219.156l-6.046,0l0,6.035l6.046,0l0,-6.035z" fill="white" id="svg_360"/>
  <path opacity="0.39" d="m603.878,219.156l-6.045,0l0,6.035l6.045,0l0,-6.035z" fill="white" id="svg_361"/>
  <path opacity="0.58" d="m611.996,219.156l-6.046,0l0,6.035l6.046,0l0,-6.035z" fill="white" id="svg_362"/>
  <path opacity="0.54" d="m620.113,219.156l-6.045,0l0,6.035l6.045,0l0,-6.035z" fill="white" id="svg_363"/>
  <path opacity="0.99" d="m539.453,227.088l-6.045,0l0,6.036l6.045,0l0,-6.036z" fill="white" id="svg_364"/>
  <path opacity="0.28" d="m547.398,227.088l-6.045,0l0,6.036l6.045,0l0,-6.036z" fill="white" id="svg_365"/>
  <path opacity="0.78" d="m555.516,227.088l-6.045,0l0,6.036l6.045,0l0,-6.036z" fill="white" id="svg_366"/>
  <path opacity="0.65" d="m563.634,227.088l-6.045,0l0,6.036l6.045,0l0,-6.036z" fill="white" id="svg_367"/>
  <path opacity="0.32" d="m571.752,227.088l-6.046,0l0,6.036l6.046,0l0,-6.036z" fill="white" id="svg_368"/>
  <path opacity="0.55" d="m579.697,227.088l-6.045,0l0,6.036l6.045,0l0,-6.036z" fill="white" id="svg_369"/>
  <path opacity="0.4" d="m587.815,227.088l-6.045,0l0,6.036l6.045,0l0,-6.036z" fill="white" id="svg_370"/>
  <path opacity="0.22" d="m595.933,227.088l-6.046,0l0,6.036l6.046,0l0,-6.036z" fill="white" id="svg_371"/>
  <path opacity="0.87" d="m603.878,227.088l-6.045,0l0,6.036l6.045,0l0,-6.036z" fill="white" id="svg_372"/>
  <path opacity="0.02" d="m611.996,227.088l-6.046,0l0,6.036l6.046,0l0,-6.036z" fill="white" id="svg_373"/>
  <path opacity="0.39" d="m620.113,227.088l-6.045,0l0,6.036l6.045,0l0,-6.036z" fill="white" id="svg_374"/>
  <path opacity="0.89" d="m539.453,235.021l-6.045,0l0,6.035l6.045,0l0,-6.035z" fill="white" id="svg_375"/>
  <path opacity="0.97" d="m547.398,235.021l-6.045,0l0,6.035l6.045,0l0,-6.035z" fill="white" id="svg_376"/>
  <path opacity="0.79" d="m555.516,235.021l-6.045,0l0,6.035l6.045,0l0,-6.035z" fill="white" id="svg_377"/>
  <path opacity="0.41" d="m563.634,235.021l-6.045,0l0,6.035l6.045,0l0,-6.035z" fill="white" id="svg_378"/>
  <path opacity="0.13" d="m571.752,235.021l-6.046,0l0,6.035l6.046,0l0,-6.035z" fill="white" id="svg_379"/>
  <path opacity="0.9" d="m579.697,235.021l-6.045,0l0,6.035l6.045,0l0,-6.035z" fill="white" id="svg_380"/>
  <path opacity="0.98" d="m587.815,235.021l-6.045,0l0,6.035l6.045,0l0,-6.035z" fill="white" id="svg_381"/>
  <path opacity="0.67" d="m595.933,235.021l-6.046,0l0,6.035l6.046,0l0,-6.035z" fill="white" id="svg_382"/>
  <path opacity="0.65" d="m603.878,235.021l-6.045,0l0,6.035l6.045,0l0,-6.035z" fill="white" id="svg_383"/>
  <path opacity="0.89" d="m611.996,235.021l-6.046,0l0,6.035l6.046,0l0,-6.035z" fill="white" id="svg_384"/>
  <path opacity="0.98" d="m620.113,235.021l-6.045,0l0,6.035l6.045,0l0,-6.035z" fill="white" id="svg_385"/>
  <path opacity="0.29" d="m539.453,242.953l-6.045,0l0,6.036l6.045,0l0,-6.036z" fill="white" id="svg_386"/>
  <path opacity="0.74" d="m547.398,242.953l-6.045,0l0,6.036l6.045,0l0,-6.036z" fill="white" id="svg_387"/>
  <path opacity="0.64" d="m555.516,242.953l-6.045,0l0,6.036l6.045,0l0,-6.036z" fill="white" id="svg_388"/>
  <path opacity="0.65" d="m563.634,242.953l-6.045,0l0,6.036l6.045,0l0,-6.036z" fill="white" id="svg_389"/>
  <path opacity="0.07" d="m571.752,242.953l-6.046,0l0,6.036l6.046,0l0,-6.036z" fill="white" id="svg_390"/>
  <path opacity="0.16" d="m579.697,242.953l-6.045,0l0,6.036l6.045,0l0,-6.036z" fill="white" id="svg_391"/>
  <path opacity="0.84" d="m587.815,242.953l-6.045,0l0,6.036l6.045,0l0,-6.036z" fill="white" id="svg_392"/>
  <path opacity="0.88" d="m595.933,242.953l-6.046,0l0,6.036l6.046,0l0,-6.036z" fill="white" id="svg_393"/>
  <path opacity="0.57" d="m603.878,242.953l-6.045,0l0,6.036l6.045,0l0,-6.036z" fill="white" id="svg_394"/>
  <path opacity="0.31" d="m611.996,242.953l-6.046,0l0,6.036l6.046,0l0,-6.036z" fill="white" id="svg_395"/>
  <path opacity="0.03" d="m620.113,242.953l-6.045,0l0,6.036l6.045,0l0,-6.036z" fill="white" id="svg_396"/>
  <path opacity="0.3" d="m539.453,250.885l-6.045,0l0,6.036l6.045,0l0,-6.036z" fill="white" id="svg_397"/>
  <path opacity="0.59" d="m547.398,250.885l-6.045,0l0,6.036l6.045,0l0,-6.036z" fill="white" id="svg_398"/>
  <path opacity="0.93" d="m555.516,250.885l-6.045,0l0,6.036l6.045,0l0,-6.036z" fill="white" id="svg_399"/>
  <path opacity="0.06" d="m563.634,250.885l-6.045,0l0,6.036l6.045,0l0,-6.036z" fill="white" id="svg_400"/>
  <path opacity="0.74" d="m571.752,250.885l-6.046,0l0,6.036l6.046,0l0,-6.036z" fill="white" id="svg_401"/>
  <path opacity="0.22" d="m579.697,250.885l-6.045,0l0,6.036l6.045,0l0,-6.036z" fill="white" id="svg_402"/>
  <path opacity="0.51" d="m587.815,250.885l-6.045,0l0,6.036l6.045,0l0,-6.036z" fill="white" id="svg_403"/>
  <path opacity="0.7" d="m595.933,250.885l-6.046,0l0,6.036l6.046,0l0,-6.036z" fill="white" id="svg_404"/>
  <path opacity="0.47" d="m603.878,250.885l-6.045,0l0,6.036l6.045,0l0,-6.036z" fill="white" id="svg_405"/>
  <path opacity="0.08" d="m611.996,250.885l-6.046,0l0,6.036l6.046,0l0,-6.036z" fill="white" id="svg_406"/>
  <path opacity="0.93" d="m620.113,250.885l-6.045,0l0,6.036l6.045,0l0,-6.036z" fill="white" id="svg_407"/>
  <path opacity="0.81" d="m539.453,258.818l-6.045,0l0,6.036l6.045,0l0,-6.036z" fill="white" id="svg_408"/>
  <path opacity="0.9" d="m547.398,258.818l-6.045,0l0,6.036l6.045,0l0,-6.036z" fill="white" id="svg_409"/>
  <path opacity="0.55" d="m555.516,258.818l-6.045,0l0,6.036l6.045,0l0,-6.036z" fill="white" id="svg_410"/>
  <path opacity="0.14" d="m563.634,258.818l-6.045,0l0,6.036l6.045,0l0,-6.036z" fill="white" id="svg_411"/>
  <path opacity="0.66" d="m571.752,258.818l-6.046,0l0,6.036l6.046,0l0,-6.036z" fill="white" id="svg_412"/>
  <path opacity="0.92" d="m579.697,258.818l-6.045,0l0,6.036l6.045,0l0,-6.036z" fill="white" id="svg_413"/>
  <path opacity="0.4" d="m587.815,258.818l-6.045,0l0,6.036l6.045,0l0,-6.036z" fill="white" id="svg_414"/>
  <path opacity="0.6" d="m595.933,258.818l-6.046,0l0,6.036l6.046,0l0,-6.036z" fill="white" id="svg_415"/>
  <path opacity="0.99" d="m603.878,258.818l-6.045,0l0,6.036l6.045,0l0,-6.036z" fill="white" id="svg_416"/>
  <path opacity="0.68" d="m611.996,258.818l-6.046,0l0,6.036l6.046,0l0,-6.036z" fill="white" id="svg_417"/>
  <path opacity="0.01" d="m620.113,258.818l-6.045,0l0,6.036l6.045,0l0,-6.036z" fill="white" id="svg_418"/>
  <path opacity="0.82" d="m539.453,266.75l-6.045,0l0,6.036l6.045,0l0,-6.036z" fill="white" id="svg_419"/>
  <path opacity="0.92" d="m547.398,266.75l-6.045,0l0,6.036l6.045,0l0,-6.036z" fill="white" id="svg_420"/>
  <path opacity="0.29" d="m555.516,266.75l-6.045,0l0,6.036l6.045,0l0,-6.036z" fill="white" id="svg_421"/>
  <path opacity="0.73" d="m563.634,266.75l-6.045,0l0,6.036l6.045,0l0,-6.036z" fill="white" id="svg_422"/>
  <path opacity="0.42" d="m571.752,266.75l-6.046,0l0,6.036l6.046,0l0,-6.036z" fill="white" id="svg_423"/>
  <path opacity="0.06" d="m579.697,266.75l-6.045,0l0,6.036l6.045,0l0,-6.036z" fill="white" id="svg_424"/>
  <path opacity="0.7" d="m587.815,266.75l-6.045,0l0,6.036l6.045,0l0,-6.036z" fill="white" id="svg_425"/>
  <path opacity="0.97" d="m595.933,266.75l-6.046,0l0,6.036l6.046,0l0,-6.036z" fill="white" id="svg_426"/>
  <path opacity="0.51" d="m603.878,266.75l-6.045,0l0,6.036l6.045,0l0,-6.036z" fill="white" id="svg_427"/>
  <path opacity="0.69" d="m611.996,266.75l-6.046,0l0,6.036l6.046,0l0,-6.036z" fill="white" id="svg_428"/>
  <path opacity="0.49" d="m620.113,266.75l-6.045,0l0,6.036l6.045,0l0,-6.036z" fill="white" id="svg_429"/>
  <path opacity="0.45" d="m539.453,274.683l-6.045,0l0,6.035l6.045,0l0,-6.035z" fill="white" id="svg_430"/>
  <path opacity="0.46" d="m547.398,274.683l-6.045,0l0,6.035l6.045,0l0,-6.035z" fill="white" id="svg_431"/>
  <path opacity="0.04" d="m555.516,274.683l-6.045,0l0,6.035l6.045,0l0,-6.035z" fill="white" id="svg_432"/>
  <path opacity="0.56" d="m563.634,274.683l-6.045,0l0,6.035l6.045,0l0,-6.035z" fill="white" id="svg_433"/>
  <path opacity="0.4" d="m571.752,274.683l-6.046,0l0,6.035l6.046,0l0,-6.035z" fill="white" id="svg_434"/>
  <path opacity="0.59" d="m579.697,274.683l-6.045,0l0,6.035l6.045,0l0,-6.035z" fill="white" id="svg_435"/>
  <path opacity="0.82" d="m587.815,274.683l-6.045,0l0,6.035l6.045,0l0,-6.035z" fill="white" id="svg_436"/>
  <path opacity="0.99" d="m595.933,274.683l-6.046,0l0,6.035l6.046,0l0,-6.035z" fill="white" id="svg_437"/>
  <path opacity="0.1" d="m603.878,274.683l-6.045,0l0,6.035l6.045,0l0,-6.035z" fill="white" id="svg_438"/>
  <path opacity="0.87" d="m611.996,274.683l-6.046,0l0,6.035l6.046,0l0,-6.035z" fill="white" id="svg_439"/>
  <path d="m620.113,274.683l-6.045,0l0,6.035l6.045,0l0,-6.035z" fill="white" id="svg_440"/>
  <path d="m437.375,100.859l-56.997,0l0,178.308l56.997,0l0,-178.308z" fill="#333333" id="svg_441"/>
  <path d="m406.286,91.892l-25.908,0l0,10.002l25.908,0l0,-10.002z" fill="#333333" id="svg_442"/>
  <path d="m395.404,86.029l-15.026,0l0,5.863l15.026,0l0,-5.863z" fill="#333333" id="svg_443"/>
  <path opacity="0.25" d="m413.367,113.448l-9.327,0l0,9.312l9.327,0l0,-9.312z" fill="white" id="svg_444"/>
  <path opacity="0.15" d="m413.367,136.383l-9.327,0l0,9.312l9.327,0l0,-9.312z" fill="white" id="svg_445"/>
  <path opacity="0.19" d="m413.367,182.08l-9.327,0l0,9.312l9.327,0l0,-9.312z" fill="white" id="svg_446"/>
  <path opacity="0.17" d="m413.367,204.843l-9.327,0l0,9.312l9.327,0l0,-9.312z" fill="white" id="svg_447"/>
  <path opacity="0.22" d="m413.367,227.606l-9.327,0l0,9.312l9.327,0l0,-9.312z" fill="white" id="svg_448"/>
  <path d="m413.367,250.541l-9.327,0l0,9.312l9.327,0l0,-9.312z" fill="white" id="svg_449"/>
  <path d="m395.059,200.187l-53.371,0l0,15.692l53.371,0l0,-15.692z" fill="#333333" id="svg_450"/>
  <path d="m421.658,200.187l-26.599,0l0,15.692l26.599,0l0,-15.692z" fill="#4D4D4D" id="svg_451"/>
  <path d="m341.688,200.187l16.582,-7.932l36.789,7.932l-53.371,0z" fill="#333333" id="svg_452"/>
  <path d="m358.27,192.255l36.789,7.932l26.599,0l-63.388,-7.932z" fill="#4D4D4D" id="svg_453"/>
  <path d="m407.495,211.223l-78.07,0l0,71.392l78.07,0l0,-71.392z" fill="#333333" id="svg_454"/>
  <path d="m433.403,211.223l-25.908,0l0,71.392l25.908,0l0,-71.392z" fill="#4D4D4D" id="svg_455"/>
  <path opacity="0.81" d="m427.358,216.224l-13.991,0l0,5.174l13.991,0l0,-5.174z" fill="white" id="svg_456"/>
  <path opacity="0.76" d="m427.358,225.709l-13.991,0l0,5.173l13.991,0l0,-5.173z" fill="white" id="svg_457"/>
  <path opacity="0.32" d="m427.358,235.193l-13.991,0l0,5.174l13.991,0l0,-5.174z" fill="white" id="svg_458"/>
  <path opacity="0.49" d="m427.358,244.85l-13.991,0l0,5.173l13.991,0l0,-5.173z" fill="white" id="svg_459"/>
  <path opacity="0.99" d="m427.358,263.819l-13.991,0l0,5.173l13.991,0l0,-5.173z" fill="white" id="svg_460"/>
  <path opacity="0.1" d="m355.852,216.224l-13.991,0l0,5.174l13.991,0l0,-5.174z" fill="white" id="svg_461"/>
  <path opacity="0.04" d="m375.369,216.224l-13.991,0l0,5.174l13.991,0l0,-5.174z" fill="white" id="svg_462"/>
  <path opacity="0.07" d="m395.059,216.224l-13.99,0l0,5.174l13.99,0l0,-5.174z" fill="white" id="svg_463"/>
  <path opacity="0.06" d="m355.852,225.709l-13.991,0l0,5.173l13.991,0l0,-5.173z" fill="white" id="svg_464"/>
  <path opacity="0.44" d="m375.369,225.709l-13.991,0l0,5.173l13.991,0l0,-5.173z" fill="white" id="svg_465"/>
  <path opacity="0.24" d="m395.059,225.709l-13.99,0l0,5.173l13.99,0l0,-5.173z" fill="white" id="svg_466"/>
  <path opacity="0.55" d="m355.852,235.193l-13.991,0l0,5.174l13.991,0l0,-5.174z" fill="white" id="svg_467"/>
  <path opacity="0.02" d="m375.369,235.193l-13.991,0l0,5.174l13.991,0l0,-5.174z" fill="white" id="svg_468"/>
  <path opacity="0.14" d="m395.059,235.193l-13.99,0l0,5.174l13.99,0l0,-5.174z" fill="white" id="svg_469"/>
  <path opacity="0.43" d="m355.852,244.85l-13.991,0l0,5.173l13.991,0l0,-5.173z" fill="white" id="svg_470"/>
  <path opacity="0.41" d="m375.369,244.85l-13.991,0l0,5.173l13.991,0l0,-5.173z" fill="white" id="svg_471"/>
  <path opacity="0.46" d="m395.059,244.85l-13.99,0l0,5.173l13.99,0l0,-5.173z" fill="white" id="svg_472"/>
  <path opacity="0.45" d="m355.852,254.335l-13.991,0l0,5.173l13.991,0l0,-5.173z" fill="white" id="svg_473"/>
  <path opacity="0.33" d="m375.369,254.335l-13.991,0l0,5.173l13.991,0l0,-5.173z" fill="white" id="svg_474"/>
  <path opacity="0.05" d="m395.059,254.335l-13.99,0l0,5.173l13.99,0l0,-5.173z" fill="white" id="svg_475"/>
  <path opacity="0.27" d="m355.852,263.819l-13.991,0l0,5.174l13.991,0l0,-5.174z" fill="white" id="svg_476"/>
  <path opacity="0.15" d="m375.369,263.819l-13.991,0l0,5.174l13.991,0l0,-5.174z" fill="white" id="svg_477"/>
  <path opacity="0.7" d="m395.059,263.819l-13.99,0l0,5.174l13.99,0l0,-5.174z" fill="white" id="svg_478"/>
  <path d="m27.6829,139.832l-48.3617,0l0,148.819l48.3617,0l0,-148.819z" fill="#333333" id="svg_479"/>
  <path d="m82.7806,139.832l-54.925,0l0,148.819l54.925,0l0,-148.819z" fill="#4D4D4D" id="svg_480"/>
  <path d="m27.6829,152.42l-48.3617,0l0,2.587l48.3617,0l0,-2.587z" fill="#4D4D4D" id="svg_481"/>
  <path d="m82.7806,152.42l-54.925,0l0,2.587l54.925,0l0,-2.587z" fill="#333333" id="svg_482"/>
  <path opacity="0.32" d="m2.63846,157.939l-5.18167,0l0,5.173l5.18167,0l0,-5.173z" fill="white" id="svg_483"/>
  <path opacity="0.25" d="m9.71997,157.939l-5.18164,0l0,5.173l5.18164,0l0,-5.173z" fill="white" id="svg_484"/>
  <path opacity="0.12" d="m23.8831,157.939l-5.1817,0l0,5.173l5.1817,0l0,-5.173z" fill="white" id="svg_485"/>
  <path opacity="0.22" d="m2.63846,165.009l-5.18167,0l0,5.173l5.18167,0l0,-5.173z" fill="white" id="svg_486"/>
  <path opacity="0.47" d="m9.71997,165.009l-5.18164,0l0,5.173l5.18164,0l0,-5.173z" fill="white" id="svg_487"/>
  <path opacity="0.22" d="m16.8015,165.009l-5.18157,0l0,5.173l5.18157,0l0,-5.173z" fill="white" id="svg_488"/>
  <path opacity="0.32" d="m23.8831,165.009l-5.1817,0l0,5.173l5.1817,0l0,-5.173z" fill="white" id="svg_489"/>
  <path opacity="0.18" d="m2.63846,172.079l-5.18167,0l0,5.173l5.18167,0l0,-5.173z" fill="white" id="svg_490"/>
  <path opacity="0.28" d="m9.71997,172.079l-5.18164,0l0,5.173l5.18164,0l0,-5.173z" fill="white" id="svg_491"/>
  <path opacity="0.2" d="m23.8831,172.079l-5.1817,0l0,5.173l5.1817,0l0,-5.173z" fill="white" id="svg_492"/>
  <path opacity="0.33" d="m2.63846,179.149l-5.18167,0l0,5.174l5.18167,0l0,-5.174z" fill="white" id="svg_493"/>
  <path opacity="0.05" d="m9.71997,179.149l-5.18164,0l0,5.174l5.18164,0l0,-5.174z" fill="white" id="svg_494"/>
  <path opacity="0.08" d="m16.8015,179.149l-5.18157,0l0,5.174l5.18157,0l0,-5.174z" fill="white" id="svg_495"/>
  <path opacity="0.08" d="m9.71997,186.219l-5.18164,0l0,5.174l5.18164,0l0,-5.174z" fill="white" id="svg_496"/>
  <path opacity="0.02" d="m16.8015,186.219l-5.18157,0l0,5.174l5.18157,0l0,-5.174z" fill="white" id="svg_497"/>
  <path opacity="0.05" d="m2.63846,193.29l-5.18167,0l0,5.173l5.18167,0l0,-5.173z" fill="white" id="svg_498"/>
  <path opacity="0.2" d="m9.71997,193.29l-5.18164,0l0,5.173l5.18164,0l0,-5.173z" fill="white" id="svg_499"/>
  <path opacity="0.23" d="m16.8015,193.29l-5.18157,0l0,5.173l5.18157,0l0,-5.173z" fill="white" id="svg_500"/>
  <path opacity="0.14" d="m2.63846,200.36l-5.18167,0l0,5.173l5.18167,0l0,-5.173z" fill="white" id="svg_501"/>
  <path opacity="0.24" d="m16.8015,200.36l-5.18157,0l0,5.173l5.18157,0l0,-5.173z" fill="white" id="svg_502"/>
  <path opacity="0.23" d="m2.63846,207.43l-5.18167,0l0,5.173l5.18167,0l0,-5.173z" fill="white" id="svg_503"/>
  <path opacity="0.02" d="m9.71997,207.43l-5.18164,0l0,5.173l5.18164,0l0,-5.173z" fill="white" id="svg_504"/>
  <path opacity="0.04" d="m16.8015,207.43l-5.18157,0l0,5.173l5.18157,0l0,-5.173z" fill="white" id="svg_505"/>
  <path opacity="0.3" d="m23.8831,207.43l-5.1817,0l0,5.173l5.1817,0l0,-5.173z" fill="white" id="svg_506"/>
  <path opacity="0.4" d="m23.8831,214.328l-5.1817,0l0,5.173l5.1817,0l0,-5.173z" fill="white" id="svg_507"/>
  <path opacity="0.12" d="m2.63846,221.398l-5.18167,0l0,5.174l5.18167,0l0,-5.174z" fill="white" id="svg_508"/>
  <path opacity="0.19" d="m16.8015,221.398l-5.18157,0l0,5.174l5.18157,0l0,-5.174z" fill="white" id="svg_509"/>
  <path opacity="0.43" d="m23.8831,221.398l-5.1817,0l0,5.174l5.1817,0l0,-5.174z" fill="white" id="svg_510"/>
  <path opacity="0.42" d="m9.71997,228.468l-5.18164,0l0,5.174l5.18164,0l0,-5.174z" fill="white" id="svg_511"/>
  <path opacity="0.31" d="m23.8831,228.468l-5.1817,0l0,5.174l5.1817,0l0,-5.174z" fill="white" id="svg_512"/>
  <path opacity="0.31" d="m9.71997,235.539l-5.18164,0l0,5.173l5.18164,0l0,-5.173z" fill="white" id="svg_513"/>
  <path opacity="0.33" d="m23.8831,235.539l-5.1817,0l0,5.173l5.1817,0l0,-5.173z" fill="white" id="svg_514"/>
  <path opacity="0.17" d="m9.71997,242.609l-5.18164,0l0,5.173l5.18164,0l0,-5.173z" fill="white" id="svg_515"/>
  <path opacity="0.01" d="m16.8015,242.609l-5.18157,0l0,5.173l5.18157,0l0,-5.173z" fill="white" id="svg_516"/>
  <path opacity="0.48" d="m23.8831,242.609l-5.1817,0l0,5.173l5.1817,0l0,-5.173z" fill="white" id="svg_517"/>
  <path opacity="0.28" d="m2.63846,249.679l-5.18167,0l0,5.173l5.18167,0l0,-5.173z" fill="white" id="svg_518"/>
  <path opacity="0.02" d="m9.71997,249.679l-5.18164,0l0,5.173l5.18164,0l0,-5.173z" fill="white" id="svg_519"/>
  <path opacity="0.17" d="m16.8015,249.679l-5.18157,0l0,5.173l5.18157,0l0,-5.173z" fill="white" id="svg_520"/>
  <path opacity="0.42" d="m23.8831,249.679l-5.1817,0l0,5.173l5.1817,0l0,-5.173z" fill="white" id="svg_521"/>
  <path opacity="0.11" d="m2.63846,256.749l-5.18167,0l0,5.174l5.18167,0l0,-5.174z" fill="white" id="svg_522"/>
  <path opacity="0.02" d="m9.71997,256.749l-5.18164,0l0,5.174l5.18164,0l0,-5.174z" fill="white" id="svg_523"/>
  <path opacity="0.3" d="m23.8831,256.749l-5.1817,0l0,5.174l5.1817,0l0,-5.174z" fill="white" id="svg_524"/>
  <path opacity="0.19" d="m2.63846,263.82l-5.18167,0l0,5.173l5.18167,0l0,-5.173z" fill="white" id="svg_525"/>
  <path opacity="0.05" d="m9.71997,263.82l-5.18164,0l0,5.173l5.18164,0l0,-5.173z" fill="white" id="svg_526"/>
  <path opacity="0.2" d="m23.8831,263.82l-5.1817,0l0,5.173l5.1817,0l0,-5.173z" fill="white" id="svg_527"/>
  <path opacity="0.27" d="m9.71997,270.89l-5.18164,0l0,5.173l5.18164,0l0,-5.173z" fill="white" id="svg_528"/>
  <path opacity="0.13" d="m16.8015,270.89l-5.18157,0l0,5.173l5.18157,0l0,-5.173z" fill="white" id="svg_529"/>
  <path opacity="0.46" d="m2.63846,277.96l-5.18167,0l0,5.173l5.18167,0l0,-5.173z" fill="white" id="svg_530"/>
  <path opacity="0.12" d="m9.71997,277.96l-5.18164,0l0,5.173l5.18164,0l0,-5.173z" fill="white" id="svg_531"/>
  <path opacity="0.04" d="m16.8015,277.96l-5.18157,0l0,5.173l5.18157,0l0,-5.173z" fill="white" id="svg_532"/>
  <path opacity="0.3" d="m23.8831,277.96l-5.1817,0l0,5.173l5.1817,0l0,-5.173z" fill="white" id="svg_533"/>
  <path opacity="0.08" d="m16.8015,157.939l-5.18157,0l0,5.173l5.18157,0l0,-5.173z" fill="white" id="svg_534"/>
  <path opacity="0.08" d="m16.8015,172.079l-5.18157,0l0,5.173l5.18157,0l0,-5.173z" fill="white" id="svg_535"/>
  <path opacity="0.01" d="m23.8831,179.149l-5.1817,0l0,5.174l5.1817,0l0,-5.174z" fill="white" id="svg_536"/>
  <path opacity="0.15" d="m2.63846,186.219l-5.18167,0l0,5.174l5.18167,0l0,-5.174z" fill="white" id="svg_537"/>
  <path opacity="0.12" d="m23.8831,186.219l-5.1817,0l0,5.174l5.1817,0l0,-5.174z" fill="white" id="svg_538"/>
  <path opacity="0.13" d="m9.71997,200.36l-5.18164,0l0,5.173l5.18164,0l0,-5.173z" fill="white" id="svg_539"/>
  <path opacity="0.07" d="m23.8831,200.36l-5.1817,0l0,5.173l5.1817,0l0,-5.173z" fill="white" id="svg_540"/>
  <path opacity="0.02" d="m2.63846,214.328l-5.18167,0l0,5.173l5.18167,0l0,-5.173z" fill="white" id="svg_541"/>
  <path opacity="0.02" d="m9.71997,214.328l-5.18164,0l0,5.173l5.18164,0l0,-5.173z" fill="white" id="svg_542"/>
  <path opacity="0.14" d="m16.8015,214.328l-5.18157,0l0,5.173l5.18157,0l0,-5.173z" fill="white" id="svg_543"/>
  <path opacity="0.09" d="m2.63846,228.468l-5.18167,0l0,5.174l5.18167,0l0,-5.174z" fill="white" id="svg_544"/>
  <path opacity="0.02" d="m16.8015,228.468l-5.18157,0l0,5.174l5.18157,0l0,-5.174z" fill="white" id="svg_545"/>
  <path opacity="0.19" d="m2.63846,235.539l-5.18167,0l0,5.173l5.18167,0l0,-5.173z" fill="white" id="svg_546"/>
  <path opacity="0.06" d="m16.8015,235.539l-5.18157,0l0,5.173l5.18157,0l0,-5.173z" fill="white" id="svg_547"/>
  <path opacity="0.16" d="m2.63846,242.609l-5.18167,0l0,5.173l5.18167,0l0,-5.173z" fill="white" id="svg_548"/>
  <path opacity="0.04" d="m16.8015,256.749l-5.18157,0l0,5.174l5.18157,0l0,-5.174z" fill="white" id="svg_549"/>
  <path opacity="0.04" d="m16.8015,263.82l-5.18157,0l0,5.173l5.18157,0l0,-5.173z" fill="white" id="svg_550"/>
  <path opacity="0.18" d="m23.8831,270.89l-5.1817,0l0,5.173l5.1817,0l0,-5.173z" fill="white" id="svg_551"/>
  <g opacity="0.7" id="svg_552">
   <path opacity="0.7" d="m38.2188,155.007l-5.3543,0l0,127.091l5.3543,0l0,-127.091z" fill="#E6E6E6" id="svg_553"/>
   <path opacity="0.7" d="m47.373,155.007l-5.3543,0l0,127.091l5.3543,0l0,-127.091z" fill="#E6E6E6" id="svg_554"/>
   <path opacity="0.7" d="m56.6999,155.007l-5.3543,0l0,127.091l5.3543,0l0,-127.091z" fill="#E6E6E6" id="svg_555"/>
   <path opacity="0.7" d="m66.0268,155.007l-5.3543,0l0,127.091l5.3543,0l0,-127.091z" fill="#E6E6E6" id="svg_556"/>
   <path opacity="0.7" d="m75.3537,155.007l-5.3543,0l0,127.091l5.3543,0l0,-127.091z" fill="#E6E6E6" id="svg_557"/>
  </g>
  <path d="m110.416,282.099l-107.43211,0l107.43211,-93.465l0,93.465z" fill="#333333" id="svg_558"/>
  <path d="m101.2618,265.544l-36.9621,0l0,20.693l36.9621,0l0,-20.693z" fill="#4D4D4D" id="svg_559"/>
  <path d="m98.4983,260.716l-31.4351,0l0,9.657l31.4351,0l0,-9.657z" fill="#4D4D4D" id="svg_560"/>
  <path d="m94.8712,263.647l-24.3536,0l8.4633,-14.14l7.4269,0l8.4634,14.14z" fill="#4D4D4D" id="svg_561"/>
  <path d="m91.4168,269.683l-17.272,0l0,12.588l17.272,0l0,-12.588z" fill="white" id="svg_562"/>
  <path d="m93.4893,274.684l-21.4173,0l0,2.586l21.4173,0l0,-2.586z" fill="#4D4D4D" id="svg_563"/>
  <path d="m266.21,299.515c0.518,13.451 -9.845,25.005 -23.49,25.522c-13.472,0.517 -25.045,-10.002 -25.563,-23.452c-0.518,-13.451 9.845,-25.005 23.49,-25.522c13.472,-0.517 24.872,10.002 25.563,23.452z" fill="#333333" id="svg_564"/>
  <path d="m262.064,292.79c0.346,7.76 -5.699,14.313 -13.472,14.658c-7.772,0.345 -14.335,-5.691 -14.681,-13.451c-0.345,-7.76 5.7,-14.313 13.472,-14.658c7.773,-0.345 14.336,5.691 14.681,13.451z" fill="#4D4D4D" id="svg_565"/>
  <path d="m19.5651,274.166c0,3.277 -2.7636,6.036 -6.0453,6.036c-3.28166,0 -6.04519,-2.759 -6.04519,-6.036c0,-3.276 2.76353,-6.035 6.04519,-6.035c3.2817,0 6.0453,2.586 6.0453,6.035z" fill="#333333" id="svg_566"/>
  <path d="m21.6377,280.202c0,4.483 -3.6271,8.105 -8.1179,8.105c-4.49068,0 -8.11782,-3.622 -8.11782,-8.105c0,-4.484 3.62714,-8.105 8.11782,-8.105c4.4908,0 8.1179,3.621 8.1179,8.105z" fill="#333333" id="svg_567"/>
  <path d="m17.4924,268.993c0,2.242 -1.7272,4.139 -3.9725,4.139c-2.24539,0 -3.9726,-1.897 -3.9726,-4.139c0,-2.242 1.72721,-4.139 3.9726,-4.139c2.2453,0 3.9725,1.897 3.9725,4.139z" fill="#333333" id="svg_568"/>
  <path d="m18.7014,274.166c0,1.897 -1.5544,3.449 -3.4543,3.449c-1.9,0 -3.45444,-1.552 -3.45444,-3.449c0,-1.897 1.55444,-3.449 3.45444,-3.449c1.8999,0 3.4543,1.552 3.4543,3.449z" fill="#4D4D4D" id="svg_569"/>
  <path d="m16.9742,269.51c0,1.38 -1.209,2.587 -2.5907,2.587c-1.3818,0 -2.59084,-1.207 -2.59084,-2.587c0,-1.379 1.20904,-2.587 2.59084,-2.587c1.3817,-0.172 2.5907,1.035 2.5907,2.587z" fill="#4D4D4D" id="svg_570"/>
  <path d="m134.77,286.754c0,4.312 -3.628,7.933 -7.946,7.933c-4.318,0 -7.945,-3.621 -7.945,-7.933c0,-4.311 3.455,-7.932 7.945,-7.932c4.318,0 7.946,3.621 7.946,7.932z" fill="#333333" id="svg_571"/>
  <path d="m132.006,280.029c0,2.932 -2.245,5.346 -5.182,5.346c-2.936,0 -5.181,-2.414 -5.181,-5.346c0,-2.931 2.245,-5.346 5.181,-5.346c2.764,0 5.182,2.415 5.182,5.346z" fill="#333333" id="svg_572"/>
  <path d="m131.315,280.546c0,1.897 -1.554,3.449 -3.454,3.449c-1.9,0 -3.455,-1.552 -3.455,-3.449c0,-1.897 1.555,-3.449 3.455,-3.449c1.9,0 3.454,1.552 3.454,3.449z" fill="#4D4D4D" id="svg_573"/>
  <path d="m124.061,292.618c-0.864,8.277 -8.291,14.14 -16.408,13.278c-8.2911,-0.862 -14.1636,-8.277 -13.3,-16.382c0.8636,-8.278 8.291,-14.141 16.408,-13.278c8.118,0.862 14.164,8.104 13.3,16.382z" fill="#333333" id="svg_574"/>
  <path d="m120.261,279.34c-0.518,5.518 -5.354,9.657 -10.881,9.139c-5.355,-0.517 -9.3273,-5.518 -8.8091,-11.036c0.5182,-5.518 5.3541,-9.657 10.8811,-9.14c5.527,0.518 9.327,5.518 8.809,11.037z" fill="#333333" id="svg_575"/>
  <path d="m118.879,280.374c-0.345,3.622 -3.627,6.208 -7.081,5.863c-3.627,-0.345 -6.218,-3.621 -5.873,-7.07c0.346,-3.621 3.627,-6.208 7.082,-5.863c3.627,0.345 6.218,3.621 5.872,7.07z" fill="#4D4D4D" id="svg_576"/>
  <path d="m202.303,285.375c0,7.588 -6.045,13.623 -13.645,13.623c-7.6,0 -13.645,-6.035 -13.645,-13.623c0,-7.588 6.045,-13.623 13.645,-13.623c7.427,0 13.645,6.035 13.645,13.623z" fill="#333333" id="svg_577"/>
  <path d="m206.967,298.998c0,10.174 -8.291,18.279 -18.309,18.279c-10.19,0 -18.308,-8.277 -18.308,-18.279c0,-10.174 8.29,-18.279 18.308,-18.279c10.018,0 18.309,8.277 18.309,18.279z" fill="#333333" id="svg_578"/>
  <path d="m197.467,273.649c0,5.173 -3.973,9.312 -8.981,9.312c-5.009,0 -8.982,-4.139 -8.982,-9.312c0,-5.174 3.973,-9.312 8.982,-9.312c5.008,0.172 8.981,4.311 8.981,9.312z" fill="#333333" id="svg_579"/>
  <path d="m200.231,285.375c0,4.311 -3.455,7.932 -7.946,7.932c-4.318,0 -7.945,-3.448 -7.945,-7.932c0,-4.311 3.455,-7.932 7.945,-7.932c4.318,0.172 7.946,3.621 7.946,7.932z" fill="#4D4D4D" id="svg_580"/>
  <path d="m196.258,274.856c0,3.276 -2.591,6.035 -6.045,6.035c-3.282,0 -6.045,-2.586 -6.045,-6.035c0,-3.277 2.59,-5.863 6.045,-5.863c3.454,-0.173 6.045,2.586 6.045,5.863z" fill="#4D4D4D" id="svg_581"/>
  <path d="m172.077,296.756c0,9.657 -7.945,17.589 -17.617,17.589c-9.673,0 -17.618,-7.932 -17.618,-17.589c0,-9.657 7.945,-17.589 17.618,-17.589c9.672,0 17.617,7.76 17.617,17.589z" fill="#333333" id="svg_582"/>
  <path d="m166.032,281.581c0,6.553 -5.182,11.899 -11.572,11.899c-6.391,0 -11.573,-5.346 -11.573,-11.899c0,-6.553 5.182,-11.899 11.573,-11.899c6.39,0 11.572,5.346 11.572,11.899z" fill="#333333" id="svg_583"/>
  <path d="m164.477,283.133c0,4.311 -3.454,7.588 -7.772,7.588c-4.318,0 -7.773,-3.449 -7.773,-7.588c0,-4.311 3.455,-7.76 7.773,-7.76c4.318,0 7.772,3.449 7.772,7.76z" fill="#4D4D4D" id="svg_584"/>
  <path d="m214.739,283.65c0,2.07 -1.554,3.622 -3.454,3.622c-1.9,0 -3.455,-1.552 -3.455,-3.622c0,-2.069 1.555,-3.621 3.455,-3.621c1.9,0 3.454,1.552 3.454,3.621z" fill="#333333" id="svg_585"/>
  <path d="m289.009,279.34c0,6.725 -5.355,12.071 -12.091,12.071c-6.736,0 -12.09,-5.346 -12.09,-12.071c0,-6.726 5.354,-12.072 12.09,-12.072c6.736,0 12.091,5.346 12.091,12.072z" fill="#333333" id="svg_586"/>
  <path d="m293.154,291.411c0,8.967 -7.254,16.21 -16.236,16.21c-8.981,0 -16.235,-7.243 -16.235,-16.21c0,-8.967 7.254,-16.21 16.235,-16.21c8.982,0 16.236,7.243 16.236,16.21z" fill="#333333" id="svg_587"/>
  <path d="m284.864,268.993c0,4.484 -3.628,8.277 -7.946,8.277c-4.318,0 -7.945,-3.621 -7.945,-8.277c0,-4.484 3.627,-8.277 7.945,-8.277c4.318,0 7.946,3.793 7.946,8.277z" fill="#333333" id="svg_588"/>
  <path d="m287.109,279.34c0,3.793 -3.109,6.897 -6.909,6.897c-3.8,0 -6.909,-3.104 -6.909,-6.897c0,-3.794 3.109,-6.898 6.909,-6.898c3.8,0 6.909,3.104 6.909,6.898z" fill="#4D4D4D" id="svg_589"/>
  <path d="m283.827,270.028c0,2.931 -2.418,5.345 -5.354,5.345c-2.936,0 -5.354,-2.414 -5.354,-5.345c0,-2.932 2.418,-5.346 5.354,-5.346c2.936,0 5.354,2.414 5.354,5.346z" fill="#4D4D4D" id="svg_590"/>
  <path d="m334.089,294.515c0,8.967 -7.254,16.209 -16.236,16.209c-8.981,0 -16.236,-7.242 -16.236,-16.209c0,-8.967 7.255,-16.21 16.236,-16.21c8.982,0.172 16.236,7.415 16.236,16.21z" fill="#333333" id="svg_591"/>
  <path d="m328.389,280.719c0,6.036 -4.836,11.037 -10.536,11.037c-5.873,0 -10.709,-4.829 -10.709,-11.037c0,-6.035 4.836,-10.864 10.709,-10.864c5.872,0 10.536,4.829 10.536,10.864z" fill="#333333" id="svg_592"/>
  <path d="m327.007,282.099c0,3.966 -3.109,7.07 -7.081,7.07c-3.973,0 -7.082,-3.104 -7.082,-7.07c0,-3.966 3.109,-7.07 7.082,-7.07c3.972,0 7.081,3.104 7.081,7.07z" fill="#4D4D4D" id="svg_593"/>
  <path d="m598.351,301.068c0,14.83 -11.918,26.729 -26.772,26.729c-14.854,0 -26.772,-11.899 -26.772,-26.729c0,-14.831 11.918,-26.729 26.772,-26.729c14.854,0 26.772,12.071 26.772,26.729z" fill="#333333" id="svg_594"/>
  <path d="m594.378,293.653c0,8.449 -6.909,15.347 -15.372,15.347c-8.463,0 -15.372,-6.898 -15.372,-15.347c0,-8.45 6.909,-15.348 15.372,-15.348c8.463,0 15.372,6.898 15.372,15.348z" fill="#4D4D4D" id="svg_595"/>
  <path d="m632.722,289.514c0,12.416 -10.19,22.59 -22.626,22.59c-12.436,0 -22.627,-10.174 -22.627,-22.59c0,-12.416 10.191,-22.59 22.627,-22.59c12.608,0 22.626,10.001 22.626,22.59z" fill="#333333" id="svg_596"/>
  <path d="m629.268,283.133c0,7.243 -5.873,12.934 -12.954,12.934c-7.255,0 -12.954,-5.863 -12.954,-12.934c0,-7.07 5.872,-12.933 12.954,-12.933c7.081,0 12.954,5.863 12.954,12.933z" fill="#4D4D4D" id="svg_597"/>
  <path d="m575.034,293.135c0,12.416 -10.191,22.59 -22.627,22.59c-12.436,0 -22.626,-10.174 -22.626,-22.59c0,-12.416 10.19,-22.59 22.626,-22.59c12.609,0 22.627,10.001 22.627,22.59z" fill="#333333" id="svg_598"/>
  <path d="m571.579,286.755c0,7.242 -5.872,12.933 -12.954,12.933c-7.081,0 -12.954,-5.863 -12.954,-12.933c0,-7.243 5.873,-12.934 12.954,-12.934c7.082,0 12.954,5.691 12.954,12.934z" fill="#4D4D4D" id="svg_599"/>
  <path d="m505.255,298.309c0,12.416 -10.191,22.59 -22.627,22.59c-12.436,0 -22.626,-10.174 -22.626,-22.59c0,-12.416 10.19,-22.59 22.626,-22.59c12.609,0 22.627,10.174 22.627,22.59z" fill="#333333" id="svg_600"/>
  <path d="m501.8,291.928c0,7.243 -5.872,12.934 -12.954,12.934c-7.254,0 -12.954,-5.863 -12.954,-12.934c0,-7.242 5.873,-12.933 12.954,-12.933c7.082,0 12.954,5.863 12.954,12.933z" fill="#4D4D4D" id="svg_601"/>
  <path d="m477.965,294.515c0,12.416 -10.191,22.59 -22.627,22.59c-12.436,0 -22.626,-10.174 -22.626,-22.59c0,-12.416 10.19,-22.59 22.626,-22.59c12.436,0 22.627,10.001 22.627,22.59z" fill="#333333" id="svg_602"/>
  <path d="m474.51,288.134c0,7.243 -5.872,12.934 -12.954,12.934c-7.254,0 -12.954,-5.863 -12.954,-12.934c0,-7.242 5.873,-12.933 12.954,-12.933c7.082,0 12.954,5.691 12.954,12.933z" fill="#4D4D4D" id="svg_603"/>
  <path d="m495.582,290.893c0,7.243 -5.872,12.933 -12.954,12.933c-7.254,0 -12.954,-5.863 -12.954,-12.933c0,-7.243 5.873,-12.933 12.954,-12.933c7.254,0 12.954,5.863 12.954,12.933z" fill="#4D4D4D" id="svg_604"/>
  <path d="m399.032,291.928c0,8.105 -6.564,14.83 -14.854,14.83c-8.118,0 -14.854,-6.553 -14.854,-14.83c0,-8.105 6.563,-14.831 14.854,-14.831c8.29,0.173 14.854,6.726 14.854,14.831z" fill="#333333" id="svg_605"/>
  <path d="m396.786,287.789c0,4.656 -3.8,8.45 -8.463,8.45c-4.663,0 -8.463,-3.794 -8.463,-8.45c0,-4.656 3.8,-8.45 8.463,-8.45c4.663,0 8.463,3.794 8.463,8.45z" fill="#4D4D4D" id="svg_606"/>
  <path d="m10.92905,280.202c0,6.897 -5.52707,12.416 -12.43588,12.416c-6.90877,0 -12.43587,-5.519 -12.43587,-12.416c0,-6.898 5.5271,-12.416 12.43587,-12.416c6.73609,-0.173 12.43588,5.518 12.43588,12.416z" fill="#333333" id="svg_607"/>
  <path d="m15.0743,292.618c0,9.312 -7.42694,16.727 -16.75382,16.727c-9.32688,0 -16.75378,-7.415 -16.75378,-16.727c0,-9.312 7.4269,-16.727 16.75378,-16.727c9.32688,0 16.75382,7.415 16.75382,16.727z" fill="#333333" id="svg_608"/>
  <path d="m6.61105,269.51c0,4.656 -3.62712,8.45 -8.29057,8.45c-4.49072,0 -8.29058,-3.794 -8.29058,-8.45c0,-4.656 3.62714,-8.45 8.29058,-8.45c4.66345,0 8.29057,3.794 8.29057,8.45z" fill="#333333" id="svg_609"/>
  <path d="m9.02902,280.201c0,3.967 -3.28168,7.243 -7.25425,7.243c-3.97258,0 -7.25426,-3.276 -7.25426,-7.243c0,-3.966 3.28168,-7.242 7.25426,-7.242c3.97257,0 7.25425,3.276 7.25425,7.242z" fill="#4D4D4D" id="svg_610"/>
  <path d="m5.57465,270.545c0,2.931 -2.41809,5.518 -5.52707,5.518c-2.93626,0 -5.52707,-2.414 -5.52707,-5.518c0,-2.932 2.41809,-5.518 5.52707,-5.518c2.93626,0 5.52707,2.414 5.52707,5.518z" fill="#4D4D4D" id="svg_611"/>
  <path d="m69.8267,285.03c0,5.519 -4.4907,10.002 -10.0178,10.002c-5.5271,0 -10.0178,-4.483 -10.0178,-10.002c0,-5.518 4.4907,-10.001 10.0178,-10.001c5.5271,0 10.0178,4.483 10.0178,10.001z" fill="#333333" id="svg_612"/>
  <path d="m66.3723,276.408c0,3.794 -2.9363,6.898 -6.5634,6.898c-3.6272,0 -6.5634,-3.104 -6.5634,-6.898c0,-3.794 2.9362,-6.898 6.5634,-6.898c3.6271,0.173 6.5634,3.104 6.5634,6.898z" fill="#333333" id="svg_613"/>
  <path d="m68.2722,285.03c0,3.277 -2.5908,5.863 -5.8725,5.863c-3.2817,0 -5.8725,-2.586 -5.8725,-5.863c0,-3.104 2.5908,-5.69 5.8725,-5.69c3.2817,-0.173 5.8725,2.414 5.8725,5.69z" fill="#4D4D4D" id="svg_614"/>
  <path d="m65.5087,277.27c0,2.415 -1.8999,4.311 -4.318,4.311c-2.4181,0 -4.318,-1.896 -4.318,-4.311c0,-2.414 1.8999,-4.311 4.318,-4.311c2.4181,-0.172 4.318,1.897 4.318,4.311z" fill="#4D4D4D" id="svg_615"/>
 </g>

</svg>