<svg width="729" height="279" xmlns="http://www.w3.org/2000/svg" fill="none">

 <g>
  <title>Layer 1</title>
  <path id="svg_1" fill="#333333" d="m470.872,153.696l56.998,0l0,133.3l-56.998,0l0,-133.3z"/>
  <path id="svg_2" fill="#333333" d="m501.962,146.971l25.908,0l0,7.588l-25.908,0l0,-7.588z"/>
  <path id="svg_3" fill="#333333" d="m512.843,142.66l15.027,0l0,4.311l-15.027,0l0,-4.311z"/>
  <path id="svg_4" fill="white" d="m494.707,163.008l9.327,0l0,6.898l-9.327,0l0,-6.898z" opacity="0.06"/>
  <path id="svg_5" fill="white" d="m494.707,180.08l9.327,0l0,6.898l-9.327,0l0,-6.898z" opacity="0.12"/>
  <path id="svg_6" fill="white" d="m494.707,214.224l9.327,0l0,6.898l-9.327,0l0,-6.898z" opacity="0.19"/>
  <path id="svg_7" fill="white" d="m494.707,248.368l9.327,0l0,6.898l-9.327,0l0,-6.898z" opacity="0.14"/>
  <path id="svg_8" fill="white" d="m494.707,265.44l9.327,0l0,6.898l-9.327,0l0,-6.898z" opacity="0.1"/>
  <path id="svg_9" fill="#333333" d="m613.884,168.181l78.07,0l0,71.392l-78.07,0l0,-71.392z"/>
  <path id="svg_10" fill="#333333" d="m626.147,161.801l53.371,0l0,30.695l-53.371,0l0,-30.695z"/>
  <path id="svg_11" fill="#333333" d="m608.185,213.189l78.069,0l0,71.392l-78.069,0l0,-71.392z"/>
  <path id="svg_12" fill="#333333" d="m620.62,206.808l53.371,0l0,30.695l-53.371,0l0,-30.695z"/>
  <path id="svg_13" fill="#333333" d="m504.207,203.704l78.069,0l0,82.257l-78.069,0l0,-82.257z"/>
  <path id="svg_14" fill="#333333" d="m516.47,196.462l53.371,0l0,35.523l-53.371,0l0,-35.523z"/>
  <path id="svg_15" fill="#333333" d="m242.881,228.71l78.07,0l0,79.496l-78.07,0l0,-79.496z"/>
  <path id="svg_16" fill="#333333" d="m255.144,221.639l53.371,0l0,34.317l-53.371,0l0,-34.317z"/>
  <path id="svg_17" fill="#333333" d="m412.147,64.542l87.224,0l0,221.247l-87.224,0l0,-221.247z"/>
  <path id="svg_18" fill="#E6E6E6" d="m473.981,74.544l21.072,0l0,3.967l-21.072,0l0,-3.967z" opacity="0.46"/>
  <path id="svg_19" fill="#E6E6E6" d="m445.136,74.544l21.072,0l0,3.967l-21.072,0l0,-3.967z" opacity="0.34"/>
  <path id="svg_20" fill="#E6E6E6" d="m416.465,74.544l21.072,0l0,3.967l-21.072,0l0,-3.967z" opacity="0.52"/>
  <path id="svg_21" fill="#E6E6E6" d="m473.981,83.684l21.072,0l0,3.966l-21.072,0l0,-3.966z" opacity="0.54"/>
  <path id="svg_22" fill="#E6E6E6" d="m445.136,83.684l21.072,0l0,3.966l-21.072,0l0,-3.966z" opacity="0.3"/>
  <path id="svg_23" fill="#E6E6E6" d="m416.465,83.684l21.072,0l0,3.966l-21.072,0l0,-3.966z" opacity="0.06"/>
  <path id="svg_24" fill="#E6E6E6" d="m473.981,92.823l21.072,0l0,3.967l-21.072,0l0,-3.967z" opacity="0.15"/>
  <path id="svg_25" fill="#E6E6E6" d="m445.136,92.823l21.072,0l0,3.967l-21.072,0l0,-3.967z" opacity="0.42"/>
  <path id="svg_26" fill="#E6E6E6" d="m416.465,92.823l21.072,0l0,3.967l-21.072,0l0,-3.967z" opacity="0.48"/>
  <path id="svg_27" fill="#E6E6E6" d="m473.981,101.963l21.072,0l0,3.966l-21.072,0l0,-3.966z" opacity="0.18"/>
  <path id="svg_28" fill="#E6E6E6" d="m416.465,101.963l21.072,0l0,3.966l-21.072,0l0,-3.966z" opacity="0.28"/>
  <path id="svg_29" fill="#E6E6E6" d="m473.981,111.102l21.072,0l0,3.967l-21.072,0l0,-3.967z" opacity="0.29"/>
  <path id="svg_30" fill="#E6E6E6" d="m445.136,111.102l21.072,0l0,3.967l-21.072,0l0,-3.967z" opacity="0.28"/>
  <path id="svg_31" fill="#E6E6E6" d="m416.465,111.102l21.072,0l0,3.967l-21.072,0l0,-3.967z" opacity="0.56"/>
  <path id="svg_32" fill="#E6E6E6" d="m473.981,120.242l21.072,0l0,3.966l-21.072,0l0,-3.966z" opacity="0.41"/>
  <path id="svg_33" fill="#E6E6E6" d="m445.136,120.242l21.072,0l0,3.966l-21.072,0l0,-3.966z" opacity="0.16"/>
  <path id="svg_34" fill="#E6E6E6" d="m416.465,120.242l21.072,0l0,3.966l-21.072,0l0,-3.966z" opacity="0.4"/>
  <path id="svg_35" fill="#E6E6E6" d="m473.981,129.382l21.072,0l0,3.966l-21.072,0l0,-3.966z" opacity="0.1"/>
  <path id="svg_36" fill="#E6E6E6" d="m445.136,129.382l21.072,0l0,3.966l-21.072,0l0,-3.966z" opacity="0.17"/>
  <path id="svg_37" fill="#E6E6E6" d="m416.465,129.382l21.072,0l0,3.966l-21.072,0l0,-3.966z" opacity="0.08"/>
  <path id="svg_38" fill="#E6E6E6" d="m473.981,138.521l21.072,0l0,3.966l-21.072,0l0,-3.966z" opacity="0.49"/>
  <path id="svg_39" fill="#E6E6E6" d="m445.136,138.521l21.072,0l0,3.966l-21.072,0l0,-3.966z" opacity="0.58"/>
  <path id="svg_40" fill="#E6E6E6" d="m416.465,138.521l21.072,0l0,3.966l-21.072,0l0,-3.966z" opacity="0.58"/>
  <path id="svg_41" fill="#E6E6E6" d="m473.981,147.661l21.072,0l0,3.966l-21.072,0l0,-3.966z" opacity="0.26"/>
  <path id="svg_42" fill="#E6E6E6" d="m445.136,147.661l21.072,0l0,3.966l-21.072,0l0,-3.966z" opacity="0.37"/>
  <path id="svg_43" fill="#E6E6E6" d="m416.465,147.661l21.072,0l0,3.966l-21.072,0l0,-3.966z" opacity="0.34"/>
  <path id="svg_44" fill="#E6E6E6" d="m473.981,156.8l21.072,0l0,3.966l-21.072,0l0,-3.966z" opacity="0.55"/>
  <path id="svg_45" fill="#E6E6E6" d="m445.136,156.8l21.072,0l0,3.966l-21.072,0l0,-3.966z" opacity="0.12"/>
  <path id="svg_46" fill="#E6E6E6" d="m416.465,156.8l21.072,0l0,3.966l-21.072,0l0,-3.966z" opacity="0.6"/>
  <path id="svg_47" fill="#E6E6E6" d="m473.981,165.94l21.072,0l0,3.966l-21.072,0l0,-3.966z" opacity="0.02"/>
  <path id="svg_48" fill="#E6E6E6" d="m445.136,165.94l21.072,0l0,3.966l-21.072,0l0,-3.966z" opacity="0.28"/>
  <path id="svg_49" fill="#E6E6E6" d="m416.465,165.94l21.072,0l0,3.966l-21.072,0l0,-3.966z" opacity="0.21"/>
  <path id="svg_50" fill="#E6E6E6" d="m473.981,175.079l21.072,0l0,3.967l-21.072,0l0,-3.967z" opacity="0.57"/>
  <path id="svg_51" fill="#E6E6E6" d="m445.136,175.079l21.072,0l0,3.967l-21.072,0l0,-3.967z" opacity="0.38"/>
  <path id="svg_52" fill="#E6E6E6" d="m416.465,175.079l21.072,0l0,3.967l-21.072,0l0,-3.967z" opacity="0.25"/>
  <path id="svg_53" fill="#E6E6E6" d="m473.981,184.219l21.072,0l0,3.966l-21.072,0l0,-3.966z" opacity="0.15"/>
  <path id="svg_54" fill="#E6E6E6" d="m445.136,184.219l21.072,0l0,3.966l-21.072,0l0,-3.966z" opacity="0.47"/>
  <path id="svg_55" fill="#E6E6E6" d="m416.465,184.219l21.072,0l0,3.966l-21.072,0l0,-3.966z" opacity="0.3"/>
  <path id="svg_56" fill="#E6E6E6" d="m473.981,193.358l21.072,0l0,3.967l-21.072,0l0,-3.967z" opacity="0.4"/>
  <path id="svg_57" fill="#E6E6E6" d="m445.136,193.358l21.072,0l0,3.967l-21.072,0l0,-3.967z" opacity="0.39"/>
  <path id="svg_58" fill="#E6E6E6" d="m416.465,193.358l21.072,0l0,3.967l-21.072,0l0,-3.967z" opacity="0.24"/>
  <path id="svg_59" fill="#E6E6E6" d="m473.981,202.498l21.072,0l0,3.966l-21.072,0l0,-3.966z" opacity="0.46"/>
  <path id="svg_60" fill="#E6E6E6" d="m445.136,202.498l21.072,0l0,3.966l-21.072,0l0,-3.966z" opacity="0.22"/>
  <path id="svg_61" fill="#E6E6E6" d="m416.465,202.498l21.072,0l0,3.966l-21.072,0l0,-3.966z" opacity="0.11"/>
  <path id="svg_62" fill="#E6E6E6" d="m445.136,211.638l21.072,0l0,3.966l-21.072,0l0,-3.966z" opacity="0.11"/>
  <path id="svg_63" fill="#E6E6E6" d="m416.465,211.638l21.072,0l0,3.966l-21.072,0l0,-3.966z" opacity="0.02"/>
  <path id="svg_64" fill="#E6E6E6" d="m473.981,220.777l21.072,0l0,3.967l-21.072,0l0,-3.967z" opacity="0.27"/>
  <path id="svg_65" fill="#E6E6E6" d="m445.136,220.777l21.072,0l0,3.967l-21.072,0l0,-3.967z" opacity="0.21"/>
  <path id="svg_66" fill="#E6E6E6" d="m416.465,220.777l21.072,0l0,3.967l-21.072,0l0,-3.967z" opacity="0.49"/>
  <path id="svg_67" fill="#E6E6E6" d="m473.981,229.917l21.072,0l0,3.966l-21.072,0l0,-3.966z" opacity="0.6"/>
  <path id="svg_68" fill="#E6E6E6" d="m445.136,229.917l21.072,0l0,3.966l-21.072,0l0,-3.966z" opacity="0.31"/>
  <path id="svg_69" fill="#E6E6E6" d="m416.465,229.917l21.072,0l0,3.966l-21.072,0l0,-3.966z" opacity="0.22"/>
  <path id="svg_70" fill="#E6E6E6" d="m473.981,239.056l21.072,0l0,3.967l-21.072,0l0,-3.967z" opacity="0.54"/>
  <path id="svg_71" fill="#E6E6E6" d="m445.136,239.056l21.072,0l0,3.967l-21.072,0l0,-3.967z" opacity="0.6"/>
  <path id="svg_72" fill="#E6E6E6" d="m416.465,239.056l21.072,0l0,3.967l-21.072,0l0,-3.967z" opacity="0.08"/>
  <path id="svg_73" fill="#E6E6E6" d="m445.136,248.196l21.072,0l0,3.966l-21.072,0l0,-3.966z" opacity="0.55"/>
  <path id="svg_74" fill="#E6E6E6" d="m416.465,248.196l21.072,0l0,3.966l-21.072,0l0,-3.966z"/>
  <path id="svg_75" fill="#E6E6E6" d="m472.599,74.544l1.382,0l0,177.618l-1.382,0l0,-177.618z" opacity="0.6"/>
  <path id="svg_76" fill="#E6E6E6" d="m437.537,74.544l1.382,0l0,177.618l-1.382,0l0,-177.618z" opacity="0.6"/>
  <path id="svg_77" fill="#4D4D4D" d="m368.621,64.542l43.526,0l0,221.247l-43.526,0l0,-221.247z"/>
  <path id="svg_78" fill="#E6E6E6" d="m375.012,74.544l32.817,0l0,3.967l-32.817,0l0,-3.967z" opacity="0.69"/>
  <path id="svg_79" fill="#E6E6E6" d="m375.012,83.684l32.817,0l0,3.966l-32.817,0l0,-3.966z" opacity="0.79"/>
  <path id="svg_80" fill="#E6E6E6" d="m375.012,92.823l32.817,0l0,3.967l-32.817,0l0,-3.967z" opacity="0.19"/>
  <path id="svg_81" fill="#E6E6E6" d="m375.012,101.963l32.817,0l0,3.966l-32.817,0l0,-3.966z" opacity="0.88"/>
  <path id="svg_82" fill="#E6E6E6" d="m375.012,111.102l32.817,0l0,3.967l-32.817,0l0,-3.967z" opacity="0.5"/>
  <path id="svg_83" fill="#E6E6E6" d="m375.012,120.242l32.817,0l0,3.966l-32.817,0l0,-3.966z" opacity="0.25"/>
  <path id="svg_84" fill="#E6E6E6" d="m375.012,129.382l32.817,0l0,3.966l-32.817,0l0,-3.966z" opacity="0.91"/>
  <path id="svg_85" fill="#E6E6E6" d="m375.012,138.521l32.817,0l0,3.966l-32.817,0l0,-3.966z" opacity="0.02"/>
  <path id="svg_86" fill="#E6E6E6" d="m375.012,147.661l32.817,0l0,3.966l-32.817,0l0,-3.966z" opacity="0.53"/>
  <path id="svg_87" fill="#E6E6E6" d="m375.012,156.8l32.817,0l0,3.966l-32.817,0l0,-3.966z" opacity="0.65"/>
  <path id="svg_88" fill="#E6E6E6" d="m375.012,165.94l32.817,0l0,3.966l-32.817,0l0,-3.966z"/>
  <path id="svg_89" fill="#E6E6E6" d="m375.012,175.079l32.817,0l0,3.967l-32.817,0l0,-3.967z" opacity="0.8"/>
  <path id="svg_90" fill="#E6E6E6" d="m375.012,184.219l32.817,0l0,3.966l-32.817,0l0,-3.966z" opacity="0.82"/>
  <path id="svg_91" fill="#E6E6E6" d="m375.012,193.358l32.817,0l0,3.967l-32.817,0l0,-3.967z" opacity="0.75"/>
  <path id="svg_92" fill="#E6E6E6" d="m375.012,202.498l32.817,0l0,3.966l-32.817,0l0,-3.966z" opacity="0.31"/>
  <path id="svg_93" fill="#E6E6E6" d="m375.012,211.638l32.817,0l0,3.966l-32.817,0l0,-3.966z" opacity="0.22"/>
  <path id="svg_94" fill="#E6E6E6" d="m375.012,220.777l32.817,0l0,3.967l-32.817,0l0,-3.967z" opacity="0.43"/>
  <path id="svg_95" fill="#E6E6E6" d="m375.012,229.917l32.817,0l0,3.966l-32.817,0l0,-3.966z" opacity="0.68"/>
  <path id="svg_96" fill="#E6E6E6" d="m375.012,239.056l32.817,0l0,3.967l-32.817,0l0,-3.967z" opacity="0.38"/>
  <path id="svg_97" fill="#E6E6E6" d="m375.012,248.196l32.817,0l0,3.966l-32.817,0l0,-3.966z" opacity="0.84"/>
  <path id="svg_98" fill="#333333" d="m483.999,52.816l0,11.726l-56.48,0l0,-11.726l56.48,0zm-12.609,7.933l5.872,0l0,-3.967l-5.872,0l0,3.967zm-9.154,0l5.7,0l0,-3.967l-5.7,0l0,3.967zm-9.327,0l5.7,0l0,-3.967l-5.7,0l0,3.967zm-9.327,0l5.872,0l0,-3.967l-5.872,0l0,3.967zm-9.327,0l5.873,0l0,-3.967l-5.873,0l0,3.967z"/>
  <path id="svg_99" fill="#333333" d="m417.156,56.782l1.554,0l0,3.967l-1.554,0l0,-3.967z"/>
  <path id="svg_100" fill="#4D4D4D" d="m427.519,52.816l0,11.726l-26.599,0l0,-11.726l26.599,0zm-10.363,7.933l5.7,0l0,-3.967l-5.7,0l0,3.967zm-12.263,0l5.699,0l0,-3.967l-5.699,0l0,3.967z"/>
  <path id="svg_101" fill="#333333" d="m405.065,56.782l1.555,0l0,3.967l-1.555,0l0,-3.967z"/>
  <path id="svg_102" fill="#333333" d="m400.575,300.79l117.449,0l-117.449,-86.567l0,86.567z"/>
  <path id="svg_103" fill="#4D4D4D" d="m575.713,17.637l9.5,0l0,36.041l-9.5,0l0,-36.041z"/>
  <path id="svg_104" fill="#333333" d="m585.04,17.637l9.672,0l0,36.041l-9.672,0l0,-36.041z"/>
  <path id="svg_105" fill="#666666" d="m565.868,17.637l9.672,0l0,36.041l-9.672,0l0,-36.041z"/>
  <path id="svg_106" fill="#666666" d="m537.887,78.338l26.945,0l0,205.554l-26.945,0l0,-205.554z"/>
  <path id="svg_107" fill="#333333" d="m596.439,78.338l23.49,0l0,205.554l-23.49,0l0,-205.554z"/>
  <path id="svg_108" fill="#4D4D4D" d="m564.832,78.338l31.78,0l0,205.554l-31.78,0l0,-205.554z"/>
  <path id="svg_109" fill="#E6E6E6" d="m613.193,84.373l3.455,0l0,196.759l-3.455,0l0,-196.759z" opacity="0.6"/>
  <path id="svg_110" fill="#E6E6E6" d="m606.457,84.373l3.455,0l0,196.759l-3.455,0l0,-196.759z" opacity="0.6"/>
  <path id="svg_111" fill="#E6E6E6" d="m599.721,84.373l3.454,0l0,196.759l-3.454,0l0,-196.759z" opacity="0.6"/>
  <path id="svg_112" fill="#E6E6E6" d="m559.477,84.373l3.455,0l0,196.759l-3.455,0l0,-196.759z"/>
  <path id="svg_113" fill="#E6E6E6" d="m552.741,84.373l3.455,0l0,196.759l-3.455,0l0,-196.759z"/>
  <path id="svg_114" fill="#E6E6E6" d="m539.615,84.373l3.454,0l0,196.759l-3.454,0l0,-196.759z"/>
  <path id="svg_115" fill="#E6E6E6" d="m546.005,84.373l3.455,0l0,196.759l-3.455,0l0,-196.759z"/>
  <path id="svg_116" fill="#E6E6E6" d="m592.64,281.132l-23.836,0l0,-196.759l23.836,0l0,196.759zm-3.8,-193.31l-16.236,0l0,189.862l16.236,0l0,-189.862z" opacity="0.8"/>
  <path id="svg_117" fill="#E6E6E6" d="m585.731,274.407l-10.191,0l0,-183.481l10.191,0l0,183.481zm-3.455,-179.17l-1.209,0l-0.691,0l-1.381,0l0,174.859l1.381,0l0.691,0l1.209,0l0,-174.859z" opacity="0.8"/>
  <path id="svg_118" fill="#E6E6E6" d="m580.376,95.237l0.691,0l0,174.859l-0.691,0l0,-174.859z" opacity="0.8"/>
  <path id="svg_119" fill="#4D4D4D" d="m568.459,42.297l23.835,0l0,36.041l-23.835,0l0,-36.041z"/>
  <path id="svg_120" fill="#4D4D4D" d="m568.459,42.297l23.835,0l0,36.041l-23.835,0l0,-36.041z"/>
  <path id="svg_121" fill="#666666" d="m544.623,42.297l23.836,0l0,36.041l-23.836,0l0,-36.041z"/>
  <path id="svg_122" fill="#333333" d="m592.294,42.297l23.836,0l0,36.041l-23.836,0l0,-36.041z"/>
  <path id="svg_123" fill="#808080" d="m566.041,17.637l28.671,0l-9.499,6.553l-9.673,0l-9.499,-6.553z"/>
  <path id="svg_124" fill="#4D4D4D" d="m53.5796,4.359l13.8175,0l0,40.525l-13.8175,0l0,-40.525z"/>
  <path id="svg_125" fill="#333333" d="m67.5701,4.359l13.8176,0l0,40.525l-13.8176,0l0,-40.525z"/>
  <path id="svg_126" fill="#666666" d="m39.7618,4.359l13.8178,0l0,40.525l-13.8178,0l0,-40.525z"/>
  <path id="svg_127" fill="#666666" d="m-1,72.82l39.0347,0l0,231.593l-39.0347,0l0,-231.593z"/>
  <path id="svg_128" fill="#333333" d="m83.9785,72.82l33.8535,0l0,231.593l-33.8535,0l0,-231.593z"/>
  <path id="svg_129" fill="#4D4D4D" d="m38.0348,72.82l45.9436,0l0,231.593l-45.9436,0l0,-231.593z"/>
  <path id="svg_130" fill="#E6E6E6" d="m108.159,79.717l5.009,0l0,221.591l-5.009,0l0,-221.591z" opacity="0.4"/>
  <path id="svg_131" fill="#E6E6E6" d="m98.3141,79.717l5.0089,0l0,221.591l-5.0089,0l0,-221.591z" opacity="0.4"/>
  <path id="svg_132" fill="#E6E6E6" d="m88.469,79.717l5.009,0l0,221.591l-5.009,0l0,-221.591z" opacity="0.4"/>
  <path id="svg_133" fill="#E6E6E6" d="m30.2623,79.717l5.0089,0l0,221.591l-5.0089,0l0,-221.591z"/>
  <path id="svg_134" fill="#E6E6E6" d="m20.4172,79.717l5.0091,0l0,221.591l-5.0091,0l0,-221.591z"/>
  <path id="svg_135" fill="#E6E6E6" d="m1.59082,79.717l5.00891,0l0,221.591l-5.00891,0l0,-221.591z"/>
  <path id="svg_136" fill="#E6E6E6" d="m10.7449,79.717l5.009,0l0,221.591l-5.009,0l0,-221.591z"/>
  <path id="svg_137" fill="#E6E6E6" d="m78.106,301.308l-34.5442,0l0,-221.591l34.5442,0l0,221.591zm-5.3544,-217.797l-23.4901,0l0,214.003l23.4901,0l0,-214.003z"/>
  <path id="svg_138" fill="#E6E6E6" d="m68.4336,293.893l-14.854,0l0,-206.76l14.854,0l0,206.76zm-5.1816,-201.932l-1.9,0l-0.8636,0l-1.8999,0l0,197.104l1.8999,0l0.8636,0l1.9,0l0,-197.104z"/>
  <path id="svg_139" fill="#E6E6E6" d="m60.4884,91.961l0.8635,0l0,197.104l-0.8635,0l0,-197.104z"/>
  <path id="svg_140" fill="#4D4D4D" d="m43.2163,32.295l34.5442,0l0,40.525l-34.5442,0l0,-40.525z"/>
  <path id="svg_141" fill="#4D4D4D" d="m43.2163,32.295l34.5442,0l0,40.525l-34.5442,0l0,-40.525z"/>
  <path id="svg_142" fill="#666666" d="m8.67236,32.295l34.54394,0l0,40.525l-34.54394,0l0,-40.525z"/>
  <path id="svg_143" fill="#333333" d="m77.5876,32.295l34.5444,0l0,40.525l-34.5444,0l0,-40.525z"/>
  <path id="svg_144" fill="#808080" d="m39.5894,4.359l41.7983,0l-13.9904,7.415l-13.8176,0l-13.9903,-7.415z"/>
  <path id="svg_145" fill="#E6E6E6" d="m153.239,104.894l94.478,0l0,31.384l-94.478,0l0,-31.384z"/>
  <path id="svg_146" fill="#B3B3B3" d="m210.582,104.894l37.135,0l0,31.384l-37.135,0l0,-31.384z"/>
  <path id="svg_147" fill="#333333" d="m210.582,136.451l73.407,0l0,152.441l-73.407,0l0,-152.441z"/>
  <path id="svg_148" fill="#4D4D4D" d="m95.8961,136.451l114.6859,0l0,152.441l-114.6859,0l0,-152.441z"/>
  <path id="svg_149" fill="#333333" d="m219.564,120.931l56.479,0l0,15.52l-56.479,0l0,-15.52z"/>
  <path id="svg_150" fill="#4D4D4D" d="m112.995,120.931l80.661,0l0,15.52l-80.661,0l0,-15.52z"/>
  <path id="svg_151" fill="#E6E6E6" d="m178.284,92.995l32.298,0l0,11.898l-32.298,0l0,-11.898z"/>
  <path id="svg_152" fill="#4D4D4D" d="m194.519,80.924l16.063,0l0,11.899l-16.063,0l0,-11.899z"/>
  <path id="svg_153" fill="#333333" d="m210.755,80.924l16.063,0l0,11.899l-16.063,0l0,-11.899z"/>
  <path id="svg_154" fill="#B3B3B3" d="m210.582,92.995l24.699,0l0,11.898l-24.699,0l0,-11.898z"/>
  <path id="svg_155" fill="#333333" d="m211.619,80.924l-1.037,-27.591l-0.863,27.591l1.9,0z"/>
  <path id="svg_156" fill="white" d="m260.844,142.659l6.045,0l0,6.035l-6.045,0l0,-6.035z" opacity="0.12"/>
  <path id="svg_157" fill="white" d="m252.553,142.659l6.046,0l0,6.035l-6.046,0l0,-6.035z" opacity="0.25"/>
  <path id="svg_158" fill="white" d="m244.263,142.659l6.045,0l0,6.035l-6.045,0l0,-6.035z" opacity="0.36"/>
  <path id="svg_159" fill="white" d="m235.972,142.659l6.046,0l0,6.035l-6.046,0l0,-6.035z" opacity="0.12"/>
  <path id="svg_160" fill="white" d="m227.682,142.659l6.045,0l0,6.035l-6.045,0l0,-6.035z" opacity="0.14"/>
  <path id="svg_161" fill="white" d="m260.844,150.591l6.045,0l0,6.036l-6.045,0l0,-6.036z" opacity="0.28"/>
  <path id="svg_162" fill="white" d="m252.553,150.591l6.046,0l0,6.036l-6.046,0l0,-6.036z" opacity="0.4"/>
  <path id="svg_163" fill="white" d="m244.263,150.591l6.045,0l0,6.036l-6.045,0l0,-6.036z" opacity="0.16"/>
  <path id="svg_164" fill="white" d="m227.682,150.591l6.045,0l0,6.036l-6.045,0l0,-6.036z" opacity="0.17"/>
  <path id="svg_165" fill="white" d="m260.844,158.524l6.045,0l0,6.035l-6.045,0l0,-6.035z" opacity="0.27"/>
  <path id="svg_166" fill="white" d="m252.553,158.524l6.046,0l0,6.035l-6.046,0l0,-6.035z" opacity="0.45"/>
  <path id="svg_167" fill="white" d="m244.263,158.524l6.045,0l0,6.035l-6.045,0l0,-6.035z" opacity="0.45"/>
  <path id="svg_168" fill="white" d="m235.972,158.524l6.046,0l0,6.035l-6.046,0l0,-6.035z" opacity="0.48"/>
  <path id="svg_169" fill="white" d="m227.682,158.524l6.045,0l0,6.035l-6.045,0l0,-6.035z" opacity="0.25"/>
  <path id="svg_170" fill="white" d="m260.844,166.456l6.045,0l0,6.036l-6.045,0l0,-6.036z" opacity="0.28"/>
  <path id="svg_171" fill="white" d="m252.553,166.456l6.046,0l0,6.036l-6.046,0l0,-6.036z" opacity="0.13"/>
  <path id="svg_172" fill="white" d="m244.263,166.456l6.045,0l0,6.036l-6.045,0l0,-6.036z" opacity="0.07"/>
  <path id="svg_173" fill="white" d="m235.972,166.456l6.046,0l0,6.036l-6.046,0l0,-6.036z" opacity="0.39"/>
  <path id="svg_174" fill="white" d="m227.682,166.456l6.045,0l0,6.036l-6.045,0l0,-6.036z" opacity="0.47"/>
  <path id="svg_175" fill="white" d="m260.844,174.388l6.045,0l0,6.036l-6.045,0l0,-6.036z" opacity="0.28"/>
  <path id="svg_176" fill="white" d="m252.553,174.388l6.046,0l0,6.036l-6.046,0l0,-6.036z" opacity="0.2"/>
  <path id="svg_177" fill="white" d="m244.263,174.388l6.045,0l0,6.036l-6.045,0l0,-6.036z" opacity="0.04"/>
  <path id="svg_178" fill="white" d="m235.972,174.388l6.046,0l0,6.036l-6.046,0l0,-6.036z" opacity="0.43"/>
  <path id="svg_179" fill="white" d="m227.682,174.388l6.045,0l0,6.036l-6.045,0l0,-6.036z" opacity="0.48"/>
  <path id="svg_180" fill="white" d="m260.844,182.321l6.045,0l0,6.036l-6.045,0l0,-6.036z" opacity="0.28"/>
  <path id="svg_181" fill="white" d="m252.553,182.321l6.046,0l0,6.036l-6.046,0l0,-6.036z" opacity="0.19"/>
  <path id="svg_182" fill="white" d="m244.263,182.321l6.045,0l0,6.036l-6.045,0l0,-6.036z" opacity="0.01"/>
  <path id="svg_183" fill="white" d="m235.972,182.321l6.046,0l0,6.036l-6.046,0l0,-6.036z" opacity="0.27"/>
  <path id="svg_184" fill="white" d="m227.682,182.321l6.045,0l0,6.036l-6.045,0l0,-6.036z" opacity="0.24"/>
  <path id="svg_185" fill="white" d="m260.844,190.426l6.045,0l0,6.035l-6.045,0l0,-6.035z" opacity="0.07"/>
  <path id="svg_186" fill="white" d="m252.553,190.426l6.046,0l0,6.035l-6.046,0l0,-6.035z" opacity="0.25"/>
  <path id="svg_187" fill="white" d="m244.263,190.426l6.045,0l0,6.035l-6.045,0l0,-6.035z" opacity="0.26"/>
  <path id="svg_188" fill="white" d="m235.972,190.426l6.046,0l0,6.035l-6.046,0l0,-6.035z" opacity="0.39"/>
  <path id="svg_189" fill="white" d="m227.682,190.426l6.045,0l0,6.035l-6.045,0l0,-6.035z" opacity="0.22"/>
  <path id="svg_190" fill="white" d="m260.844,198.358l6.045,0l0,6.036l-6.045,0l0,-6.036z" opacity="0.15"/>
  <path id="svg_191" fill="white" d="m252.553,198.358l6.046,0l0,6.036l-6.046,0l0,-6.036z" opacity="0.23"/>
  <path id="svg_192" fill="white" d="m244.263,198.358l6.045,0l0,6.036l-6.045,0l0,-6.036z" opacity="0.05"/>
  <path id="svg_193" fill="white" d="m235.972,198.358l6.046,0l0,6.036l-6.046,0l0,-6.036z" opacity="0.2"/>
  <path id="svg_194" fill="white" d="m227.682,198.358l6.045,0l0,6.036l-6.045,0l0,-6.036z" opacity="0.31"/>
  <path id="svg_195" fill="white" d="m260.844,206.291l6.045,0l0,6.035l-6.045,0l0,-6.035z" opacity="0.15"/>
  <path id="svg_196" fill="white" d="m252.553,206.291l6.046,0l0,6.035l-6.046,0l0,-6.035z" opacity="0.33"/>
  <path id="svg_197" fill="white" d="m244.263,206.291l6.045,0l0,6.035l-6.045,0l0,-6.035z" opacity="0.46"/>
  <path id="svg_198" fill="white" d="m235.972,206.291l6.046,0l0,6.035l-6.046,0l0,-6.035z" opacity="0.25"/>
  <path id="svg_199" fill="white" d="m227.682,206.291l6.045,0l0,6.035l-6.045,0l0,-6.035z" opacity="0.43"/>
  <path id="svg_200" fill="white" d="m260.844,214.223l6.045,0l0,6.036l-6.045,0l0,-6.036z" opacity="0.4"/>
  <path id="svg_201" fill="white" d="m252.553,214.223l6.046,0l0,6.036l-6.046,0l0,-6.036z" opacity="0.39"/>
  <path id="svg_202" fill="white" d="m244.263,214.223l6.045,0l0,6.036l-6.045,0l0,-6.036z" opacity="0.01"/>
  <path id="svg_203" fill="white" d="m235.972,214.223l6.046,0l0,6.036l-6.046,0l0,-6.036z" opacity="0.12"/>
  <path id="svg_204" fill="white" d="m227.682,214.223l6.045,0l0,6.036l-6.045,0l0,-6.036z" opacity="0.07"/>
  <path id="svg_205" fill="white" d="m260.844,222.156l6.045,0l0,6.035l-6.045,0l0,-6.035z" opacity="0.07"/>
  <path id="svg_206" fill="white" d="m252.553,222.156l6.046,0l0,6.035l-6.046,0l0,-6.035z" opacity="0.02"/>
  <path id="svg_207" fill="white" d="m244.263,222.156l6.045,0l0,6.035l-6.045,0l0,-6.035z" opacity="0.12"/>
  <path id="svg_208" fill="white" d="m235.972,222.156l6.046,0l0,6.035l-6.046,0l0,-6.035z" opacity="0.23"/>
  <path id="svg_209" fill="white" d="m227.682,222.156l6.045,0l0,6.035l-6.045,0l0,-6.035z" opacity="0.26"/>
  <path id="svg_210" fill="white" d="m260.844,230.088l6.045,0l0,6.036l-6.045,0l0,-6.036z" opacity="0.27"/>
  <path id="svg_211" fill="white" d="m252.553,230.088l6.046,0l0,6.036l-6.046,0l0,-6.036z" opacity="0.38"/>
  <path id="svg_212" fill="white" d="m244.263,230.088l6.045,0l0,6.036l-6.045,0l0,-6.036z" opacity="0.05"/>
  <path id="svg_213" fill="white" d="m235.972,230.088l6.046,0l0,6.036l-6.046,0l0,-6.036z" opacity="0.45"/>
  <path id="svg_214" fill="white" d="m227.682,230.088l6.045,0l0,6.036l-6.045,0l0,-6.036z" opacity="0.15"/>
  <path id="svg_215" fill="white" d="m260.844,238.021l6.045,0l0,6.035l-6.045,0l0,-6.035z" opacity="0.06"/>
  <path id="svg_216" fill="white" d="m252.553,238.021l6.046,0l0,6.035l-6.046,0l0,-6.035z" opacity="0.47"/>
  <path id="svg_217" fill="white" d="m244.263,238.021l6.045,0l0,6.035l-6.045,0l0,-6.035z" opacity="0.15"/>
  <path id="svg_218" fill="white" d="m235.972,238.021l6.046,0l0,6.035l-6.046,0l0,-6.035z" opacity="0.44"/>
  <path id="svg_219" fill="white" d="m227.682,238.021l6.045,0l0,6.035l-6.045,0l0,-6.035z" opacity="0.14"/>
  <path id="svg_220" fill="white" d="m260.844,245.953l6.045,0l0,6.036l-6.045,0l0,-6.036z" opacity="0.15"/>
  <path id="svg_221" fill="white" d="m252.553,245.953l6.046,0l0,6.036l-6.046,0l0,-6.036z" opacity="0.43"/>
  <path id="svg_222" fill="white" d="m244.263,245.953l6.045,0l0,6.036l-6.045,0l0,-6.036z" opacity="0.07"/>
  <path id="svg_223" fill="white" d="m235.972,245.953l6.046,0l0,6.036l-6.046,0l0,-6.036z" opacity="0.47"/>
  <path id="svg_224" fill="white" d="m227.682,245.953l6.045,0l0,6.036l-6.045,0l0,-6.036z" opacity="0.11"/>
  <path id="svg_225" fill="white" d="m260.844,253.885l6.045,0l0,6.036l-6.045,0l0,-6.036z" opacity="0.07"/>
  <path id="svg_226" fill="white" d="m252.553,253.885l6.046,0l0,6.036l-6.046,0l0,-6.036z" opacity="0.34"/>
  <path id="svg_227" fill="white" d="m244.263,253.885l6.045,0l0,6.036l-6.045,0l0,-6.036z" opacity="0.5"/>
  <path id="svg_228" fill="white" d="m235.972,253.885l6.046,0l0,6.036l-6.046,0l0,-6.036z" opacity="0.36"/>
  <path id="svg_229" fill="white" d="m227.682,253.885l6.045,0l0,6.036l-6.045,0l0,-6.036z" opacity="0.34"/>
  <path id="svg_230" fill="white" d="m260.844,261.818l6.045,0l0,6.036l-6.045,0l0,-6.036z" opacity="0.47"/>
  <path id="svg_231" fill="white" d="m252.553,261.818l6.046,0l0,6.036l-6.046,0l0,-6.036z" opacity="0.41"/>
  <path id="svg_232" fill="white" d="m244.263,261.818l6.045,0l0,6.036l-6.045,0l0,-6.036z" opacity="0.3"/>
  <path id="svg_233" fill="white" d="m235.972,261.818l6.046,0l0,6.036l-6.046,0l0,-6.036z" opacity="0.33"/>
  <path id="svg_234" fill="white" d="m227.682,261.818l6.045,0l0,6.036l-6.045,0l0,-6.036z" opacity="0.12"/>
  <path id="svg_235" fill="white" d="m260.844,269.75l6.045,0l0,6.036l-6.045,0l0,-6.036z" opacity="0.24"/>
  <path id="svg_236" fill="white" d="m252.553,269.75l6.046,0l0,6.036l-6.046,0l0,-6.036z" opacity="0.29"/>
  <path id="svg_237" fill="white" d="m235.972,269.75l6.046,0l0,6.036l-6.046,0l0,-6.036z" opacity="0.27"/>
  <path id="svg_238" fill="white" d="m227.682,269.75l6.045,0l0,6.036l-6.045,0l0,-6.036z" opacity="0.04"/>
  <path id="svg_239" fill="white" d="m260.844,277.683l6.045,0l0,6.035l-6.045,0l0,-6.035z" opacity="0.11"/>
  <path id="svg_240" fill="white" d="m252.553,277.683l6.046,0l0,6.035l-6.046,0l0,-6.035z" opacity="0.05"/>
  <path id="svg_241" fill="white" d="m244.263,277.683l6.045,0l0,6.035l-6.045,0l0,-6.035z" opacity="0.04"/>
  <path id="svg_242" fill="white" d="m235.972,277.683l6.046,0l0,6.035l-6.046,0l0,-6.035z" opacity="0.02"/>
  <path id="svg_243" fill="white" d="m190.547,142.659l6.045,0l0,6.035l-6.045,0l0,-6.035z" opacity="0.3"/>
  <path id="svg_244" fill="white" d="m182.602,142.659l6.045,0l0,6.035l-6.045,0l0,-6.035z" opacity="0.72"/>
  <path id="svg_245" fill="white" d="m174.484,142.659l6.045,0l0,6.035l-6.045,0l0,-6.035z" opacity="0.7"/>
  <path id="svg_246" fill="white" d="m166.366,142.659l6.045,0l0,6.035l-6.045,0l0,-6.035z" opacity="0.52"/>
  <path id="svg_247" fill="white" d="m158.248,142.659l6.046,0l0,6.035l-6.046,0l0,-6.035z" opacity="0.2"/>
  <path id="svg_248" fill="white" d="m150.303,142.659l6.045,0l0,6.035l-6.045,0l0,-6.035z" opacity="0.32"/>
  <path id="svg_249" fill="white" d="m142.185,142.659l6.045,0l0,6.035l-6.045,0l0,-6.035z" opacity="0.13"/>
  <path id="svg_250" fill="white" d="m134.067,142.659l6.046,0l0,6.035l-6.046,0l0,-6.035z" opacity="0.38"/>
  <path id="svg_251" fill="white" d="m126.122,142.659l6.045,0l0,6.035l-6.045,0l0,-6.035z" opacity="0.61"/>
  <path id="svg_252" fill="white" d="m118.004,142.659l6.046,0l0,6.035l-6.046,0l0,-6.035z"/>
  <path id="svg_253" fill="white" d="m109.887,142.659l6.045,0l0,6.035l-6.045,0l0,-6.035z" opacity="0.91"/>
  <path id="svg_254" fill="white" d="m190.547,150.591l6.045,0l0,6.036l-6.045,0l0,-6.036z" opacity="0.66"/>
  <path id="svg_255" fill="white" d="m182.602,150.591l6.045,0l0,6.036l-6.045,0l0,-6.036z" opacity="0.31"/>
  <path id="svg_256" fill="white" d="m174.484,150.591l6.045,0l0,6.036l-6.045,0l0,-6.036z" opacity="0.95"/>
  <path id="svg_257" fill="white" d="m166.366,150.591l6.045,0l0,6.036l-6.045,0l0,-6.036z" opacity="0.7"/>
  <path id="svg_258" fill="white" d="m158.248,150.591l6.046,0l0,6.036l-6.046,0l0,-6.036z" opacity="0.12"/>
  <path id="svg_259" fill="white" d="m150.303,150.591l6.045,0l0,6.036l-6.045,0l0,-6.036z" opacity="0.24"/>
  <path id="svg_260" fill="white" d="m142.185,150.591l6.045,0l0,6.036l-6.045,0l0,-6.036z" opacity="0.66"/>
  <path id="svg_261" fill="white" d="m134.067,150.591l6.046,0l0,6.036l-6.046,0l0,-6.036z" opacity="0.71"/>
  <path id="svg_262" fill="white" d="m126.122,150.591l6.045,0l0,6.036l-6.045,0l0,-6.036z" opacity="0.42"/>
  <path id="svg_263" fill="white" d="m118.004,150.591l6.046,0l0,6.036l-6.046,0l0,-6.036z" opacity="0.09"/>
  <path id="svg_264" fill="white" d="m109.887,150.591l6.045,0l0,6.036l-6.045,0l0,-6.036z" opacity="0.32"/>
  <path id="svg_265" fill="white" d="m190.547,158.524l6.045,0l0,6.035l-6.045,0l0,-6.035z" opacity="0.65"/>
  <path id="svg_266" fill="white" d="m182.602,158.524l6.045,0l0,6.035l-6.045,0l0,-6.035z"/>
  <path id="svg_267" fill="white" d="m174.484,158.524l6.045,0l0,6.035l-6.045,0l0,-6.035z"/>
  <path id="svg_268" fill="white" d="m166.366,158.524l6.045,0l0,6.035l-6.045,0l0,-6.035z" opacity="0.71"/>
  <path id="svg_269" fill="white" d="m158.248,158.524l6.046,0l0,6.035l-6.046,0l0,-6.035z" opacity="0.2"/>
  <path id="svg_270" fill="white" d="m150.303,158.524l6.045,0l0,6.035l-6.045,0l0,-6.035z" opacity="0.19"/>
  <path id="svg_271" fill="white" d="m142.185,158.524l6.045,0l0,6.035l-6.045,0l0,-6.035z" opacity="0.62"/>
  <path id="svg_272" fill="white" d="m134.067,158.524l6.046,0l0,6.035l-6.046,0l0,-6.035z" opacity="0.93"/>
  <path id="svg_273" fill="white" d="m126.122,158.524l6.045,0l0,6.035l-6.045,0l0,-6.035z" opacity="0.56"/>
  <path id="svg_274" fill="white" d="m118.004,158.524l6.046,0l0,6.035l-6.046,0l0,-6.035z" opacity="0.57"/>
  <path id="svg_275" fill="white" d="m109.887,158.524l6.045,0l0,6.035l-6.045,0l0,-6.035z" opacity="0.52"/>
  <path id="svg_276" fill="white" d="m190.547,166.456l6.045,0l0,6.036l-6.045,0l0,-6.036z" opacity="0.74"/>
  <path id="svg_277" fill="white" d="m182.602,166.456l6.045,0l0,6.036l-6.045,0l0,-6.036z" opacity="0.56"/>
  <path id="svg_278" fill="white" d="m174.484,166.456l6.045,0l0,6.036l-6.045,0l0,-6.036z" opacity="0.78"/>
  <path id="svg_279" fill="white" d="m166.366,166.456l6.045,0l0,6.036l-6.045,0l0,-6.036z" opacity="0.41"/>
  <path id="svg_280" fill="white" d="m158.248,166.456l6.046,0l0,6.036l-6.046,0l0,-6.036z" opacity="0.14"/>
  <path id="svg_281" fill="white" d="m150.303,166.456l6.045,0l0,6.036l-6.045,0l0,-6.036z" opacity="0.28"/>
  <path id="svg_282" fill="white" d="m142.185,166.456l6.045,0l0,6.036l-6.045,0l0,-6.036z" opacity="0.36"/>
  <path id="svg_283" fill="white" d="m134.067,166.456l6.046,0l0,6.036l-6.046,0l0,-6.036z" opacity="0.14"/>
  <path id="svg_284" fill="white" d="m126.122,166.456l6.045,0l0,6.036l-6.045,0l0,-6.036z" opacity="0.5"/>
  <path id="svg_285" fill="white" d="m118.004,166.456l6.046,0l0,6.036l-6.046,0l0,-6.036z" opacity="0.98"/>
  <path id="svg_286" fill="white" d="m109.887,166.456l6.045,0l0,6.036l-6.045,0l0,-6.036z" opacity="0.59"/>
  <path id="svg_287" fill="white" d="m190.547,174.388l6.045,0l0,6.036l-6.045,0l0,-6.036z" opacity="0.07"/>
  <path id="svg_288" fill="white" d="m182.602,174.388l6.045,0l0,6.036l-6.045,0l0,-6.036z" opacity="0.1"/>
  <path id="svg_289" fill="white" d="m174.484,174.388l6.045,0l0,6.036l-6.045,0l0,-6.036z" opacity="0.88"/>
  <path id="svg_290" fill="white" d="m166.366,174.388l6.045,0l0,6.036l-6.045,0l0,-6.036z" opacity="0.68"/>
  <path id="svg_291" fill="white" d="m158.248,174.388l6.046,0l0,6.036l-6.046,0l0,-6.036z" opacity="0.81"/>
  <path id="svg_292" fill="white" d="m150.303,174.388l6.045,0l0,6.036l-6.045,0l0,-6.036z" opacity="0.62"/>
  <path id="svg_293" fill="white" d="m142.185,174.388l6.045,0l0,6.036l-6.045,0l0,-6.036z" opacity="0.97"/>
  <path id="svg_294" fill="white" d="m134.067,174.388l6.046,0l0,6.036l-6.046,0l0,-6.036z" opacity="0.81"/>
  <path id="svg_295" fill="white" d="m126.122,174.388l6.045,0l0,6.036l-6.045,0l0,-6.036z" opacity="0.79"/>
  <path id="svg_296" fill="white" d="m118.004,174.388l6.046,0l0,6.036l-6.046,0l0,-6.036z" opacity="0.03"/>
  <path id="svg_297" fill="white" d="m109.887,174.388l6.045,0l0,6.036l-6.045,0l0,-6.036z" opacity="0.95"/>
  <path id="svg_298" fill="white" d="m190.547,182.321l6.045,0l0,6.036l-6.045,0l0,-6.036z" opacity="0.62"/>
  <path id="svg_299" fill="white" d="m182.602,182.321l6.045,0l0,6.036l-6.045,0l0,-6.036z" opacity="0.22"/>
  <path id="svg_300" fill="white" d="m174.484,182.321l6.045,0l0,6.036l-6.045,0l0,-6.036z" opacity="0.42"/>
  <path id="svg_301" fill="white" d="m166.366,182.321l6.045,0l0,6.036l-6.045,0l0,-6.036z" opacity="0.56"/>
  <path id="svg_302" fill="white" d="m158.248,182.321l6.046,0l0,6.036l-6.046,0l0,-6.036z" opacity="0.03"/>
  <path id="svg_303" fill="white" d="m150.303,182.321l6.045,0l0,6.036l-6.045,0l0,-6.036z" opacity="0.64"/>
  <path id="svg_304" fill="white" d="m142.185,182.321l6.045,0l0,6.036l-6.045,0l0,-6.036z" opacity="0.82"/>
  <path id="svg_305" fill="white" d="m134.067,182.321l6.046,0l0,6.036l-6.046,0l0,-6.036z" opacity="0.52"/>
  <path id="svg_306" fill="white" d="m126.122,182.321l6.045,0l0,6.036l-6.045,0l0,-6.036z" opacity="0.46"/>
  <path id="svg_307" fill="white" d="m118.004,182.321l6.046,0l0,6.036l-6.046,0l0,-6.036z" opacity="0.27"/>
  <path id="svg_308" fill="white" d="m109.887,182.321l6.045,0l0,6.036l-6.045,0l0,-6.036z" opacity="0.46"/>
  <path id="svg_309" fill="white" d="m190.547,190.426l6.045,0l0,6.035l-6.045,0l0,-6.035z" opacity="0.66"/>
  <path id="svg_310" fill="white" d="m182.602,190.426l6.045,0l0,6.035l-6.045,0l0,-6.035z" opacity="0.7"/>
  <path id="svg_311" fill="white" d="m174.484,190.426l6.045,0l0,6.035l-6.045,0l0,-6.035z" opacity="0.94"/>
  <path id="svg_312" fill="white" d="m166.366,190.426l6.045,0l0,6.035l-6.045,0l0,-6.035z" opacity="0.5"/>
  <path id="svg_313" fill="white" d="m158.248,190.426l6.046,0l0,6.035l-6.046,0l0,-6.035z" opacity="0.12"/>
  <path id="svg_314" fill="white" d="m150.303,190.426l6.045,0l0,6.035l-6.045,0l0,-6.035z" opacity="0.36"/>
  <path id="svg_315" fill="white" d="m142.185,190.426l6.045,0l0,6.035l-6.045,0l0,-6.035z" opacity="0.51"/>
  <path id="svg_316" fill="white" d="m134.067,190.426l6.046,0l0,6.035l-6.046,0l0,-6.035z" opacity="0.37"/>
  <path id="svg_317" fill="white" d="m126.122,190.426l6.045,0l0,6.035l-6.045,0l0,-6.035z" opacity="0.66"/>
  <path id="svg_318" fill="white" d="m118.004,190.426l6.046,0l0,6.035l-6.046,0l0,-6.035z" opacity="0.42"/>
  <path id="svg_319" fill="white" d="m109.887,190.426l6.045,0l0,6.035l-6.045,0l0,-6.035z" opacity="0.5"/>
  <path id="svg_320" fill="white" d="m190.547,198.358l6.045,0l0,6.036l-6.045,0l0,-6.036z" opacity="0.52"/>
  <path id="svg_321" fill="white" d="m182.602,198.358l6.045,0l0,6.036l-6.045,0l0,-6.036z" opacity="0.61"/>
  <path id="svg_322" fill="white" d="m174.484,198.358l6.045,0l0,6.036l-6.045,0l0,-6.036z" opacity="0.84"/>
  <path id="svg_323" fill="white" d="m166.366,198.358l6.045,0l0,6.036l-6.045,0l0,-6.036z" opacity="0.89"/>
  <path id="svg_324" fill="white" d="m158.248,198.358l6.046,0l0,6.036l-6.046,0l0,-6.036z" opacity="0.33"/>
  <path id="svg_325" fill="white" d="m150.303,198.358l6.045,0l0,6.036l-6.045,0l0,-6.036z" opacity="0.25"/>
  <path id="svg_326" fill="white" d="m142.185,198.358l6.045,0l0,6.036l-6.045,0l0,-6.036z" opacity="0.95"/>
  <path id="svg_327" fill="white" d="m134.067,198.358l6.046,0l0,6.036l-6.046,0l0,-6.036z" opacity="0.09"/>
  <path id="svg_328" fill="white" d="m126.122,198.358l6.045,0l0,6.036l-6.045,0l0,-6.036z" opacity="0.44"/>
  <path id="svg_329" fill="white" d="m118.004,198.358l6.046,0l0,6.036l-6.046,0l0,-6.036z" opacity="0.51"/>
  <path id="svg_330" fill="white" d="m109.887,198.358l6.045,0l0,6.036l-6.045,0l0,-6.036z" opacity="0.97"/>
  <path id="svg_331" fill="white" d="m190.547,206.291l6.045,0l0,6.035l-6.045,0l0,-6.035z" opacity="0.26"/>
  <path id="svg_332" fill="white" d="m182.602,206.291l6.045,0l0,6.035l-6.045,0l0,-6.035z" opacity="0.92"/>
  <path id="svg_333" fill="white" d="m174.484,206.291l6.045,0l0,6.035l-6.045,0l0,-6.035z" opacity="0.33"/>
  <path id="svg_334" fill="white" d="m166.366,206.291l6.045,0l0,6.035l-6.045,0l0,-6.035z" opacity="0.23"/>
  <path id="svg_335" fill="white" d="m158.248,206.291l6.046,0l0,6.035l-6.046,0l0,-6.035z" opacity="0.42"/>
  <path id="svg_336" fill="white" d="m150.303,206.291l6.045,0l0,6.035l-6.045,0l0,-6.035z" opacity="0.57"/>
  <path id="svg_337" fill="white" d="m142.185,206.291l6.045,0l0,6.035l-6.045,0l0,-6.035z" opacity="0.73"/>
  <path id="svg_338" fill="white" d="m134.067,206.291l6.046,0l0,6.035l-6.046,0l0,-6.035z" opacity="0.87"/>
  <path id="svg_339" fill="white" d="m126.122,206.291l6.045,0l0,6.035l-6.045,0l0,-6.035z" opacity="0.22"/>
  <path id="svg_340" fill="white" d="m118.004,206.291l6.046,0l0,6.035l-6.046,0l0,-6.035z" opacity="0.89"/>
  <path id="svg_341" fill="white" d="m109.887,206.291l6.045,0l0,6.035l-6.045,0l0,-6.035z" opacity="0.73"/>
  <path id="svg_342" fill="white" d="m190.547,214.223l6.045,0l0,6.036l-6.045,0l0,-6.036z" opacity="0.35"/>
  <path id="svg_343" fill="white" d="m182.602,214.223l6.045,0l0,6.036l-6.045,0l0,-6.036z" opacity="0.81"/>
  <path id="svg_344" fill="white" d="m174.484,214.223l6.045,0l0,6.036l-6.045,0l0,-6.036z" opacity="0.56"/>
  <path id="svg_345" fill="white" d="m166.366,214.223l6.045,0l0,6.036l-6.045,0l0,-6.036z" opacity="0.81"/>
  <path id="svg_346" fill="white" d="m158.248,214.223l6.046,0l0,6.036l-6.046,0l0,-6.036z" opacity="0.87"/>
  <path id="svg_347" fill="white" d="m150.303,214.223l6.045,0l0,6.036l-6.045,0l0,-6.036z" opacity="0.39"/>
  <path id="svg_348" fill="white" d="m142.185,214.223l6.045,0l0,6.036l-6.045,0l0,-6.036z" opacity="0.31"/>
  <path id="svg_349" fill="white" d="m134.067,214.223l6.046,0l0,6.036l-6.046,0l0,-6.036z" opacity="0.98"/>
  <path id="svg_350" fill="white" d="m126.122,214.223l6.045,0l0,6.036l-6.045,0l0,-6.036z" opacity="0.17"/>
  <path id="svg_351" fill="white" d="m118.004,214.223l6.046,0l0,6.036l-6.046,0l0,-6.036z" opacity="0.06"/>
  <path id="svg_352" fill="white" d="m109.887,214.223l6.045,0l0,6.036l-6.045,0l0,-6.036z" opacity="0.57"/>
  <path id="svg_353" fill="white" d="m190.547,222.156l6.045,0l0,6.035l-6.045,0l0,-6.035z" opacity="0.67"/>
  <path id="svg_354" fill="white" d="m182.602,222.156l6.045,0l0,6.035l-6.045,0l0,-6.035z" opacity="0.83"/>
  <path id="svg_355" fill="white" d="m174.484,222.156l6.045,0l0,6.035l-6.045,0l0,-6.035z" opacity="0.99"/>
  <path id="svg_356" fill="white" d="m166.366,222.156l6.045,0l0,6.035l-6.045,0l0,-6.035z" opacity="0.62"/>
  <path id="svg_357" fill="white" d="m158.248,222.156l6.046,0l0,6.035l-6.046,0l0,-6.035z" opacity="0.87"/>
  <path id="svg_358" fill="white" d="m150.303,222.156l6.045,0l0,6.035l-6.045,0l0,-6.035z" opacity="0.14"/>
  <path id="svg_359" fill="white" d="m142.185,222.156l6.045,0l0,6.035l-6.045,0l0,-6.035z" opacity="0.12"/>
  <path id="svg_360" fill="white" d="m134.067,222.156l6.046,0l0,6.035l-6.046,0l0,-6.035z" opacity="0.11"/>
  <path id="svg_361" fill="white" d="m126.122,222.156l6.045,0l0,6.035l-6.045,0l0,-6.035z" opacity="0.39"/>
  <path id="svg_362" fill="white" d="m118.004,222.156l6.046,0l0,6.035l-6.046,0l0,-6.035z" opacity="0.58"/>
  <path id="svg_363" fill="white" d="m109.887,222.156l6.045,0l0,6.035l-6.045,0l0,-6.035z" opacity="0.54"/>
  <path id="svg_364" fill="white" d="m190.547,230.088l6.045,0l0,6.036l-6.045,0l0,-6.036z" opacity="0.99"/>
  <path id="svg_365" fill="white" d="m182.602,230.088l6.045,0l0,6.036l-6.045,0l0,-6.036z" opacity="0.28"/>
  <path id="svg_366" fill="white" d="m174.484,230.088l6.045,0l0,6.036l-6.045,0l0,-6.036z" opacity="0.78"/>
  <path id="svg_367" fill="white" d="m166.366,230.088l6.045,0l0,6.036l-6.045,0l0,-6.036z" opacity="0.65"/>
  <path id="svg_368" fill="white" d="m158.248,230.088l6.046,0l0,6.036l-6.046,0l0,-6.036z" opacity="0.32"/>
  <path id="svg_369" fill="white" d="m150.303,230.088l6.045,0l0,6.036l-6.045,0l0,-6.036z" opacity="0.55"/>
  <path id="svg_370" fill="white" d="m142.185,230.088l6.045,0l0,6.036l-6.045,0l0,-6.036z" opacity="0.4"/>
  <path id="svg_371" fill="white" d="m134.067,230.088l6.046,0l0,6.036l-6.046,0l0,-6.036z" opacity="0.22"/>
  <path id="svg_372" fill="white" d="m126.122,230.088l6.045,0l0,6.036l-6.045,0l0,-6.036z" opacity="0.87"/>
  <path id="svg_373" fill="white" d="m118.004,230.088l6.046,0l0,6.036l-6.046,0l0,-6.036z" opacity="0.02"/>
  <path id="svg_374" fill="white" d="m109.887,230.088l6.045,0l0,6.036l-6.045,0l0,-6.036z" opacity="0.39"/>
  <path id="svg_375" fill="white" d="m190.547,238.021l6.045,0l0,6.035l-6.045,0l0,-6.035z" opacity="0.89"/>
  <path id="svg_376" fill="white" d="m182.602,238.021l6.045,0l0,6.035l-6.045,0l0,-6.035z" opacity="0.97"/>
  <path id="svg_377" fill="white" d="m174.484,238.021l6.045,0l0,6.035l-6.045,0l0,-6.035z" opacity="0.79"/>
  <path id="svg_378" fill="white" d="m166.366,238.021l6.045,0l0,6.035l-6.045,0l0,-6.035z" opacity="0.41"/>
  <path id="svg_379" fill="white" d="m158.248,238.021l6.046,0l0,6.035l-6.046,0l0,-6.035z" opacity="0.13"/>
  <path id="svg_380" fill="white" d="m150.303,238.021l6.045,0l0,6.035l-6.045,0l0,-6.035z" opacity="0.9"/>
  <path id="svg_381" fill="white" d="m142.185,238.021l6.045,0l0,6.035l-6.045,0l0,-6.035z" opacity="0.98"/>
  <path id="svg_382" fill="white" d="m134.067,238.021l6.046,0l0,6.035l-6.046,0l0,-6.035z" opacity="0.67"/>
  <path id="svg_383" fill="white" d="m126.122,238.021l6.045,0l0,6.035l-6.045,0l0,-6.035z" opacity="0.65"/>
  <path id="svg_384" fill="white" d="m118.004,238.021l6.046,0l0,6.035l-6.046,0l0,-6.035z" opacity="0.89"/>
  <path id="svg_385" fill="white" d="m109.887,238.021l6.045,0l0,6.035l-6.045,0l0,-6.035z" opacity="0.98"/>
  <path id="svg_386" fill="white" d="m190.547,245.953l6.045,0l0,6.036l-6.045,0l0,-6.036z" opacity="0.29"/>
  <path id="svg_387" fill="white" d="m182.602,245.953l6.045,0l0,6.036l-6.045,0l0,-6.036z" opacity="0.74"/>
  <path id="svg_388" fill="white" d="m174.484,245.953l6.045,0l0,6.036l-6.045,0l0,-6.036z" opacity="0.64"/>
  <path id="svg_389" fill="white" d="m166.366,245.953l6.045,0l0,6.036l-6.045,0l0,-6.036z" opacity="0.65"/>
  <path id="svg_390" fill="white" d="m158.248,245.953l6.046,0l0,6.036l-6.046,0l0,-6.036z" opacity="0.07"/>
  <path id="svg_391" fill="white" d="m150.303,245.953l6.045,0l0,6.036l-6.045,0l0,-6.036z" opacity="0.16"/>
  <path id="svg_392" fill="white" d="m142.185,245.953l6.045,0l0,6.036l-6.045,0l0,-6.036z" opacity="0.84"/>
  <path id="svg_393" fill="white" d="m134.067,245.953l6.046,0l0,6.036l-6.046,0l0,-6.036z" opacity="0.88"/>
  <path id="svg_394" fill="white" d="m126.122,245.953l6.045,0l0,6.036l-6.045,0l0,-6.036z" opacity="0.57"/>
  <path id="svg_395" fill="white" d="m118.004,245.953l6.046,0l0,6.036l-6.046,0l0,-6.036z" opacity="0.31"/>
  <path id="svg_396" fill="white" d="m109.887,245.953l6.045,0l0,6.036l-6.045,0l0,-6.036z" opacity="0.03"/>
  <path id="svg_397" fill="white" d="m190.547,253.885l6.045,0l0,6.036l-6.045,0l0,-6.036z" opacity="0.3"/>
  <path id="svg_398" fill="white" d="m182.602,253.885l6.045,0l0,6.036l-6.045,0l0,-6.036z" opacity="0.59"/>
  <path id="svg_399" fill="white" d="m174.484,253.885l6.045,0l0,6.036l-6.045,0l0,-6.036z" opacity="0.93"/>
  <path id="svg_400" fill="white" d="m166.366,253.885l6.045,0l0,6.036l-6.045,0l0,-6.036z" opacity="0.06"/>
  <path id="svg_401" fill="white" d="m158.248,253.885l6.046,0l0,6.036l-6.046,0l0,-6.036z" opacity="0.74"/>
  <path id="svg_402" fill="white" d="m150.303,253.885l6.045,0l0,6.036l-6.045,0l0,-6.036z" opacity="0.22"/>
  <path id="svg_403" fill="white" d="m142.185,253.885l6.045,0l0,6.036l-6.045,0l0,-6.036z" opacity="0.51"/>
  <path id="svg_404" fill="white" d="m134.067,253.885l6.046,0l0,6.036l-6.046,0l0,-6.036z" opacity="0.7"/>
  <path id="svg_405" fill="white" d="m126.122,253.885l6.045,0l0,6.036l-6.045,0l0,-6.036z" opacity="0.47"/>
  <path id="svg_406" fill="white" d="m118.004,253.885l6.046,0l0,6.036l-6.046,0l0,-6.036z" opacity="0.08"/>
  <path id="svg_407" fill="white" d="m109.887,253.885l6.045,0l0,6.036l-6.045,0l0,-6.036z" opacity="0.93"/>
  <path id="svg_408" fill="white" d="m190.547,261.818l6.045,0l0,6.036l-6.045,0l0,-6.036z" opacity="0.81"/>
  <path id="svg_409" fill="white" d="m182.602,261.818l6.045,0l0,6.036l-6.045,0l0,-6.036z" opacity="0.9"/>
  <path id="svg_410" fill="white" d="m174.484,261.818l6.045,0l0,6.036l-6.045,0l0,-6.036z" opacity="0.55"/>
  <path id="svg_411" fill="white" d="m166.366,261.818l6.045,0l0,6.036l-6.045,0l0,-6.036z" opacity="0.14"/>
  <path id="svg_412" fill="white" d="m158.248,261.818l6.046,0l0,6.036l-6.046,0l0,-6.036z" opacity="0.66"/>
  <path id="svg_413" fill="white" d="m150.303,261.818l6.045,0l0,6.036l-6.045,0l0,-6.036z" opacity="0.92"/>
  <path id="svg_414" fill="white" d="m142.185,261.818l6.045,0l0,6.036l-6.045,0l0,-6.036z" opacity="0.4"/>
  <path id="svg_415" fill="white" d="m134.067,261.818l6.046,0l0,6.036l-6.046,0l0,-6.036z" opacity="0.6"/>
  <path id="svg_416" fill="white" d="m126.122,261.818l6.045,0l0,6.036l-6.045,0l0,-6.036z" opacity="0.99"/>
  <path id="svg_417" fill="white" d="m118.004,261.818l6.046,0l0,6.036l-6.046,0l0,-6.036z" opacity="0.68"/>
  <path id="svg_418" fill="white" d="m109.887,261.818l6.045,0l0,6.036l-6.045,0l0,-6.036z" opacity="0.01"/>
  <path id="svg_419" fill="white" d="m190.547,269.75l6.045,0l0,6.036l-6.045,0l0,-6.036z" opacity="0.82"/>
  <path id="svg_420" fill="white" d="m182.602,269.75l6.045,0l0,6.036l-6.045,0l0,-6.036z" opacity="0.92"/>
  <path id="svg_421" fill="white" d="m174.484,269.75l6.045,0l0,6.036l-6.045,0l0,-6.036z" opacity="0.29"/>
  <path id="svg_422" fill="white" d="m166.366,269.75l6.045,0l0,6.036l-6.045,0l0,-6.036z" opacity="0.73"/>
  <path id="svg_423" fill="white" d="m158.248,269.75l6.046,0l0,6.036l-6.046,0l0,-6.036z" opacity="0.42"/>
  <path id="svg_424" fill="white" d="m150.303,269.75l6.045,0l0,6.036l-6.045,0l0,-6.036z" opacity="0.06"/>
  <path id="svg_425" fill="white" d="m142.185,269.75l6.045,0l0,6.036l-6.045,0l0,-6.036z" opacity="0.7"/>
  <path id="svg_426" fill="white" d="m134.067,269.75l6.046,0l0,6.036l-6.046,0l0,-6.036z" opacity="0.97"/>
  <path id="svg_427" fill="white" d="m126.122,269.75l6.045,0l0,6.036l-6.045,0l0,-6.036z" opacity="0.51"/>
  <path id="svg_428" fill="white" d="m118.004,269.75l6.046,0l0,6.036l-6.046,0l0,-6.036z" opacity="0.69"/>
  <path id="svg_429" fill="white" d="m109.887,269.75l6.045,0l0,6.036l-6.045,0l0,-6.036z" opacity="0.49"/>
  <path id="svg_430" fill="white" d="m190.547,277.683l6.045,0l0,6.035l-6.045,0l0,-6.035z" opacity="0.45"/>
  <path id="svg_431" fill="white" d="m182.602,277.683l6.045,0l0,6.035l-6.045,0l0,-6.035z" opacity="0.46"/>
  <path id="svg_432" fill="white" d="m174.484,277.683l6.045,0l0,6.035l-6.045,0l0,-6.035z" opacity="0.04"/>
  <path id="svg_433" fill="white" d="m166.366,277.683l6.045,0l0,6.035l-6.045,0l0,-6.035z" opacity="0.56"/>
  <path id="svg_434" fill="white" d="m158.248,277.683l6.046,0l0,6.035l-6.046,0l0,-6.035z" opacity="0.4"/>
  <path id="svg_435" fill="white" d="m150.303,277.683l6.045,0l0,6.035l-6.045,0l0,-6.035z" opacity="0.59"/>
  <path id="svg_436" fill="white" d="m142.185,277.683l6.045,0l0,6.035l-6.045,0l0,-6.035z" opacity="0.82"/>
  <path id="svg_437" fill="white" d="m134.067,277.683l6.046,0l0,6.035l-6.046,0l0,-6.035z" opacity="0.99"/>
  <path id="svg_438" fill="white" d="m126.122,277.683l6.045,0l0,6.035l-6.045,0l0,-6.035z" opacity="0.1"/>
  <path id="svg_439" fill="white" d="m118.004,277.683l6.046,0l0,6.035l-6.046,0l0,-6.035z" opacity="0.87"/>
  <path id="svg_440" fill="white" d="m109.887,277.683l6.045,0l0,6.035l-6.045,0l0,-6.035z"/>
  <path id="svg_441" fill="#333333" d="m292.625,103.859l56.997,0l0,178.308l-56.997,0l0,-178.308z"/>
  <path id="svg_442" fill="#333333" d="m323.714,94.892l25.908,0l0,10.002l-25.908,0l0,-10.002z"/>
  <path id="svg_443" fill="#333333" d="m334.596,89.029l15.026,0l0,5.863l-15.026,0l0,-5.863z"/>
  <path id="svg_444" fill="white" d="m316.633,116.448l9.327,0l0,9.312l-9.327,0l0,-9.312z" opacity="0.25"/>
  <path id="svg_445" fill="white" d="m316.633,139.383l9.327,0l0,9.312l-9.327,0l0,-9.312z" opacity="0.15"/>
  <path id="svg_446" fill="white" d="m316.633,185.08l9.327,0l0,9.312l-9.327,0l0,-9.312z" opacity="0.19"/>
  <path id="svg_447" fill="white" d="m316.633,207.843l9.327,0l0,9.312l-9.327,0l0,-9.312z" opacity="0.17"/>
  <path id="svg_448" fill="white" d="m316.633,230.606l9.327,0l0,9.312l-9.327,0l0,-9.312z" opacity="0.22"/>
  <path id="svg_449" fill="white" d="m316.633,253.541l9.327,0l0,9.312l-9.327,0l0,-9.312z"/>
  <path id="svg_450" fill="#333333" d="m334.941,203.187l53.371,0l0,15.692l-53.371,0l0,-15.692z"/>
  <path id="svg_451" fill="#4D4D4D" d="m308.342,203.187l26.599,0l0,15.692l-26.599,0l0,-15.692z"/>
  <path id="svg_452" fill="#333333" d="m388.312,203.187l-16.582,-7.932l-36.789,7.932l53.371,0z"/>
  <path id="svg_453" fill="#4D4D4D" d="m371.73,195.255l-36.789,7.932l-26.599,0l63.388,-7.932z"/>
  <path id="svg_454" fill="#333333" d="m322.505,214.223l78.07,0l0,71.392l-78.07,0l0,-71.392z"/>
  <path id="svg_455" fill="#4D4D4D" d="m296.597,214.223l25.908,0l0,71.392l-25.908,0l0,-71.392z"/>
  <path id="svg_456" fill="white" d="m302.642,219.224l13.991,0l0,5.174l-13.991,0l0,-5.174z" opacity="0.81"/>
  <path id="svg_457" fill="white" d="m302.642,228.709l13.991,0l0,5.173l-13.991,0l0,-5.173z" opacity="0.76"/>
  <path id="svg_458" fill="white" d="m302.642,238.193l13.991,0l0,5.174l-13.991,0l0,-5.174z" opacity="0.32"/>
  <path id="svg_459" fill="white" d="m302.642,247.85l13.991,0l0,5.173l-13.991,0l0,-5.173z" opacity="0.49"/>
  <path id="svg_460" fill="white" d="m302.642,266.819l13.991,0l0,5.173l-13.991,0l0,-5.173z" opacity="0.99"/>
  <path id="svg_461" fill="white" d="m374.148,219.224l13.991,0l0,5.174l-13.991,0l0,-5.174z" opacity="0.1"/>
  <path id="svg_462" fill="white" d="m354.631,219.224l13.991,0l0,5.174l-13.991,0l0,-5.174z" opacity="0.04"/>
  <path id="svg_463" fill="white" d="m334.941,219.224l13.99,0l0,5.174l-13.99,0l0,-5.174z" opacity="0.07"/>
  <path id="svg_464" fill="white" d="m374.148,228.709l13.991,0l0,5.173l-13.991,0l0,-5.173z" opacity="0.06"/>
  <path id="svg_465" fill="white" d="m354.631,228.709l13.991,0l0,5.173l-13.991,0l0,-5.173z" opacity="0.44"/>
  <path id="svg_466" fill="white" d="m334.941,228.709l13.99,0l0,5.173l-13.99,0l0,-5.173z" opacity="0.24"/>
  <path id="svg_467" fill="white" d="m374.148,238.193l13.991,0l0,5.174l-13.991,0l0,-5.174z" opacity="0.55"/>
  <path id="svg_468" fill="white" d="m354.631,238.193l13.991,0l0,5.174l-13.991,0l0,-5.174z" opacity="0.02"/>
  <path id="svg_469" fill="white" d="m334.941,238.193l13.99,0l0,5.174l-13.99,0l0,-5.174z" opacity="0.14"/>
  <path id="svg_470" fill="white" d="m374.148,247.85l13.991,0l0,5.173l-13.991,0l0,-5.173z" opacity="0.43"/>
  <path id="svg_471" fill="white" d="m354.631,247.85l13.991,0l0,5.173l-13.991,0l0,-5.173z" opacity="0.41"/>
  <path id="svg_472" fill="white" d="m334.941,247.85l13.99,0l0,5.173l-13.99,0l0,-5.173z" opacity="0.46"/>
  <path id="svg_473" fill="white" d="m374.148,257.335l13.991,0l0,5.173l-13.991,0l0,-5.173z" opacity="0.45"/>
  <path id="svg_474" fill="white" d="m354.631,257.335l13.991,0l0,5.173l-13.991,0l0,-5.173z" opacity="0.33"/>
  <path id="svg_475" fill="white" d="m334.941,257.335l13.99,0l0,5.173l-13.99,0l0,-5.173z" opacity="0.05"/>
  <path id="svg_476" fill="white" d="m374.148,266.819l13.991,0l0,5.174l-13.991,0l0,-5.174z" opacity="0.27"/>
  <path id="svg_477" fill="white" d="m354.631,266.819l13.991,0l0,5.174l-13.991,0l0,-5.174z" opacity="0.15"/>
  <path id="svg_478" fill="white" d="m334.941,266.819l13.99,0l0,5.174l-13.99,0l0,-5.174z" opacity="0.7"/>
  <path id="svg_479" fill="#333333" d="m702.317,142.832l48.362,0l0,148.819l-48.362,0l0,-148.819z"/>
  <path id="svg_480" fill="#4D4D4D" d="m647.219,142.832l54.925,0l0,148.819l-54.925,0l0,-148.819z"/>
  <path id="svg_481" fill="#4D4D4D" d="m702.317,155.42l48.362,0l0,2.587l-48.362,0l0,-2.587z"/>
  <path id="svg_482" fill="#333333" d="m647.219,155.42l54.925,0l0,2.587l-54.925,0l0,-2.587z"/>
  <path id="svg_483" fill="white" d="m727.361,160.939l5.182,0l0,5.173l-5.182,0l0,-5.173z" opacity="0.32"/>
  <path id="svg_484" fill="white" d="m720.28,160.939l5.182,0l0,5.173l-5.182,0l0,-5.173z" opacity="0.25"/>
  <path id="svg_485" fill="white" d="m706.117,160.939l5.181,0l0,5.173l-5.181,0l0,-5.173z" opacity="0.12"/>
  <path id="svg_486" fill="white" d="m727.361,168.009l5.182,0l0,5.173l-5.182,0l0,-5.173z" opacity="0.22"/>
  <path id="svg_487" fill="white" d="m720.28,168.009l5.182,0l0,5.173l-5.182,0l0,-5.173z" opacity="0.47"/>
  <path id="svg_488" fill="white" d="m713.198,168.009l5.182,0l0,5.173l-5.182,0l0,-5.173z" opacity="0.22"/>
  <path id="svg_489" fill="white" d="m706.117,168.009l5.181,0l0,5.173l-5.181,0l0,-5.173z" opacity="0.32"/>
  <path id="svg_490" fill="white" d="m727.361,175.079l5.182,0l0,5.173l-5.182,0l0,-5.173z" opacity="0.18"/>
  <path id="svg_491" fill="white" d="m720.28,175.079l5.182,0l0,5.173l-5.182,0l0,-5.173z" opacity="0.28"/>
  <path id="svg_492" fill="white" d="m706.117,175.079l5.181,0l0,5.173l-5.181,0l0,-5.173z" opacity="0.2"/>
  <path id="svg_493" fill="white" d="m727.361,182.149l5.182,0l0,5.174l-5.182,0l0,-5.174z" opacity="0.33"/>
  <path id="svg_494" fill="white" d="m720.28,182.149l5.182,0l0,5.174l-5.182,0l0,-5.174z" opacity="0.05"/>
  <path id="svg_495" fill="white" d="m713.198,182.149l5.182,0l0,5.174l-5.182,0l0,-5.174z" opacity="0.08"/>
  <path id="svg_496" fill="white" d="m720.28,189.219l5.182,0l0,5.174l-5.182,0l0,-5.174z" opacity="0.08"/>
  <path id="svg_497" fill="white" d="m713.198,189.219l5.182,0l0,5.174l-5.182,0l0,-5.174z" opacity="0.02"/>
  <path id="svg_498" fill="white" d="m727.361,196.29l5.182,0l0,5.173l-5.182,0l0,-5.173z" opacity="0.05"/>
  <path id="svg_499" fill="white" d="m720.28,196.29l5.182,0l0,5.173l-5.182,0l0,-5.173z" opacity="0.2"/>
  <path id="svg_500" fill="white" d="m713.198,196.29l5.182,0l0,5.173l-5.182,0l0,-5.173z" opacity="0.23"/>
  <path id="svg_501" fill="white" d="m727.361,203.36l5.182,0l0,5.173l-5.182,0l0,-5.173z" opacity="0.14"/>
  <path id="svg_502" fill="white" d="m713.198,203.36l5.182,0l0,5.173l-5.182,0l0,-5.173z" opacity="0.24"/>
  <path id="svg_503" fill="white" d="m727.361,210.43l5.182,0l0,5.173l-5.182,0l0,-5.173z" opacity="0.23"/>
  <path id="svg_504" fill="white" d="m720.28,210.43l5.182,0l0,5.173l-5.182,0l0,-5.173z" opacity="0.02"/>
  <path id="svg_505" fill="white" d="m713.198,210.43l5.182,0l0,5.173l-5.182,0l0,-5.173z" opacity="0.04"/>
  <path id="svg_506" fill="white" d="m706.117,210.43l5.181,0l0,5.173l-5.181,0l0,-5.173z" opacity="0.3"/>
  <path id="svg_507" fill="white" d="m706.117,217.328l5.181,0l0,5.173l-5.181,0l0,-5.173z" opacity="0.4"/>
  <path id="svg_508" fill="white" d="m727.361,224.398l5.182,0l0,5.174l-5.182,0l0,-5.174z" opacity="0.12"/>
  <path id="svg_509" fill="white" d="m713.198,224.398l5.182,0l0,5.174l-5.182,0l0,-5.174z" opacity="0.19"/>
  <path id="svg_510" fill="white" d="m706.117,224.398l5.181,0l0,5.174l-5.181,0l0,-5.174z" opacity="0.43"/>
  <path id="svg_511" fill="white" d="m720.28,231.468l5.182,0l0,5.174l-5.182,0l0,-5.174z" opacity="0.42"/>
  <path id="svg_512" fill="white" d="m706.117,231.468l5.181,0l0,5.174l-5.181,0l0,-5.174z" opacity="0.31"/>
  <path id="svg_513" fill="white" d="m720.28,238.539l5.182,0l0,5.173l-5.182,0l0,-5.173z" opacity="0.31"/>
  <path id="svg_514" fill="white" d="m706.117,238.539l5.181,0l0,5.173l-5.181,0l0,-5.173z" opacity="0.33"/>
  <path id="svg_515" fill="white" d="m720.28,245.609l5.182,0l0,5.173l-5.182,0l0,-5.173z" opacity="0.17"/>
  <path id="svg_516" fill="white" d="m713.198,245.609l5.182,0l0,5.173l-5.182,0l0,-5.173z" opacity="0.01"/>
  <path id="svg_517" fill="white" d="m706.117,245.609l5.181,0l0,5.173l-5.181,0l0,-5.173z" opacity="0.48"/>
  <path id="svg_518" fill="white" d="m727.361,252.679l5.182,0l0,5.173l-5.182,0l0,-5.173z" opacity="0.28"/>
  <path id="svg_519" fill="white" d="m720.28,252.679l5.182,0l0,5.173l-5.182,0l0,-5.173z" opacity="0.02"/>
  <path id="svg_520" fill="white" d="m713.198,252.679l5.182,0l0,5.173l-5.182,0l0,-5.173z" opacity="0.17"/>
  <path id="svg_521" fill="white" d="m706.117,252.679l5.181,0l0,5.173l-5.181,0l0,-5.173z" opacity="0.42"/>
  <path id="svg_522" fill="white" d="m727.361,259.749l5.182,0l0,5.174l-5.182,0l0,-5.174z" opacity="0.11"/>
  <path id="svg_523" fill="white" d="m720.28,259.749l5.182,0l0,5.174l-5.182,0l0,-5.174z" opacity="0.02"/>
  <path id="svg_524" fill="white" d="m706.117,259.749l5.181,0l0,5.174l-5.181,0l0,-5.174z" opacity="0.3"/>
  <path id="svg_525" fill="white" d="m727.361,266.82l5.182,0l0,5.173l-5.182,0l0,-5.173z" opacity="0.19"/>
  <path id="svg_526" fill="white" d="m720.28,266.82l5.182,0l0,5.173l-5.182,0l0,-5.173z" opacity="0.05"/>
  <path id="svg_527" fill="white" d="m706.117,266.82l5.181,0l0,5.173l-5.181,0l0,-5.173z" opacity="0.2"/>
  <path id="svg_528" fill="white" d="m720.28,273.89l5.182,0l0,5.173l-5.182,0l0,-5.173z" opacity="0.27"/>
  <path id="svg_529" fill="white" d="m713.198,273.89l5.182,0l0,5.173l-5.182,0l0,-5.173z" opacity="0.13"/>
  <path id="svg_530" fill="white" d="m727.361,280.96l5.182,0l0,5.173l-5.182,0l0,-5.173z" opacity="0.46"/>
  <path id="svg_531" fill="white" d="m720.28,280.96l5.182,0l0,5.173l-5.182,0l0,-5.173z" opacity="0.12"/>
  <path id="svg_532" fill="white" d="m713.198,280.96l5.182,0l0,5.173l-5.182,0l0,-5.173z" opacity="0.04"/>
  <path id="svg_533" fill="white" d="m706.117,280.96l5.181,0l0,5.173l-5.181,0l0,-5.173z" opacity="0.3"/>
  <path id="svg_534" fill="white" d="m713.198,160.939l5.182,0l0,5.173l-5.182,0l0,-5.173z" opacity="0.08"/>
  <path id="svg_535" fill="white" d="m713.198,175.079l5.182,0l0,5.173l-5.182,0l0,-5.173z" opacity="0.08"/>
  <path id="svg_536" fill="white" d="m706.117,182.149l5.181,0l0,5.174l-5.181,0l0,-5.174z" opacity="0.01"/>
  <path id="svg_537" fill="white" d="m727.361,189.219l5.182,0l0,5.174l-5.182,0l0,-5.174z" opacity="0.15"/>
  <path id="svg_538" fill="white" d="m706.117,189.219l5.181,0l0,5.174l-5.181,0l0,-5.174z" opacity="0.12"/>
  <path id="svg_539" fill="white" d="m720.28,203.36l5.182,0l0,5.173l-5.182,0l0,-5.173z" opacity="0.13"/>
  <path id="svg_540" fill="white" d="m706.117,203.36l5.181,0l0,5.173l-5.181,0l0,-5.173z" opacity="0.07"/>
  <path id="svg_541" fill="white" d="m727.361,217.328l5.182,0l0,5.173l-5.182,0l0,-5.173z" opacity="0.02"/>
  <path id="svg_542" fill="white" d="m720.28,217.328l5.182,0l0,5.173l-5.182,0l0,-5.173z" opacity="0.02"/>
  <path id="svg_543" fill="white" d="m713.198,217.328l5.182,0l0,5.173l-5.182,0l0,-5.173z" opacity="0.14"/>
  <path id="svg_544" fill="white" d="m727.361,231.468l5.182,0l0,5.174l-5.182,0l0,-5.174z" opacity="0.09"/>
  <path id="svg_545" fill="white" d="m713.198,231.468l5.182,0l0,5.174l-5.182,0l0,-5.174z" opacity="0.02"/>
  <path id="svg_546" fill="white" d="m727.361,238.539l5.182,0l0,5.173l-5.182,0l0,-5.173z" opacity="0.19"/>
  <path id="svg_547" fill="white" d="m713.198,238.539l5.182,0l0,5.173l-5.182,0l0,-5.173z" opacity="0.06"/>
  <path id="svg_548" fill="white" d="m727.361,245.609l5.182,0l0,5.173l-5.182,0l0,-5.173z" opacity="0.16"/>
  <path id="svg_549" fill="white" d="m713.198,259.749l5.182,0l0,5.174l-5.182,0l0,-5.174z" opacity="0.04"/>
  <path id="svg_550" fill="white" d="m713.198,266.82l5.182,0l0,5.173l-5.182,0l0,-5.173z" opacity="0.04"/>
  <path id="svg_551" fill="white" d="m706.117,273.89l5.181,0l0,5.173l-5.181,0l0,-5.173z" opacity="0.18"/>
  <g id="svg_552" opacity="0.7">
   <path id="svg_553" fill="#E6E6E6" d="m691.781,158.007l5.354,0l0,127.091l-5.354,0l0,-127.091z" opacity="0.7"/>
   <path id="svg_554" fill="#E6E6E6" d="m682.627,158.007l5.354,0l0,127.091l-5.354,0l0,-127.091z" opacity="0.7"/>
   <path id="svg_555" fill="#E6E6E6" d="m673.3,158.007l5.354,0l0,127.091l-5.354,0l0,-127.091z" opacity="0.7"/>
   <path id="svg_556" fill="#E6E6E6" d="m663.973,158.007l5.354,0l0,127.091l-5.354,0l0,-127.091z" opacity="0.7"/>
   <path id="svg_557" fill="#E6E6E6" d="m654.646,158.007l5.354,0l0,127.091l-5.354,0l0,-127.091z" opacity="0.7"/>
  </g>
  <path id="svg_558" fill="#333333" d="m619.584,285.099l107.432,0l-107.432,-93.465l0,93.465z"/>
  <path id="svg_559" fill="#4D4D4D" d="m628.738,268.544l36.962,0l0,20.693l-36.962,0l0,-20.693z"/>
  <path id="svg_560" fill="#4D4D4D" d="m631.502,263.716l31.435,0l0,9.657l-31.435,0l0,-9.657z"/>
  <path id="svg_561" fill="#4D4D4D" d="m635.129,266.647l24.354,0l-8.464,-14.14l-7.427,0l-8.463,14.14z"/>
  <path id="svg_562" fill="white" d="m638.583,272.683l17.272,0l0,12.588l-17.272,0l0,-12.588z"/>
  <path id="svg_563" fill="#4D4D4D" d="m636.511,277.684l21.417,0l0,2.586l-21.417,0l0,-2.586z"/>
  <path id="svg_564" fill="#333333" d="m463.79,302.515c-0.518,13.451 9.845,25.005 23.49,25.522c13.472,0.517 25.045,-10.002 25.563,-23.452c0.518,-13.451 -9.845,-25.005 -23.49,-25.522c-13.472,-0.517 -24.872,10.002 -25.563,23.452z"/>
  <path id="svg_565" fill="#4D4D4D" d="m467.935,295.79c-0.345,7.76 5.7,14.313 13.473,14.658c7.772,0.345 14.335,-5.691 14.681,-13.451c0.345,-7.76 -5.7,-14.313 -13.472,-14.658c-7.773,-0.345 -14.336,5.691 -14.682,13.451z"/>
  <path id="svg_566" fill="#333333" d="m710.435,277.166c0,3.277 2.763,6.036 6.045,6.036c3.282,0 6.045,-2.759 6.045,-6.036c0,-3.276 -2.763,-6.035 -6.045,-6.035c-3.282,0 -6.045,2.586 -6.045,6.035z"/>
  <path id="svg_567" fill="#333333" d="m708.362,283.202c0,4.483 3.627,8.105 8.118,8.105c4.491,0 8.118,-3.622 8.118,-8.105c0,-4.484 -3.627,-8.105 -8.118,-8.105c-4.491,0 -8.118,3.621 -8.118,8.105z"/>
  <path id="svg_568" fill="#333333" d="m712.507,271.993c0,2.242 1.728,4.139 3.973,4.139c2.245,0 3.973,-1.897 3.973,-4.139c0,-2.242 -1.728,-4.139 -3.973,-4.139c-2.245,0 -3.973,1.897 -3.973,4.139z"/>
  <path id="svg_569" fill="#4D4D4D" d="m711.298,277.166c0,1.897 1.555,3.449 3.455,3.449c1.9,0 3.454,-1.552 3.454,-3.449c0,-1.897 -1.554,-3.449 -3.454,-3.449c-1.9,0 -3.455,1.552 -3.455,3.449z"/>
  <path id="svg_570" fill="#4D4D4D" d="m713.026,272.51c0,1.38 1.209,2.587 2.59,2.587c1.382,0 2.591,-1.207 2.591,-2.587c0,-1.379 -1.209,-2.587 -2.591,-2.587c-1.381,-0.172 -2.59,1.035 -2.59,2.587z"/>
  <path id="svg_571" fill="#333333" d="m595.23,289.754c0,4.312 3.627,7.933 7.945,7.933c4.318,0 7.946,-3.621 7.946,-7.933c0,-4.311 -3.455,-7.932 -7.946,-7.932c-4.318,0 -7.945,3.621 -7.945,7.932z"/>
  <path id="svg_572" fill="#333333" d="m597.994,283.029c0,2.932 2.245,5.346 5.181,5.346c2.937,0 5.182,-2.414 5.182,-5.346c0,-2.931 -2.245,-5.346 -5.182,-5.346c-2.763,0 -5.181,2.415 -5.181,5.346z"/>
  <path id="svg_573" fill="#4D4D4D" d="m598.685,283.546c0,1.897 1.554,3.449 3.454,3.449c1.9,0 3.455,-1.552 3.455,-3.449c0,-1.897 -1.555,-3.449 -3.455,-3.449c-1.9,0 -3.454,1.552 -3.454,3.449z"/>
  <path id="svg_574" fill="#333333" d="m605.939,295.618c0.864,8.277 8.291,14.14 16.408,13.278c8.291,-0.862 14.164,-8.277 13.3,-16.382c-0.864,-8.278 -8.291,-14.141 -16.408,-13.278c-8.118,0.862 -14.164,8.104 -13.3,16.382z"/>
  <path id="svg_575" fill="#333333" d="m609.739,282.34c0.518,5.518 5.354,9.657 10.881,9.139c5.355,-0.517 9.327,-5.518 8.809,-11.036c-0.518,-5.518 -5.354,-9.657 -10.881,-9.14c-5.527,0.518 -9.327,5.518 -8.809,11.037z"/>
  <path id="svg_576" fill="#4D4D4D" d="m611.121,283.374c0.345,3.622 3.627,6.208 7.081,5.863c3.627,-0.345 6.218,-3.621 5.873,-7.07c-0.346,-3.621 -3.627,-6.208 -7.082,-5.863c-3.627,0.345 -6.218,3.621 -5.872,7.07z"/>
  <path id="svg_577" fill="#333333" d="m527.697,288.375c0,7.588 6.045,13.623 13.645,13.623c7.6,0 13.645,-6.035 13.645,-13.623c0,-7.588 -6.045,-13.623 -13.645,-13.623c-7.427,0 -13.645,6.035 -13.645,13.623z"/>
  <path id="svg_578" fill="#333333" d="m523.033,301.998c0,10.174 8.291,18.279 18.309,18.279c10.19,0 18.308,-8.277 18.308,-18.279c0,-10.174 -8.29,-18.279 -18.308,-18.279c-10.018,0 -18.309,8.277 -18.309,18.279z"/>
  <path id="svg_579" fill="#333333" d="m532.533,276.649c0,5.173 3.973,9.312 8.981,9.312c5.009,0 8.982,-4.139 8.982,-9.312c0,-5.174 -3.973,-9.312 -8.982,-9.312c-5.008,0.172 -8.981,4.311 -8.981,9.312z"/>
  <path id="svg_580" fill="#4D4D4D" d="m529.769,288.375c0,4.311 3.455,7.932 7.946,7.932c4.318,0 7.945,-3.448 7.945,-7.932c0,-4.311 -3.455,-7.932 -7.945,-7.932c-4.318,0.172 -7.946,3.621 -7.946,7.932z"/>
  <path id="svg_581" fill="#4D4D4D" d="m533.742,277.856c0,3.276 2.591,6.035 6.045,6.035c3.282,0 6.045,-2.586 6.045,-6.035c0,-3.277 -2.59,-5.863 -6.045,-5.863c-3.454,-0.173 -6.045,2.586 -6.045,5.863z"/>
  <path id="svg_582" fill="#333333" d="m557.923,299.756c0,9.657 7.945,17.589 17.617,17.589c9.673,0 17.618,-7.932 17.618,-17.589c0,-9.657 -7.945,-17.589 -17.618,-17.589c-9.672,0 -17.617,7.76 -17.617,17.589z"/>
  <path id="svg_583" fill="#333333" d="m563.968,284.581c0,6.553 5.182,11.899 11.572,11.899c6.391,0 11.573,-5.346 11.573,-11.899c0,-6.553 -5.182,-11.899 -11.573,-11.899c-6.39,0 -11.572,5.346 -11.572,11.899z"/>
  <path id="svg_584" fill="#4D4D4D" d="m565.523,286.133c0,4.311 3.454,7.588 7.772,7.588c4.318,0 7.773,-3.449 7.773,-7.588c0,-4.311 -3.455,-7.76 -7.773,-7.76c-4.318,0 -7.772,3.449 -7.772,7.76z"/>
  <path id="svg_585" fill="#333333" d="m515.261,286.65c0,2.07 1.554,3.622 3.454,3.622c1.9,0 3.455,-1.552 3.455,-3.622c0,-2.069 -1.555,-3.621 -3.455,-3.621c-1.9,0 -3.454,1.552 -3.454,3.621z"/>
  <path id="svg_586" fill="#333333" d="m440.991,282.34c0,6.725 5.355,12.071 12.091,12.071c6.736,0 12.09,-5.346 12.09,-12.071c0,-6.726 -5.354,-12.072 -12.09,-12.072c-6.736,0 -12.091,5.346 -12.091,12.072z"/>
  <path id="svg_587" fill="#333333" d="m436.846,294.411c0,8.967 7.254,16.21 16.236,16.21c8.981,0 16.235,-7.243 16.235,-16.21c0,-8.967 -7.254,-16.21 -16.235,-16.21c-8.982,0 -16.236,7.243 -16.236,16.21z"/>
  <path id="svg_588" fill="#333333" d="m445.136,271.993c0,4.484 3.628,8.277 7.946,8.277c4.318,0 7.945,-3.621 7.945,-8.277c0,-4.484 -3.627,-8.277 -7.945,-8.277c-4.318,0 -7.946,3.793 -7.946,8.277z"/>
  <path id="svg_589" fill="#4D4D4D" d="m442.891,282.34c0,3.793 3.109,6.897 6.909,6.897c3.8,0 6.909,-3.104 6.909,-6.897c0,-3.794 -3.109,-6.898 -6.909,-6.898c-3.8,0 -6.909,3.104 -6.909,6.898z"/>
  <path id="svg_590" fill="#4D4D4D" d="m446.173,273.028c0,2.931 2.418,5.345 5.354,5.345c2.936,0 5.354,-2.414 5.354,-5.345c0,-2.932 -2.418,-5.346 -5.354,-5.346c-2.936,0 -5.354,2.414 -5.354,5.346z"/>
  <path id="svg_591" fill="#333333" d="m395.911,297.515c0,8.967 7.254,16.209 16.236,16.209c8.981,0 16.236,-7.242 16.236,-16.209c0,-8.967 -7.255,-16.21 -16.236,-16.21c-8.982,0.172 -16.236,7.415 -16.236,16.21z"/>
  <path id="svg_592" fill="#333333" d="m401.611,283.719c0,6.036 4.836,11.037 10.536,11.037c5.873,0 10.709,-4.829 10.709,-11.037c0,-6.035 -4.836,-10.864 -10.709,-10.864c-5.872,0 -10.536,4.829 -10.536,10.864z"/>
  <path id="svg_593" fill="#4D4D4D" d="m402.993,285.099c0,3.966 3.109,7.07 7.081,7.07c3.973,0 7.082,-3.104 7.082,-7.07c0,-3.966 -3.109,-7.07 -7.082,-7.07c-3.972,0 -7.081,3.104 -7.081,7.07z"/>
  <path id="svg_594" fill="#333333" d="m131.649,304.068c0,14.83 11.918,26.729 26.772,26.729c14.854,0 26.772,-11.899 26.772,-26.729c0,-14.831 -11.918,-26.729 -26.772,-26.729c-14.854,0 -26.772,12.071 -26.772,26.729z"/>
  <path id="svg_595" fill="#4D4D4D" d="m135.622,296.653c0,8.449 6.909,15.347 15.372,15.347c8.463,0 15.372,-6.898 15.372,-15.347c0,-8.45 -6.909,-15.348 -15.372,-15.348c-8.463,0 -15.372,6.898 -15.372,15.348z"/>
  <path id="svg_596" fill="#333333" d="m97.2778,292.514c0,12.416 10.1902,22.59 22.6262,22.59c12.436,0 22.627,-10.174 22.627,-22.59c0,-12.416 -10.191,-22.59 -22.627,-22.59c-12.608,0 -22.6262,10.001 -22.6262,22.59z"/>
  <path id="svg_597" fill="#4D4D4D" d="m100.732,286.133c0,7.243 5.873,12.934 12.954,12.934c7.255,0 12.954,-5.863 12.954,-12.934c0,-7.07 -5.872,-12.933 -12.954,-12.933c-7.081,0 -12.954,5.863 -12.954,12.933z"/>
  <path id="svg_598" fill="#333333" d="m154.966,296.135c0,12.416 10.191,22.59 22.627,22.59c12.436,0 22.626,-10.174 22.626,-22.59c0,-12.416 -10.19,-22.59 -22.626,-22.59c-12.609,0 -22.627,10.001 -22.627,22.59z"/>
  <path id="svg_599" fill="#4D4D4D" d="m158.421,289.755c0,7.242 5.872,12.933 12.954,12.933c7.081,0 12.954,-5.863 12.954,-12.933c0,-7.243 -5.873,-12.934 -12.954,-12.934c-7.082,0 -12.954,5.691 -12.954,12.934z"/>
  <path id="svg_600" fill="#333333" d="m224.745,301.309c0,12.416 10.191,22.59 22.627,22.59c12.436,0 22.626,-10.174 22.626,-22.59c0,-12.416 -10.19,-22.59 -22.626,-22.59c-12.609,0 -22.627,10.174 -22.627,22.59z"/>
  <path id="svg_601" fill="#4D4D4D" d="m228.2,294.928c0,7.243 5.872,12.934 12.954,12.934c7.254,0 12.954,-5.863 12.954,-12.934c0,-7.242 -5.873,-12.933 -12.954,-12.933c-7.082,0 -12.954,5.863 -12.954,12.933z"/>
  <path id="svg_602" fill="#333333" d="m252.035,297.515c0,12.416 10.191,22.59 22.627,22.59c12.436,0 22.626,-10.174 22.626,-22.59c0,-12.416 -10.19,-22.59 -22.626,-22.59c-12.436,0 -22.627,10.001 -22.627,22.59z"/>
  <path id="svg_603" fill="#4D4D4D" d="m255.49,291.134c0,7.243 5.872,12.934 12.954,12.934c7.254,0 12.954,-5.863 12.954,-12.934c0,-7.242 -5.873,-12.933 -12.954,-12.933c-7.082,0 -12.954,5.691 -12.954,12.933z"/>
  <path id="svg_604" fill="#4D4D4D" d="m234.418,293.893c0,7.243 5.872,12.933 12.954,12.933c7.254,0 12.954,-5.863 12.954,-12.933c0,-7.243 -5.873,-12.933 -12.954,-12.933c-7.254,0 -12.954,5.863 -12.954,12.933z"/>
  <path id="svg_605" fill="#333333" d="m330.968,294.928c0,8.105 6.564,14.83 14.854,14.83c8.118,0 14.854,-6.553 14.854,-14.83c0,-8.105 -6.563,-14.831 -14.854,-14.831c-8.29,0.173 -14.854,6.726 -14.854,14.831z"/>
  <path id="svg_606" fill="#4D4D4D" d="m333.214,290.789c0,4.656 3.8,8.45 8.463,8.45c4.663,0 8.463,-3.794 8.463,-8.45c0,-4.656 -3.8,-8.45 -8.463,-8.45c-4.663,0 -8.463,3.794 -8.463,8.45z"/>
  <path id="svg_607" fill="#333333" d="m719.071,283.202c0,6.897 5.527,12.416 12.436,12.416c6.909,0 12.436,-5.519 12.436,-12.416c0,-6.898 -5.527,-12.416 -12.436,-12.416c-6.736,-0.173 -12.436,5.518 -12.436,12.416z"/>
  <path id="svg_608" fill="#333333" d="m714.926,295.618c0,9.312 7.427,16.727 16.754,16.727c9.326,0 16.753,-7.415 16.753,-16.727c0,-9.312 -7.427,-16.727 -16.753,-16.727c-9.327,0 -16.754,7.415 -16.754,16.727z"/>
  <path id="svg_609" fill="#333333" d="m723.389,272.51c0,4.656 3.627,8.45 8.291,8.45c4.49,0 8.29,-3.794 8.29,-8.45c0,-4.656 -3.627,-8.45 -8.29,-8.45c-4.664,0 -8.291,3.794 -8.291,8.45z"/>
  <path id="svg_610" fill="#4D4D4D" d="m720.971,283.201c0,3.967 3.282,7.243 7.254,7.243c3.973,0 7.254,-3.276 7.254,-7.243c0,-3.966 -3.281,-7.242 -7.254,-7.242c-3.972,0 -7.254,3.276 -7.254,7.242z"/>
  <path id="svg_611" fill="#4D4D4D" d="m724.425,273.545c0,2.931 2.418,5.518 5.527,5.518c2.937,0 5.527,-2.414 5.527,-5.518c0,-2.932 -2.418,-5.518 -5.527,-5.518c-2.936,0 -5.527,2.414 -5.527,5.518z"/>
  <path id="svg_612" fill="#333333" d="m660.173,288.03c0,5.519 4.491,10.002 10.018,10.002c5.527,0 10.018,-4.483 10.018,-10.002c0,-5.518 -4.491,-10.001 -10.018,-10.001c-5.527,0 -10.018,4.483 -10.018,10.001z"/>
  <path id="svg_613" fill="#333333" d="m663.628,279.408c0,3.794 2.936,6.898 6.563,6.898c3.627,0 6.564,-3.104 6.564,-6.898c0,-3.794 -2.937,-6.898 -6.564,-6.898c-3.627,0.173 -6.563,3.104 -6.563,6.898z"/>
  <path id="svg_614" fill="#4D4D4D" d="m661.728,288.03c0,3.277 2.591,5.863 5.872,5.863c3.282,0 5.873,-2.586 5.873,-5.863c0,-3.104 -2.591,-5.69 -5.873,-5.69c-3.281,-0.173 -5.872,2.414 -5.872,5.69z"/>
  <path id="svg_615" fill="#4D4D4D" d="m664.491,280.27c0,2.415 1.9,4.311 4.318,4.311c2.418,0 4.318,-1.896 4.318,-4.311c0,-2.414 -1.9,-4.311 -4.318,-4.311c-2.418,-0.172 -4.318,1.897 -4.318,4.311z"/>
 </g>
</svg>